<svg width="1920" height="1080" viewBox="0 0 1920 1080" fill="none" xmlns="http://www.w3.org/2000/svg">
<g clip-path="url(#clip0_333_553)">
<rect width="1920" height="1080" fill="white"/>
<path d="M1920 -3.46753H0V1410.05H1920V-3.46753Z" fill="url(#paint0_radial_333_553)"/>
<path opacity="0.3" d="M1920 -13.408H1535.2C1454.44 29.1388 1356.34 89.9199 1235.51 175.89C939.429 386.616 555.319 145.005 183.771 196.937C119.054 205.984 54.3634 224.373 0 244.417V576.847C67.8171 519.232 174.898 455.285 320.914 448.5C576.658 436.513 715.886 571.405 979.2 538.965C1231.54 507.868 1383.18 335.207 1536 250.608C1686.57 167.211 1816.51 149.74 1920 158.376V-13.408Z" fill="#3A1D77"/>
<path opacity="0.3" d="M1920 1002.09C1674.51 1072.45 1550.81 1209.96 1377.83 1290.93C943.296 1494.32 771.662 1151.3 264.37 1163.53C169.371 1165.82 60.4526 1202.29 0 1222.68V1399.51H1574.63C1663.95 1349.15 1744.17 1294.05 1811.66 1245.44C1845.9 1220.51 1882.15 1198.64 1920 1180.05V1002.09Z" fill="#3A1D77"/>
<path opacity="0.3" d="M0 -14V134.645C67.7897 94.8406 156.411 61.2131 265.755 56.3647C535.282 44.3781 702.788 189.546 981.229 168.343C1151.7 155.325 1284.19 71.2207 1396.65 -14H0Z" fill="#3A1D77"/>
<path opacity="0.3" d="M1920 250.624C1914.84 251.303 1909.61 252.075 1904.3 252.942C1634.83 297.468 1543.42 583.789 1254.49 720.815C960 860.598 615.909 518.457 247.049 587.846C161.554 603.932 72.5074 645.857 0 689.124V803.718C82.944 756.45 197.952 708.631 330.665 702.412C586.423 690.439 803.808 921.096 1068.34 902.028C1362.47 880.825 1496.23 710.765 1633.37 636.768C1742.63 577.824 1838.41 557.3 1920 557.95V250.624Z" fill="#3A1D77"/>
<path opacity="0.3" d="M1920 670.706C1666.85 708.758 1552.36 857.544 1366.72 952.179C1011.99 1133.04 731.04 898.564 528 854.236C325.687 810.078 172.937 840.455 0 928.813V1085.42C27.9634 1073.49 57.8606 1060.27 91.8857 1043.79C406.505 891.468 773.637 1233.3 1059.69 1224.58C1481.95 1211.71 1573.03 1064.85 1769.47 950.186C1822.41 919.272 1872.55 894.748 1920 875.764V670.706Z" fill="#3A1D77"/>
<path d="M1717.74 858.844C1717.74 861.495 1716.98 864.086 1715.55 866.289C1714.12 868.492 1712.08 870.209 1709.71 871.223C1707.33 872.238 1704.72 872.504 1702.2 871.988C1699.67 871.472 1697.35 870.198 1695.53 868.326C1693.71 866.453 1692.47 864.067 1691.97 861.468C1691.46 858.869 1691.71 856.174 1692.69 853.723C1693.67 851.272 1695.33 849.175 1697.47 847.696C1699.6 846.218 1702.11 845.424 1704.69 845.416C1706.4 845.41 1708.1 845.754 1709.68 846.426C1711.27 847.099 1712.71 848.087 1713.92 849.335C1715.13 850.583 1716.1 852.065 1716.75 853.697C1717.41 855.329 1717.74 857.078 1717.74 858.844V858.844Z" fill="#EFEFEF"/>
<path d="M519.922 132.256C519.928 134.911 519.169 137.507 517.742 139.717C516.315 141.926 514.285 143.65 511.907 144.67C509.529 145.689 506.912 145.959 504.385 145.445C501.859 144.93 499.537 143.655 497.714 141.78C495.891 139.905 494.649 137.515 494.145 134.912C493.64 132.309 493.896 129.611 494.881 127.158C495.865 124.705 497.533 122.608 499.674 121.133C501.815 119.658 504.332 118.87 506.907 118.87C510.354 118.87 513.661 120.28 516.101 122.789C518.541 125.299 519.915 128.704 519.922 132.256V132.256Z" fill="#EFEFEF"/>
<path d="M656.818 399.891C656.818 401.881 656.246 403.827 655.173 405.482C654.1 407.137 652.575 408.427 650.79 409.189C649.006 409.951 647.043 410.15 645.149 409.762C643.255 409.373 641.515 408.415 640.149 407.007C638.783 405.6 637.853 403.807 637.477 401.854C637.1 399.902 637.293 397.878 638.032 396.039C638.771 394.2 640.023 392.629 641.629 391.523C643.235 390.417 645.122 389.827 647.054 389.827C649.643 389.827 652.127 390.887 653.958 392.774C655.789 394.662 656.818 397.222 656.818 399.891V399.891Z" fill="#EFEFEF"/>
<path d="M537.599 593.698C537.599 595.688 537.027 597.634 535.954 599.289C534.881 600.944 533.356 602.234 531.572 602.996C529.787 603.757 527.824 603.957 525.93 603.568C524.036 603.18 522.296 602.222 520.93 600.814C519.565 599.407 518.635 597.613 518.258 595.661C517.881 593.709 518.075 591.685 518.814 589.846C519.553 588.007 520.804 586.435 522.41 585.329C524.016 584.224 525.904 583.633 527.835 583.633C529.118 583.631 530.388 583.891 531.574 584.396C532.759 584.901 533.836 585.642 534.744 586.577C535.651 587.512 536.37 588.622 536.86 589.844C537.35 591.066 537.601 592.375 537.599 593.698V593.698Z" fill="#EFEFEF"/>
<path d="M876.412 156.625C876.412 158.616 875.839 160.563 874.765 162.218C873.692 163.873 872.166 165.163 870.381 165.924C868.596 166.686 866.632 166.884 864.737 166.495C862.843 166.105 861.103 165.145 859.738 163.736C858.373 162.328 857.444 160.533 857.069 158.58C856.694 156.627 856.889 154.603 857.63 152.764C858.371 150.925 859.625 149.354 861.232 148.25C862.84 147.146 864.729 146.558 866.661 146.561C867.943 146.561 869.212 146.821 870.396 147.327C871.58 147.833 872.655 148.575 873.561 149.509C874.466 150.444 875.184 151.554 875.674 152.775C876.163 153.996 876.414 155.304 876.412 156.625V156.625Z" fill="#EFEFEF"/>
<path d="M1117.54 1067.42C1119.19 1060.21 1114.85 1052.99 1107.85 1051.29C1100.86 1049.6 1093.85 1054.07 1092.21 1061.28C1090.56 1068.49 1094.9 1075.72 1101.9 1077.41C1108.89 1079.11 1115.9 1074.63 1117.54 1067.42Z" fill="#EFEFEF"/>
<path d="M603.428 757.071C603.428 759.725 602.665 762.318 601.235 764.524C599.805 766.73 597.772 768.449 595.394 769.465C593.016 770.48 590.399 770.746 587.874 770.228C585.35 769.71 583.031 768.433 581.21 766.557C579.39 764.681 578.151 762.291 577.649 759.688C577.146 757.086 577.404 754.389 578.389 751.938C579.374 749.487 581.042 747.392 583.183 745.918C585.323 744.444 587.839 743.657 590.413 743.657C592.122 743.657 593.815 744.004 595.394 744.678C596.973 745.352 598.408 746.341 599.616 747.586C600.825 748.832 601.783 750.311 602.437 751.938C603.092 753.566 603.428 755.31 603.428 757.071V757.071Z" fill="#EFEFEF"/>
<path d="M1256.64 159.678C1256.64 162.331 1255.88 164.925 1254.45 167.131C1253.02 169.337 1250.98 171.056 1248.6 172.071C1246.23 173.087 1243.61 173.352 1241.09 172.835C1238.56 172.317 1236.24 171.039 1234.42 169.163C1232.6 167.287 1231.36 164.897 1230.86 162.295C1230.36 159.693 1230.62 156.996 1231.6 154.545C1232.59 152.094 1234.25 149.999 1236.39 148.525C1238.53 147.051 1241.05 146.264 1243.62 146.264C1247.08 146.264 1250.39 147.677 1252.83 150.193C1255.27 152.709 1256.64 156.12 1256.64 159.678V159.678Z" fill="#EFEFEF"/>
<path d="M1486.43 657.78C1488.08 650.569 1483.75 643.345 1476.75 641.643C1469.76 639.941 1462.75 644.407 1461.1 651.617C1459.45 658.827 1463.78 666.052 1470.77 667.754C1477.77 669.456 1484.78 664.99 1486.43 657.78Z" fill="#EFEFEF"/>
<path d="M1460.4 979.713C1462.05 972.502 1457.72 965.277 1450.72 963.576C1443.73 961.874 1436.72 966.339 1435.06 973.55C1433.41 980.76 1437.75 987.985 1444.74 989.687C1451.74 991.389 1458.75 986.923 1460.4 979.713Z" fill="#EFEFEF"/>
<path d="M233.555 622.081C233.555 624.734 232.792 627.328 231.362 629.534C229.932 631.74 227.899 633.459 225.521 634.474C223.143 635.49 220.526 635.755 218.001 635.238C215.477 634.72 213.158 633.443 211.337 631.567C209.517 629.691 208.278 627.3 207.775 624.698C207.273 622.096 207.531 619.399 208.516 616.948C209.501 614.497 211.169 612.402 213.31 610.928C215.45 609.454 217.966 608.667 220.54 608.667C223.992 608.667 227.302 610.08 229.743 612.596C232.184 615.112 233.555 618.524 233.555 622.081V622.081Z" fill="#EFEFEF"/>
<path d="M1377.83 515.502C1377.83 516.514 1377.54 517.504 1377 518.345C1376.45 519.186 1375.68 519.842 1374.77 520.23C1373.86 520.617 1372.86 520.718 1371.9 520.521C1370.94 520.323 1370.05 519.836 1369.36 519.12C1368.66 518.405 1368.19 517.493 1368 516.5C1367.81 515.508 1367.91 514.479 1368.28 513.544C1368.66 512.609 1369.29 511.81 1370.11 511.248C1370.93 510.685 1371.89 510.385 1372.87 510.385C1374.19 510.385 1375.45 510.924 1376.38 511.884C1377.31 512.844 1377.83 514.145 1377.83 515.502Z" fill="#EFEFEF"/>
<path d="M1528.73 961.536C1528.73 962.549 1528.45 963.539 1527.9 964.383C1527.36 965.226 1526.58 965.884 1525.68 966.274C1524.77 966.663 1523.77 966.766 1522.81 966.571C1521.84 966.375 1520.96 965.889 1520.26 965.174C1519.57 964.458 1519.09 963.547 1518.9 962.554C1518.71 961.561 1518.8 960.531 1519.18 959.595C1519.55 958.66 1520.19 957.86 1521.01 957.297C1521.82 956.734 1522.78 956.433 1523.77 956.433C1525.08 956.433 1526.34 956.971 1527.27 957.927C1528.2 958.884 1528.73 960.182 1528.73 961.536V961.536Z" fill="#EFEFEF"/>
<path d="M1572.11 872.273C1572.11 873.285 1571.82 874.274 1571.27 875.115C1570.73 875.957 1569.95 876.613 1569.04 877C1568.14 877.387 1567.14 877.489 1566.18 877.291C1565.21 877.094 1564.33 876.607 1563.63 875.891C1562.94 875.175 1562.47 874.264 1562.28 873.271C1562.08 872.278 1562.18 871.25 1562.56 870.315C1562.93 869.38 1563.57 868.58 1564.39 868.018C1565.2 867.456 1566.16 867.156 1567.14 867.156C1568.46 867.156 1569.72 867.695 1570.65 868.654C1571.59 869.614 1572.11 870.916 1572.11 872.273V872.273Z" fill="#EFEFEF"/>
<path d="M1811.96 711.924C1811.96 712.936 1811.67 713.925 1811.12 714.767C1810.58 715.608 1809.8 716.264 1808.89 716.651C1807.99 717.039 1806.99 717.14 1806.03 716.943C1805.06 716.745 1804.18 716.258 1803.48 715.542C1802.79 714.827 1802.32 713.915 1802.12 712.922C1801.93 711.93 1802.03 710.901 1802.41 709.966C1802.78 709.031 1803.42 708.232 1804.24 707.669C1805.05 707.107 1806.01 706.807 1806.99 706.807C1808.31 706.807 1809.57 707.346 1810.5 708.306C1811.44 709.265 1811.96 710.567 1811.96 711.924V711.924Z" fill="#EFEFEF"/>
<path d="M1824 881.857C1824 882.869 1823.71 883.858 1823.16 884.699C1822.62 885.541 1821.84 886.197 1820.94 886.584C1820.03 886.971 1819.03 887.073 1818.07 886.875C1817.1 886.678 1816.22 886.191 1815.53 885.475C1814.83 884.759 1814.36 883.848 1814.17 882.855C1813.98 881.862 1814.07 880.834 1814.45 879.899C1814.82 878.964 1815.46 878.164 1816.28 877.602C1817.09 877.04 1818.05 876.74 1819.04 876.74C1820.35 876.74 1821.62 877.279 1822.55 878.238C1823.48 879.198 1824 880.5 1824 881.857V881.857Z" fill="#EFEFEF"/>
<path d="M159.181 771.786C159.181 772.798 158.89 773.787 158.344 774.629C157.799 775.47 157.024 776.126 156.116 776.513C155.209 776.901 154.211 777.002 153.248 776.805C152.285 776.607 151.4 776.12 150.706 775.404C150.012 774.688 149.539 773.777 149.347 772.784C149.156 771.792 149.254 770.763 149.63 769.828C150.006 768.893 150.642 768.094 151.458 767.531C152.275 766.969 153.235 766.669 154.217 766.669C155.533 766.669 156.796 767.208 157.727 768.168C158.658 769.127 159.181 770.429 159.181 771.786Z" fill="#EFEFEF"/>
<path d="M1201.47 353.175C1201.47 354.187 1201.18 355.176 1200.63 356.017C1200.08 356.859 1199.31 357.515 1198.4 357.902C1197.49 358.289 1196.5 358.391 1195.53 358.193C1194.57 357.996 1193.69 357.508 1192.99 356.793C1192.3 356.077 1191.82 355.165 1191.63 354.173C1191.44 353.18 1191.54 352.151 1191.92 351.216C1192.29 350.281 1192.93 349.482 1193.74 348.92C1194.56 348.358 1195.52 348.058 1196.5 348.058C1197.82 348.058 1199.08 348.597 1200.01 349.556C1200.94 350.516 1201.47 351.817 1201.47 353.175V353.175Z" fill="#EFEFEF"/>
<path d="M1137.02 325.244C1137.02 326.256 1136.73 327.245 1136.19 328.086C1135.64 328.928 1134.87 329.584 1133.96 329.971C1133.05 330.358 1132.05 330.46 1131.09 330.262C1130.13 330.065 1129.24 329.577 1128.55 328.862C1127.86 328.146 1127.38 327.234 1127.19 326.242C1127 325.249 1127.1 324.22 1127.47 323.285C1127.85 322.35 1128.49 321.551 1129.3 320.989C1130.12 320.427 1131.08 320.127 1132.06 320.127C1133.38 320.127 1134.64 320.666 1135.57 321.625C1136.5 322.585 1137.02 323.887 1137.02 325.244V325.244Z" fill="#EFEFEF"/>
<path d="M60.0268 666.112C60.0268 667.124 59.7356 668.113 59.1901 668.955C58.6446 669.796 57.8692 670.452 56.9621 670.839C56.0549 671.227 55.0567 671.328 54.0937 671.131C53.1307 670.933 52.2461 670.446 51.5518 669.73C50.8574 669.015 50.3846 668.103 50.1931 667.11C50.0015 666.118 50.0998 665.089 50.4756 664.154C50.8513 663.219 51.4876 662.42 52.3041 661.857C53.1205 661.295 54.0803 660.995 55.0622 660.995C56.3789 660.995 57.6417 661.534 58.5727 662.494C59.5038 663.453 60.0268 664.755 60.0268 666.112V666.112Z" fill="#EFEFEF"/>
<path d="M1757.55 132.257C1757.55 133.269 1757.26 134.258 1756.72 135.099C1756.17 135.941 1755.4 136.597 1754.49 136.984C1753.58 137.371 1752.58 137.473 1751.62 137.275C1750.66 137.078 1749.77 136.59 1749.08 135.875C1748.38 135.159 1747.91 134.247 1747.72 133.255C1747.53 132.262 1747.63 131.233 1748 130.298C1748.38 129.363 1749.01 128.564 1749.83 128.002C1750.65 127.44 1751.61 127.14 1752.59 127.14C1753.91 127.14 1755.17 127.679 1756.1 128.638C1757.03 129.598 1757.55 130.899 1757.55 132.257V132.257Z" fill="#EFEFEF"/>
<path d="M1132.06 276.604C1132.06 277.617 1131.77 278.606 1131.22 279.447C1130.68 280.289 1129.9 280.945 1129 281.332C1128.09 281.719 1127.09 281.821 1126.13 281.623C1125.16 281.426 1124.28 280.938 1123.58 280.223C1122.89 279.507 1122.42 278.595 1122.23 277.603C1122.03 276.61 1122.13 275.581 1122.51 274.646C1122.88 273.711 1123.52 272.912 1124.34 272.35C1125.15 271.788 1126.11 271.488 1127.1 271.488C1127.75 271.486 1128.39 271.617 1129 271.873C1129.6 272.13 1130.15 272.507 1130.61 272.982C1131.07 273.458 1131.44 274.022 1131.69 274.644C1131.93 275.266 1132.06 275.932 1132.06 276.604V276.604Z" fill="#EFEFEF"/>
<path d="M1650.81 950.821C1650.81 951.959 1650.49 953.071 1649.87 954.018C1649.26 954.964 1648.39 955.701 1647.37 956.136C1646.35 956.572 1645.23 956.686 1644.14 956.464C1643.06 956.242 1642.07 955.694 1641.29 954.889C1640.51 954.085 1639.97 953.06 1639.76 951.944C1639.54 950.828 1639.65 949.671 1640.08 948.62C1640.5 947.569 1641.21 946.67 1642.13 946.038C1643.05 945.406 1644.13 945.068 1645.23 945.068C1646.71 945.068 1648.13 945.674 1649.18 946.753C1650.23 947.832 1650.81 949.296 1650.81 950.821V950.821Z" fill="#EFEFEF"/>
<path d="M1225.03 77.7794C1228.11 77.7794 1230.61 75.2037 1230.61 72.0264C1230.61 68.8491 1228.11 66.2734 1225.03 66.2734C1221.95 66.2734 1219.45 68.8491 1219.45 72.0264C1219.45 75.2037 1221.95 77.7794 1225.03 77.7794Z" fill="#EFEFEF"/>
<path d="M1284.18 580.001C1284.18 581.139 1283.85 582.251 1283.24 583.197C1282.63 584.143 1281.75 584.881 1280.73 585.316C1279.71 585.752 1278.59 585.865 1277.51 585.644C1276.43 585.422 1275.43 584.874 1274.65 584.069C1273.87 583.264 1273.34 582.239 1273.12 581.123C1272.91 580.007 1273.02 578.851 1273.44 577.799C1273.86 576.748 1274.58 575.85 1275.5 575.218C1276.41 574.585 1277.49 574.248 1278.6 574.248C1280.08 574.248 1281.5 574.854 1282.54 575.933C1283.59 577.012 1284.18 578.475 1284.18 580.001V580.001Z" fill="#EFEFEF"/>
<path d="M420.382 661.391C420.382 662.529 420.055 663.641 419.442 664.587C418.828 665.533 417.956 666.27 416.936 666.706C415.917 667.141 414.794 667.255 413.712 667.033C412.629 666.811 411.634 666.263 410.854 665.459C410.073 664.654 409.541 663.629 409.326 662.513C409.111 661.397 409.221 660.24 409.644 659.189C410.066 658.138 410.782 657.239 411.699 656.607C412.617 655.975 413.697 655.638 414.8 655.638C416.281 655.638 417.701 656.244 418.747 657.323C419.794 658.402 420.382 659.865 420.382 661.391V661.391Z" fill="#EFEFEF"/>
<path d="M1000.73 1019.63C1003.81 1019.63 1006.31 1017.06 1006.31 1013.88C1006.31 1010.7 1003.81 1008.13 1000.73 1008.13C997.649 1008.13 995.15 1010.7 995.15 1013.88C995.15 1017.06 997.649 1019.63 1000.73 1019.63Z" fill="#EFEFEF"/>
<path d="M1058.39 72.0264C1058.39 73.1643 1058.06 74.2766 1057.45 75.2226C1056.83 76.1687 1055.96 76.9061 1054.94 77.3415C1053.92 77.777 1052.8 77.8909 1051.72 77.6689C1050.63 77.4469 1049.64 76.899 1048.86 76.0944C1048.08 75.2899 1047.55 74.2648 1047.33 73.1488C1047.11 72.0328 1047.23 70.8761 1047.65 69.8249C1048.07 68.7736 1048.79 67.8751 1049.7 67.243C1050.62 66.6108 1051.7 66.2734 1052.8 66.2734C1054.28 66.2734 1055.7 66.8796 1056.75 67.9584C1057.8 69.0373 1058.39 70.5006 1058.39 72.0264V72.0264Z" fill="#EFEFEF"/>
<path d="M1538.89 140.073C1538.89 141.211 1538.57 142.323 1537.95 143.269C1537.34 144.215 1536.47 144.953 1535.45 145.388C1534.43 145.824 1533.3 145.938 1532.22 145.716C1531.14 145.494 1530.14 144.946 1529.36 144.141C1528.58 143.336 1528.05 142.311 1527.84 141.195C1527.62 140.079 1527.73 138.923 1528.15 137.871C1528.58 136.82 1529.29 135.922 1530.21 135.29C1531.13 134.657 1532.21 134.32 1533.31 134.32C1534.79 134.32 1536.21 134.926 1537.26 136.005C1538.3 137.084 1538.89 138.547 1538.89 140.073V140.073Z" fill="#EFEFEF"/>
<path d="M748.456 392.23C748.456 393.368 748.129 394.48 747.516 395.426C746.902 396.373 746.031 397.11 745.011 397.545C743.991 397.981 742.868 398.095 741.786 397.873C740.703 397.651 739.708 397.103 738.928 396.298C738.147 395.494 737.616 394.469 737.4 393.353C737.185 392.237 737.295 391.08 737.718 390.029C738.14 388.977 738.856 388.079 739.774 387.447C740.692 386.815 741.771 386.477 742.875 386.477C744.355 386.477 745.775 387.083 746.822 388.162C747.868 389.241 748.456 390.705 748.456 392.23V392.23Z" fill="#EFEFEF"/>
<path d="M966.128 193.49C966.128 194.627 965.801 195.74 965.188 196.686C964.574 197.632 963.703 198.369 962.683 198.805C961.663 199.24 960.54 199.354 959.458 199.132C958.375 198.91 957.38 198.362 956.6 197.558C955.819 196.753 955.287 195.728 955.072 194.612C954.857 193.496 954.967 192.339 955.39 191.288C955.812 190.237 956.528 189.338 957.446 188.706C958.363 188.074 959.443 187.737 960.547 187.737C962.027 187.737 963.447 188.343 964.493 189.422C965.54 190.5 966.128 191.964 966.128 193.49V193.49Z" fill="#EFEFEF"/>
<path d="M590.413 245.309C590.413 246.447 590.086 247.559 589.473 248.505C588.859 249.451 587.988 250.189 586.968 250.624C585.948 251.06 584.826 251.174 583.743 250.952C582.66 250.73 581.665 250.182 580.885 249.377C580.104 248.573 579.573 247.547 579.357 246.432C579.142 245.316 579.252 244.159 579.675 243.108C580.097 242.056 580.813 241.158 581.731 240.526C582.649 239.894 583.728 239.556 584.832 239.556C586.312 239.556 587.732 240.162 588.779 241.241C589.825 242.32 590.413 243.783 590.413 245.309V245.309Z" fill="#EFEFEF"/>
<path d="M726.679 77.7796C726.679 78.9174 726.352 80.0297 725.738 80.9758C725.125 81.9219 724.253 82.6593 723.233 83.0947C722.213 83.5301 721.091 83.6441 720.008 83.4221C718.926 83.2001 717.931 82.6522 717.15 81.8476C716.37 81.043 715.838 80.0179 715.623 78.902C715.408 77.786 715.518 76.6293 715.94 75.578C716.363 74.5268 717.078 73.6283 717.996 72.9962C718.914 72.364 719.993 72.0266 721.097 72.0266C722.578 72.0266 723.997 72.6327 725.044 73.7116C726.091 74.7905 726.679 76.2538 726.679 77.7796V77.7796Z" fill="#EFEFEF"/>
<path d="M1357.71 146.745C1357.71 147.883 1357.39 148.995 1356.77 149.941C1356.16 150.887 1355.29 151.625 1354.27 152.06C1353.25 152.496 1352.13 152.61 1351.04 152.388C1349.96 152.166 1348.97 151.618 1348.19 150.813C1347.4 150.009 1346.87 148.984 1346.66 147.868C1346.44 146.752 1346.55 145.595 1346.98 144.544C1347.4 143.492 1348.11 142.594 1349.03 141.962C1349.95 141.33 1351.03 140.992 1352.13 140.992C1352.87 140.992 1353.59 141.141 1354.27 141.43C1354.95 141.719 1355.56 142.143 1356.08 142.677C1356.6 143.211 1357.01 143.846 1357.29 144.544C1357.57 145.242 1357.71 145.99 1357.71 146.745V146.745Z" fill="#EFEFEF"/>
<path d="M1292.57 81.2142C1292.57 82.352 1292.24 83.4643 1291.63 84.4104C1291.02 85.3565 1290.15 86.0938 1289.13 86.5293C1288.11 86.9647 1286.98 87.0786 1285.9 86.8566C1284.82 86.6347 1283.82 86.0867 1283.04 85.2822C1282.26 84.4776 1281.73 83.4525 1281.52 82.3365C1281.3 81.2206 1281.41 80.0638 1281.83 79.0126C1282.26 77.9614 1282.97 77.0629 1283.89 76.4307C1284.81 75.7986 1285.89 75.4612 1286.99 75.4612C1288.47 75.4612 1289.89 76.0673 1290.94 77.1462C1291.98 78.2251 1292.57 79.6884 1292.57 81.2142V81.2142Z" fill="#EFEFEF"/>
<path d="M1639.65 745.778C1639.65 746.916 1639.33 748.028 1638.71 748.974C1638.1 749.92 1637.23 750.658 1636.21 751.093C1635.19 751.528 1634.06 751.642 1632.98 751.42C1631.9 751.198 1630.9 750.65 1630.12 749.846C1629.34 749.041 1628.81 748.016 1628.6 746.9C1628.38 745.784 1628.49 744.628 1628.91 743.576C1629.34 742.525 1630.05 741.627 1630.97 740.994C1631.89 740.362 1632.97 740.025 1634.07 740.025C1635.55 740.025 1636.97 740.631 1638.02 741.71C1639.06 742.789 1639.65 744.252 1639.65 745.778V745.778Z" fill="#EFEFEF"/>
<path d="M1693.29 90.2606C1693.29 91.3984 1692.96 92.5107 1692.35 93.4568C1691.74 94.4028 1690.86 95.1402 1689.84 95.5756C1688.82 96.0111 1687.7 96.125 1686.62 95.903C1685.54 95.681 1684.54 95.1331 1683.76 94.3286C1682.98 93.524 1682.45 92.4989 1682.23 91.3829C1682.02 90.2669 1682.13 89.1102 1682.55 88.059C1682.97 87.0078 1683.69 86.1093 1684.61 85.4771C1685.52 84.845 1686.6 84.5076 1687.71 84.5076C1689.19 84.5076 1690.61 85.1137 1691.65 86.1926C1692.7 87.2715 1693.29 88.7348 1693.29 90.2606V90.2606Z" fill="#EFEFEF"/>
<path d="M1618.83 51.276C1621.92 51.276 1624.42 48.7003 1624.42 45.523C1624.42 42.3457 1621.92 39.77 1618.83 39.77C1615.75 39.77 1613.25 42.3457 1613.25 45.523C1613.25 48.7003 1615.75 51.276 1618.83 51.276Z" fill="#EFEFEF"/>
<path d="M683.382 164.838C683.385 165.98 683.059 167.097 682.445 168.047C681.831 168.998 680.957 169.739 679.934 170.177C678.911 170.616 677.785 170.731 676.699 170.509C675.612 170.287 674.614 169.737 673.83 168.93C673.047 168.122 672.514 167.094 672.298 165.974C672.083 164.853 672.195 163.693 672.62 162.638C673.045 161.584 673.764 160.683 674.687 160.051C675.609 159.418 676.693 159.082 677.801 159.085C679.28 159.088 680.697 159.696 681.743 160.774C682.789 161.852 683.379 163.313 683.382 164.838V164.838Z" fill="#EFEFEF"/>
<path d="M711.771 446.509C711.771 447.647 711.444 448.759 710.83 449.705C710.217 450.651 709.345 451.389 708.325 451.824C707.305 452.259 706.183 452.373 705.1 452.151C704.017 451.929 703.023 451.381 702.242 450.577C701.462 449.772 700.93 448.747 700.715 447.631C700.499 446.515 700.61 445.359 701.032 444.307C701.455 443.256 702.17 442.358 703.088 441.725C704.006 441.093 705.085 440.756 706.189 440.756C707.668 440.76 709.086 441.367 710.132 442.445C711.178 443.523 711.767 444.984 711.771 446.509Z" fill="#EFEFEF"/>
<path d="M582.993 643.284C583.014 644.427 582.705 645.552 582.105 646.515C581.505 647.477 580.64 648.234 579.622 648.689C578.603 649.143 577.476 649.276 576.384 649.068C575.293 648.861 574.285 648.324 573.491 647.525C572.696 646.726 572.15 645.701 571.922 644.581C571.694 643.461 571.794 642.297 572.21 641.236C572.626 640.175 573.339 639.266 574.257 638.624C575.176 637.981 576.26 637.635 577.37 637.629C578.84 637.622 580.253 638.211 581.306 639.269C582.358 640.327 582.964 641.769 582.993 643.284Z" fill="#EFEFEF"/>
<path d="M881.993 220.318C881.993 221.456 881.666 222.568 881.053 223.514C880.439 224.46 879.568 225.198 878.548 225.633C877.528 226.069 876.406 226.183 875.323 225.961C874.24 225.739 873.246 225.191 872.465 224.386C871.684 223.582 871.153 222.557 870.937 221.441C870.722 220.325 870.832 219.168 871.255 218.117C871.677 217.065 872.393 216.167 873.311 215.535C874.229 214.903 875.308 214.565 876.412 214.565C877.145 214.565 877.871 214.714 878.548 215.003C879.225 215.292 879.84 215.716 880.359 216.25C880.877 216.784 881.288 217.419 881.569 218.117C881.849 218.815 881.993 219.563 881.993 220.318V220.318Z" fill="#EFEFEF"/>
<path d="M696.837 824.991C696.837 826.129 696.51 827.241 695.897 828.187C695.283 829.134 694.411 829.871 693.392 830.306C692.372 830.742 691.249 830.856 690.167 830.634C689.084 830.412 688.089 829.864 687.309 829.059C686.528 828.255 685.996 827.23 685.781 826.114C685.566 824.998 685.676 823.841 686.099 822.79C686.521 821.739 687.237 820.84 688.155 820.208C689.072 819.576 690.152 819.238 691.256 819.238C692.736 819.238 694.156 819.844 695.202 820.923C696.249 822.002 696.837 823.466 696.837 824.991V824.991Z" fill="#EFEFEF"/>
<path d="M1520.3 677.108C1520.3 678.246 1519.97 679.357 1519.35 680.301C1518.74 681.245 1517.86 681.98 1516.84 682.413C1515.82 682.847 1514.7 682.959 1513.62 682.735C1512.54 682.511 1511.54 681.962 1510.76 681.157C1509.99 680.352 1509.46 679.327 1509.24 678.211C1509.03 677.096 1509.14 675.94 1509.56 674.889C1509.98 673.839 1510.7 672.941 1511.62 672.31C1512.53 671.678 1513.61 671.341 1514.72 671.341C1515.45 671.341 1516.18 671.491 1516.86 671.781C1517.53 672.071 1518.15 672.496 1518.67 673.031C1519.19 673.567 1519.6 674.203 1519.88 674.903C1520.16 675.602 1520.3 676.352 1520.3 677.108V677.108Z" fill="#EFEFEF"/>
<path d="M1779.1 778.359C1779.1 779.497 1778.77 780.609 1778.16 781.555C1777.54 782.501 1776.67 783.239 1775.65 783.674C1774.63 784.109 1773.51 784.223 1772.43 784.001C1771.35 783.779 1770.35 783.232 1769.57 782.427C1768.79 781.622 1768.26 780.597 1768.04 779.481C1767.83 778.365 1767.94 777.209 1768.36 776.157C1768.78 775.106 1769.5 774.208 1770.42 773.576C1771.33 772.943 1772.41 772.606 1773.52 772.606C1774.25 772.606 1774.98 772.755 1775.65 773.044C1776.33 773.333 1776.95 773.757 1777.46 774.291C1777.98 774.825 1778.39 775.459 1778.67 776.157C1778.95 776.855 1779.1 777.603 1779.1 778.359V778.359Z" fill="#EFEFEF"/>
<path d="M1289.76 931.471C1289.76 932.608 1289.43 933.719 1288.81 934.663C1288.2 935.607 1287.33 936.342 1286.31 936.776C1285.29 937.209 1284.16 937.321 1283.08 937.097C1282 936.874 1281.01 936.325 1280.23 935.519C1279.45 934.714 1278.92 933.689 1278.7 932.574C1278.49 931.458 1278.6 930.302 1279.02 929.252C1279.45 928.201 1280.16 927.303 1281.08 926.672C1282 926.04 1283.08 925.703 1284.18 925.703C1284.91 925.703 1285.64 925.853 1286.32 926.143C1287 926.433 1287.61 926.858 1288.13 927.393C1288.65 927.929 1289.06 928.565 1289.34 929.265C1289.62 929.964 1289.76 930.714 1289.76 931.471V931.471Z" fill="#EFEFEF"/>
<path d="M983.656 718.553C983.656 713.623 982.238 708.803 979.58 704.704C976.923 700.605 973.145 697.409 968.726 695.523C964.307 693.636 959.444 693.142 954.752 694.104C950.061 695.066 945.751 697.44 942.369 700.926C938.987 704.413 936.683 708.854 935.75 713.69C934.817 718.525 935.296 723.537 937.126 728.092C938.957 732.647 942.057 736.54 946.034 739.28C950.011 742.019 954.687 743.481 959.471 743.481C965.885 743.481 972.037 740.854 976.572 736.179C981.108 731.505 983.656 725.164 983.656 718.553V718.553Z" fill="#CC8781"/>
<path d="M935.289 718.553C935.285 722.71 936.293 726.802 938.22 730.455C942.835 732.19 947.853 732.437 952.607 731.162C957.361 729.887 961.626 727.15 964.835 723.317C968.043 719.483 970.044 714.733 970.57 709.7C971.097 704.666 970.124 699.586 967.782 695.135C964.127 693.762 960.204 693.316 956.346 693.837C952.489 694.358 948.81 695.83 945.622 698.127C942.433 700.425 939.83 703.481 938.031 707.037C936.232 710.593 935.292 714.543 935.289 718.553V718.553Z" fill="#E0A09A"/>
<path d="M972.803 697.75C977.772 701.684 981.066 707.451 981.991 713.838C982.916 720.225 981.4 726.733 977.762 731.991C974.125 737.249 968.649 740.846 962.49 742.026C956.33 743.206 949.966 741.876 944.738 738.317C947.314 740.356 950.263 741.84 953.408 742.68C956.552 743.519 959.829 743.697 963.042 743.203C966.255 742.708 969.338 741.552 972.108 739.803C974.878 738.053 977.278 735.747 979.164 733.021C981.05 730.294 982.383 727.205 983.085 723.935C983.787 720.666 983.843 717.285 983.25 713.993C982.656 710.701 981.425 707.566 979.63 704.776C977.836 701.985 975.514 699.595 972.803 697.75V697.75Z" fill="#BC5960"/>
<path d="M947.912 707.582C946.746 710.169 944.783 711.763 943.521 711.178C942.258 710.593 942.177 707.984 943.338 705.397C944.499 702.809 946.467 701.215 947.73 701.801C948.993 702.386 949.074 705 947.912 707.582Z" fill="#E6BEB7"/>
<path d="M949.094 716.855C948.344 718.517 947.066 719.552 946.269 719.165C945.473 718.778 945.407 717.111 946.153 715.448C946.898 713.786 948.181 712.746 948.977 713.138C949.774 713.53 949.84 715.187 949.094 716.855Z" fill="#E6BEB7"/>
<path d="M679.898 64.4552C679.9 54.9634 677.171 45.6844 672.055 37.7915C666.94 29.8986 659.669 23.7464 651.161 20.1129C642.654 16.4794 633.292 15.5279 624.259 17.3786C615.227 19.2294 606.93 23.7992 600.417 30.5103C593.905 37.2214 589.47 45.7723 587.673 55.0815C585.875 64.3908 586.797 74.0403 590.321 82.8096C593.845 91.579 599.812 99.0744 607.469 104.348C615.126 109.621 624.129 112.436 633.338 112.436C645.685 112.436 657.527 107.381 666.258 98.3834C674.99 89.3854 679.896 77.1813 679.898 64.4552V64.4552Z" fill="#CC8781"/>
<path d="M586.792 64.4527C586.79 72.4576 588.737 80.3351 592.454 87.3635C601.335 90.6869 610.986 91.1483 620.127 88.6864C629.267 86.2246 637.466 80.9558 643.633 73.5795C649.801 66.2031 653.646 57.068 654.659 47.3865C655.672 37.705 653.804 27.935 649.304 19.3731C642.268 16.7306 634.718 15.875 627.293 16.8788C619.869 17.8825 612.788 20.7159 606.651 25.139C600.515 29.5621 595.503 35.4446 592.04 42.2881C588.577 49.1316 586.766 56.7345 586.76 64.4527H586.792Z" fill="#E0A09A"/>
<path d="M659.011 24.4116C668.564 31.9891 674.894 43.0899 676.668 55.379C678.442 67.6681 675.523 80.1874 668.525 90.3036C661.526 100.42 650.994 107.344 639.144 109.62C627.293 111.896 615.048 109.346 604.984 102.507C609.943 106.44 615.621 109.303 621.677 110.924C627.734 112.545 634.045 112.892 640.234 111.942C646.424 110.993 652.364 108.768 657.7 105.399C663.036 102.03 667.658 97.5878 671.291 92.3366C674.924 87.0854 677.493 81.1333 678.843 74.8359C680.194 68.5386 680.3 62.0252 679.154 55.6849C678.007 49.3446 675.633 43.3075 672.172 37.9342C668.711 32.561 664.235 27.9618 659.011 24.4116Z" fill="#BC5960"/>
<path d="M611.084 43.337C608.843 48.3394 605.057 51.4159 602.631 50.257C600.204 49.0981 600.042 44.1124 602.283 39.1351C604.523 34.1577 608.309 31.0479 610.736 32.2151C613.163 33.3824 613.324 38.3514 611.084 43.337Z" fill="#E6BEB7"/>
<path d="M613.365 61.1875C611.926 64.3891 609.491 66.3817 607.93 65.6313C606.368 64.881 606.263 61.6878 607.703 58.4779C609.143 55.2681 611.578 53.2838 613.139 54.0258C614.7 54.7679 614.805 57.9777 613.365 61.1875Z" fill="#E6BEB7"/>
<path d="M1401.55 221.288C1401.55 216.252 1400.11 211.328 1397.39 207.14C1394.68 202.953 1390.82 199.689 1386.3 197.762C1381.79 195.835 1376.82 195.331 1372.03 196.314C1367.23 197.297 1362.83 199.723 1359.38 203.285C1355.92 206.847 1353.57 211.385 1352.62 216.325C1351.66 221.265 1352.15 226.386 1354.03 231.038C1355.9 235.691 1359.06 239.668 1363.13 242.465C1367.19 245.262 1371.97 246.754 1376.86 246.752C1380.1 246.752 1383.31 246.094 1386.31 244.814C1389.31 243.534 1392.03 241.658 1394.32 239.294C1396.62 236.929 1398.44 234.122 1399.68 231.032C1400.92 227.943 1401.56 224.632 1401.55 221.288V221.288Z" fill="#E7B582"/>
<path d="M1352.15 221.29C1352.15 225.541 1353.19 229.722 1355.17 233.449C1359.89 235.22 1365.01 235.47 1369.87 234.167C1374.72 232.864 1379.08 230.069 1382.36 226.154C1385.63 222.238 1387.68 217.388 1388.22 212.247C1388.76 207.105 1387.76 201.917 1385.37 197.37C1381.64 195.962 1377.63 195.502 1373.68 196.032C1369.74 196.561 1365.98 198.063 1362.72 200.411C1359.45 202.758 1356.79 205.882 1354.95 209.517C1353.11 213.152 1352.15 217.191 1352.15 221.29V221.29Z" fill="#F2CE86"/>
<path d="M1390.47 200.007C1395.52 204.033 1398.87 209.919 1399.8 216.431C1400.73 222.943 1399.18 229.575 1395.48 234.935C1391.77 240.295 1386.19 243.967 1379.91 245.18C1373.64 246.393 1367.15 245.054 1361.81 241.443C1364.44 243.53 1367.45 245.049 1370.66 245.909C1373.88 246.769 1377.23 246.953 1380.51 246.45C1383.79 245.946 1386.95 244.765 1389.78 242.978C1392.61 241.191 1395.06 238.834 1396.99 236.048C1398.92 233.262 1400.28 230.104 1401 226.763C1401.71 223.422 1401.77 219.966 1401.16 216.602C1400.55 213.237 1399.3 210.034 1397.46 207.183C1395.62 204.331 1393.25 201.891 1390.48 200.007H1390.47Z" fill="#DA9A7F"/>
<path d="M1365.04 210.044C1363.85 212.688 1361.84 214.334 1360.56 213.718C1359.27 213.101 1359.18 210.458 1360.37 207.814C1361.56 205.17 1363.57 203.524 1364.86 204.14C1366.14 204.756 1366.23 207.4 1365.04 210.044Z" fill="white"/>
<path d="M1366.25 219.512C1365.49 221.212 1364.2 222.273 1363.36 221.852C1362.53 221.431 1362.48 219.762 1363.24 218.054C1364.01 216.346 1365.3 215.301 1366.13 215.714C1366.95 216.127 1367.01 217.812 1366.25 219.512Z" fill="white"/>
<path d="M1750.32 974.111C1784.22 940.217 1784.22 885.264 1750.32 851.37C1716.43 817.476 1661.48 817.476 1627.58 851.37C1593.69 885.264 1593.69 940.217 1627.58 974.111C1661.48 1008 1716.43 1008 1750.32 974.111Z" fill="#A036A5"/>
<path opacity="0.2" d="M1756.74 858.524C1768.9 875.423 1774.55 896.14 1772.65 916.869C1768.36 964.611 1726.17 999.831 1678.43 995.534C1666.79 994.501 1655.47 991.119 1645.17 985.592C1634.87 980.066 1625.8 972.509 1618.5 963.377C1625.75 973.525 1635.12 981.984 1645.95 988.176C1656.78 994.367 1668.82 998.145 1681.25 999.25C1729.02 1003.54 1771.18 968.322 1775.46 920.585C1777.51 898.253 1770.79 876.002 1756.74 858.524V858.524Z" fill="#6B206E"/>
<path d="M1602.51 904.859C1601.58 915.071 1602.48 925.366 1605.16 935.265C1619.44 948.425 1638.19 955.647 1657.61 955.46C1677.03 955.274 1695.64 947.693 1709.67 934.261C1723.69 920.83 1732.07 902.558 1733.09 883.167C1734.11 863.776 1727.71 844.724 1715.18 829.891C1709.18 827.998 1702.99 826.758 1696.73 826.194C1648.99 821.901 1606.8 857.121 1602.51 904.859Z" fill="#BC4EC4"/>
<path d="M1773.25 892.023C1773.08 891.333 1772.91 890.653 1772.72 889.973C1761.55 885.947 1750.48 881.209 1740.77 874.34C1735.7 870.76 1730.87 866.313 1728.32 860.547C1726.31 856.01 1726.63 850.887 1732.27 850.112C1740.3 849.005 1749.19 853.622 1755.66 857.872L1756.82 858.637C1755.61 857.126 1754.36 855.655 1753.07 854.222C1747.38 850.985 1741.25 848.592 1734.59 848.273C1731.55 848.133 1727.8 848.775 1726.23 851.736C1724.14 855.696 1726.16 860.716 1728.26 864.22C1734.18 874.157 1745.91 880.28 1756.01 885.046C1761.63 887.692 1767.41 889.93 1773.25 892.023Z" fill="#912D98"/>
<path d="M1708.66 827.996C1700.36 830.905 1692.06 833.706 1683.4 835.554C1669.79 838.468 1655.99 839.523 1642.15 839.495C1641.29 840.049 1640.43 840.626 1639.58 841.208C1653.66 841.349 1667.69 840.438 1681.6 837.727C1691.98 835.704 1701.9 832.331 1711.82 828.784C1710.78 828.498 1709.72 828.24 1708.66 827.996Z" fill="#912D98"/>
<path d="M1770.73 938.081C1766.69 924.062 1761.14 910.269 1752.51 898.422C1743.45 885.985 1731.16 874.744 1716.95 868.555C1700.75 861.518 1683.86 855.968 1666.28 853.777C1652.25 852.031 1637.82 852.791 1623.83 855.001C1623.23 855.686 1622.64 856.379 1622.06 857.08C1623.54 856.836 1625.02 856.61 1626.5 856.395C1642.87 854.049 1659.38 853.988 1675.66 857.019C1684.57 858.679 1693.3 861.335 1701.83 864.431C1710.06 867.415 1718.38 870.573 1725.78 875.293C1739.62 884.113 1751.22 897.259 1758.71 911.808C1763.79 921.66 1767.45 932.305 1770.27 943.035C1770.64 942.097 1770.98 941.112 1771.31 940.136C1771.11 939.451 1770.92 938.761 1770.73 938.081Z" fill="#912D98"/>
<path d="M1629.63 869.578C1622.59 871.372 1615.79 874.052 1609.42 877.554C1609.03 878.417 1608.67 879.288 1608.32 880.167C1615.74 875.785 1623.82 872.617 1632.24 870.783C1652.7 866.167 1680.23 872.829 1687.2 895.016C1691.66 909.227 1686.53 924.47 1681.51 937.78C1679.01 944.414 1676.53 951.025 1674.98 957.954C1673.37 965.222 1673.34 972.662 1674.19 980.005C1674.88 986.043 1676.22 992.766 1678.7 998.898C1679.4 998.983 1680.11 999.053 1680.82 999.119C1676.8 988.96 1674.99 978.069 1675.48 967.159C1676.29 951.494 1684.52 937.546 1688.4 922.589C1691.51 910.62 1692.02 896.714 1684.93 885.994C1673.44 868.658 1648.57 864.619 1629.63 869.578Z" fill="#912D98"/>
<path d="M1638.1 966.812C1638.9 950.805 1651.99 940.028 1660 927.36C1663.24 922.232 1666.28 915.978 1665.73 909.734C1665.17 903.381 1661.25 898.366 1656.1 894.861C1648.69 889.809 1638.96 889.105 1630.43 891.108C1621.98 893.083 1615.16 898.169 1609.75 904.798C1606.88 908.368 1604.34 912.19 1602.16 916.218C1602.2 917.372 1602.27 918.521 1602.36 919.661C1602.83 918.779 1603.3 917.902 1603.77 917.034C1610.49 904.836 1619.65 894.514 1634.03 892.168C1648.18 889.888 1667.44 898.779 1663.4 915.72C1661.66 922.988 1656.75 929.373 1652.27 935.177C1647.65 941.163 1642.82 946.849 1639.63 953.784C1636.2 961.192 1635.43 969.555 1637.44 977.467C1638.05 979.852 1638.89 982.175 1639.93 984.406C1640.9 985.063 1641.88 985.704 1642.86 986.33C1639.67 980.306 1637.76 973.728 1638.1 966.812Z" fill="#912D98"/>
<path d="M1746.88 965.71C1746.68 957.941 1745.57 948.464 1740.14 942.421C1734.34 935.984 1725.21 939.653 1720.11 945.025C1712.78 952.728 1710.19 966.029 1710.9 976.351C1711.41 982.913 1713.29 989.293 1716.44 995.075C1716.99 994.892 1717.54 994.704 1718.08 994.512C1714.6 988.263 1712.64 981.141 1712.62 974.587C1712.62 962.998 1715.64 947.605 1727.11 942.041C1746.09 932.826 1745.95 968.619 1744.11 979.743C1744.88 979.109 1745.64 978.462 1746.38 977.805C1746.88 973.794 1747.04 969.749 1746.88 965.71V965.71Z" fill="#912D98"/>
<path d="M1726.2 915.814C1716.42 921.153 1710.15 931.381 1705.94 941.35C1701.32 952.383 1698.78 964.171 1698.43 976.125C1698.23 983.734 1699.04 991.336 1700.85 998.729L1702.61 998.466C1699.76 986.883 1699.58 974.891 1701.54 963.143C1703.8 949.612 1708.66 935.655 1717.69 925.117C1723.86 917.906 1734.58 911.286 1744.29 915.195C1755.79 919.825 1759.45 935.903 1760.87 946.755C1761.46 951.273 1761.68 955.831 1761.51 960.384C1762.18 959.376 1762.83 958.353 1763.45 957.316C1763.35 931.484 1751.47 902.002 1726.2 915.814Z" fill="#912D98"/>
<path opacity="0.9" d="M1653.77 873.435C1648.82 884.404 1640.8 891.488 1635.85 889.255C1630.91 887.022 1630.92 876.325 1635.85 865.356C1640.79 854.386 1648.83 847.302 1653.77 849.535C1658.71 851.769 1658.72 862.465 1653.77 873.435Z" fill="#F3BEE9"/>
<path opacity="0.9" d="M1661.51 895.71C1658.89 901.532 1654.63 905.29 1652.01 904.103C1649.39 902.917 1649.39 897.244 1652.01 891.436C1654.63 885.628 1658.89 881.86 1661.51 883.043C1664.14 884.225 1664.14 889.893 1661.51 895.71Z" fill="#F3BEE9"/>
<path d="M1774.79 926.755C1774.53 928.322 1774.21 929.87 1773.85 931.404C1797.03 941.782 1811.02 950.096 1809.83 953.567C1807.61 960.018 1753.86 947.346 1689.79 925.263C1625.72 903.179 1575.6 880.049 1577.8 873.598C1578.83 870.596 1591.03 871.722 1610.22 876.038C1610.99 874.335 1611.82 872.655 1612.69 871.013C1562.6 857.431 1527.55 852.176 1525.13 859.186C1521.53 869.629 1591.95 903.409 1682.42 934.585C1772.9 965.761 1849.17 982.566 1852.77 972.118C1855.22 965.015 1823.61 947.21 1774.79 926.755Z" fill="#FFD7D5"/>
<path d="M533.763 1004.77C542.096 897.695 491.87 742.421 329.432 726.65C250.383 718.974 185.333 716.886 126.926 760.485C65.5531 806.297 21.7006 909.752 17.4483 964.59C9.11592 1071.67 117.942 1167.47 260.518 1178.56C403.094 1189.66 525.431 1111.85 533.763 1004.77Z" fill="#AE4FA1"/>
<path d="M534.129 1004.45C542.461 897.377 492.236 742.104 329.798 726.332C250.732 718.667 185.677 716.574 127.276 760.168C111.919 771.627 97.6711 786.699 84.8442 803.713C69.1807 884.717 100.056 984.501 173.491 1064.03C228.459 1123.53 296.619 1160.16 361.809 1170.99C457.157 1148.92 527.847 1084.96 534.129 1004.45Z" fill="#BB56A4"/>
<path d="M329.432 726.704C256.384 719.61 195.258 717.295 140.307 751.411C143.714 819.77 175.122 894.46 232.635 956.727C316.508 1047.53 431.105 1085.09 518.993 1058.92C527.276 1041.98 532.294 1023.63 533.784 1004.83C542.09 897.749 491.869 742.475 329.432 726.704Z" fill="#CA5FA9"/>
<path d="M495.407 908.589C504.035 900.568 511.843 891.707 518.714 882.138C493.222 805.549 435.057 736.344 329.46 726.09C309.942 724.195 291.275 722.639 273.351 722.031C255.109 766.271 269.519 827.795 313.398 875.302C368.839 935.324 450.327 950.229 495.407 908.589Z" fill="#D565AF"/>
<path d="M309.349 802.195C305.957 794.487 295.036 786.376 278.77 793.266C270.846 796.619 264.5 799.666 260.582 805.5C256.459 811.631 256.276 820.83 258.02 824.776C261.405 832.484 275.648 833.673 289.82 827.435C303.993 821.196 312.734 809.898 309.349 802.195Z" fill="#7F3780"/>
<path d="M111.441 845.914C107.134 841.182 97.3434 837.969 87.294 846.829C82.4012 851.135 78.5634 854.86 77.1423 860C75.6567 865.383 77.7344 872.063 79.9306 874.485C84.2367 879.216 94.749 876.638 103.447 868.763C112.146 860.888 115.725 850.645 111.441 845.914Z" fill="#7F3780"/>
<path d="M462.759 865.227C470.295 861.459 477.868 850.155 470.193 834.25C466.457 826.504 463.104 820.309 457.086 816.681C450.756 812.864 441.562 813.134 437.708 815.066C430.173 818.834 429.688 833.109 436.605 846.963C443.522 860.818 455.234 868.989 462.759 865.227Z" fill="#7F3780"/>
<path d="M465.485 842.78C461.75 835.035 458.396 828.839 452.379 825.211C446.054 821.395 436.86 821.664 433.001 823.597C432.663 823.765 432.338 823.958 432.027 824.173C431.01 830.406 432.506 838.754 436.602 846.952C443.519 860.807 455.231 868.989 462.762 865.226C464.7 864.235 466.448 862.908 467.924 861.308C469.302 856.242 468.963 850.004 465.485 842.78Z" fill="#AC4D9E"/>
<path d="M206.988 898.986C198.074 895.294 182.383 897.748 173.793 917.723C169.61 927.445 166.537 935.551 167.721 943.953C168.964 952.781 175.973 960.844 180.543 962.733C189.456 966.436 202.611 955.154 209.894 937.553C217.177 919.952 215.896 902.695 206.988 898.986Z" fill="#7F3780"/>
<path d="M282.076 1106.68C297.562 1118.04 340.639 1131.12 366.697 1096.57C379.378 1079.75 389.745 1070.81 396.436 1042.77C400.554 1025.5 381.224 1000.01 363.365 995.944C344.638 991.676 317.139 1000.17 294.693 1030.74C272.247 1061.32 266.612 1095.32 282.076 1106.68Z" fill="#7F3780"/>
<path d="M82.3475 965.597C52.2908 969.903 43.6408 992.946 49.8901 1023.82C52.9205 1038.84 53.4588 1052.2 64.504 1069.62C71.2969 1080.34 96.5308 1065.68 105.886 1058.25C115.698 1050.46 120.258 1036.84 114.498 1009.85C108.739 982.853 94.4585 963.864 82.3475 965.597Z" fill="#7F3780"/>
<path d="M454.648 1075.7C444.093 1066.92 410.387 1087.06 401.931 1098.52C397.813 1104.09 393.501 1108.32 391.009 1117.3C389.47 1122.82 394.416 1135.17 405.37 1135.99C411.022 1136.41 419.903 1139.62 437.429 1123.17C446.526 1114.62 458.906 1079.24 454.648 1075.7Z" fill="#7F3780"/>
<path d="M444.131 1079.44C438.5 1074.67 424.215 1080.89 412.034 1089.05C407.62 1092.36 404.008 1095.7 401.931 1098.52C397.813 1104.09 393.501 1108.32 391.009 1117.3C389.47 1122.83 394.416 1135.17 405.37 1135.99C407.227 1136.13 409.439 1136.57 412.185 1136.53C415.888 1134.38 420.259 1131.06 425.491 1125.9C434.345 1117.16 447.818 1082.57 444.131 1079.44Z" fill="#A74C9A"/>
<path d="M93.0205 968.896C64.5517 973.913 56.4185 996.6 62.517 1026.79C65.5582 1041.82 66.1073 1055.17 77.1309 1072.58C77.1902 1072.67 77.2601 1072.74 77.3193 1072.84C87.3311 1070.73 99.878 1063 105.885 1058.22C115.698 1050.43 120.257 1036.82 114.497 1009.83C110.353 990.556 101.902 975.377 93.0205 968.896Z" fill="#A74C9A"/>
<path d="M365.739 1011.34C348.815 1007.48 323.958 1015.16 303.671 1042.79C283.384 1070.42 278.281 1101.16 292.271 1111.42C292.685 1111.73 293.121 1112.04 293.579 1112.34C313.091 1121.2 346.754 1125.6 368.532 1096.73C379.873 1081.69 389.358 1072.94 396.021 1051.21C397.528 1035.71 381.041 1014.83 365.739 1011.34Z" fill="#AC4D9E"/>
<path d="M452.458 887.5C431.509 891.704 435.685 921.12 435.632 954.648C435.583 985.222 469.128 991.417 482.665 983.919C483.064 983.699 483.478 983.456 483.892 983.198C498.35 970.7 502.07 940.137 494.001 920.415C487.65 904.859 466.184 884.744 452.458 887.5Z" fill="#7F3780"/>
<path d="M489.179 930.432C482.823 914.881 461.362 894.766 447.631 897.517C443.667 898.211 440.073 900.274 437.474 903.346C434.19 915.942 435.665 934.512 435.633 954.562C435.584 985.136 469.129 991.331 482.672 983.833C483.07 983.612 483.479 983.37 483.899 983.112C486.155 981.123 488.116 978.823 489.723 976.281C494.691 961.963 494.621 943.754 489.179 930.432Z" fill="#AC4D9E"/>
<path d="M208.478 906.807C199.57 903.109 183.874 905.564 175.289 925.539C171.57 934.189 168.728 941.558 168.981 948.996C171.763 953.991 175.779 957.862 178.761 959.1C187.674 962.797 200.83 951.521 208.118 933.92C211.6 925.523 213.118 917.233 212.795 910.397C211.732 908.81 210.233 907.563 208.478 906.807Z" fill="#AC4D9E"/>
<path d="M472.3 1008.37C467.404 1010.71 463.485 1014.7 461.223 1019.63C458.961 1024.56 458.5 1030.13 459.92 1035.37C461.427 1041.37 462.923 1046.3 466.379 1049.54C470.324 1050.26 474.544 1049.79 476.95 1048.69C484.147 1045.41 487.35 1032.97 484.109 1020.9C482.564 1015.14 479.803 1010.52 476.611 1007.6C475.132 1007.49 473.647 1007.75 472.3 1008.37Z" fill="#7F3780"/>
<path d="M480.63 1026.55C479.086 1020.8 476.324 1016.17 473.132 1013.25C471.664 1013.14 470.191 1013.41 468.853 1014.02C465.781 1015.48 463.073 1017.6 460.924 1020.23C458.894 1025.02 458.528 1030.35 459.886 1035.37C461.398 1041.37 462.895 1046.3 466.345 1049.54C470.285 1050.26 474.51 1049.79 476.916 1048.69C478.115 1048.12 479.196 1047.34 480.103 1046.37C482.197 1040.94 482.552 1033.68 480.63 1026.55Z" fill="#AC4D9E"/>
<path d="M287.309 799.445C279.385 802.798 273.034 805.845 269.121 811.68C265.041 817.746 264.814 826.799 266.505 830.815C272.705 832.257 281.275 831.197 289.822 827.44C303.995 821.207 312.736 809.903 309.351 802.201C308.713 800.781 307.896 799.45 306.918 798.239C301.793 796.296 295.178 796.108 287.309 799.445Z" fill="#AC4D9E"/>
<path d="M61.4795 912.131C55.5101 910.317 45.7029 912.454 41.7898 924.694C39.8843 930.653 38.5602 935.605 39.9704 940.546C41.4506 945.746 46.5534 950.235 49.6108 951.166C55.5801 952.98 63.0674 945.713 66.3508 934.932C69.6342 924.15 67.4543 913.945 61.4795 912.131Z" fill="#7F3780"/>
<path d="M222.581 962.357C217.004 960.715 207.875 962.787 204.328 974.231C202.595 979.802 201.4 984.426 202.756 989.028C204.183 993.872 208.973 998.001 211.831 998.846C217.413 1000.46 224.335 993.651 227.307 983.575C230.278 973.499 228.157 963.998 222.581 962.357Z" fill="#AC4D9E"/>
<path d="M88.0951 894.503C84.8655 893.426 79.4451 894.503 77.1844 901.193C76.1079 904.423 75.3113 907.114 76.0325 909.865C76.7969 912.728 79.5474 915.248 81.216 915.786C84.4456 916.835 88.6441 912.928 90.5442 907.05C92.4442 901.172 91.3462 895.552 88.0951 894.503Z" fill="#7F3780"/>
<path d="M129.193 861.308C127.121 859.569 122.847 858.762 119.214 862.982C117.443 865.032 116.07 866.782 115.796 868.994C115.505 871.314 116.781 873.968 117.841 874.861C119.914 876.6 124.134 874.969 127.266 871.228C130.399 867.487 131.266 863.014 129.193 861.308Z" fill="#A74C9A"/>
<path d="M361.534 790.795C361.62 785.66 357.713 778.372 347.13 778.044C341.979 777.882 337.754 777.952 334.164 780.197C330.396 782.549 327.979 787.603 327.93 790.235C327.844 795.376 335.299 799.666 344.579 799.822C353.859 799.978 361.448 795.93 361.534 790.795Z" fill="#AC4D9E"/>
<path d="M482.457 884.216C485.148 882.914 487.963 878.963 485.363 873.333C484.104 870.587 482.957 868.397 480.847 867.094C478.624 865.732 475.346 865.797 473.957 866.459C471.239 867.762 470.943 872.789 473.29 877.693C475.637 882.596 479.728 885.53 482.457 884.216Z" fill="#A74C9A"/>
<path d="M66.3754 934.932C68.4801 928.021 68.324 921.357 66.3754 916.976C60.3845 915.296 50.798 917.514 46.9441 929.603C45.0386 935.562 43.7145 940.514 45.1247 945.455C45.6198 947.131 46.3991 948.71 47.4285 950.122C48.1069 950.575 48.8416 950.937 49.6138 951.199C55.5778 952.98 63.0759 945.714 66.3754 934.932Z" fill="#A74C9A"/>
<path d="M248.633 763.252C238.858 746.851 194.403 768.134 169.895 783.679C143.547 800.365 124.234 827.714 129.246 836.122C139.02 852.523 186.447 858.901 208.29 845.881C230.133 832.86 258.413 779.658 248.633 763.252Z" fill="#7F3780"/>
<path d="M364.457 753.612C365.34 743.282 336.812 738.4 319.781 737.378C301.48 736.301 282.942 742.093 282.49 747.389C281.602 757.713 304.258 769.97 319.146 771.245C334.034 772.521 363.575 763.941 364.457 753.612Z" fill="#7F3780"/>
<path d="M321.723 744.542C304.257 743.498 286.591 748.74 284.615 753.821C290.509 762.245 307.276 770.228 319.14 771.245C333.134 772.44 360.048 764.937 363.977 755.458C356.829 748.729 335.508 745.371 321.723 744.542Z" fill="#AC4D9E"/>
<path d="M248.538 782.043C235.485 760.146 190.26 780.143 165.893 795.914C148.787 806.986 135.615 824.141 130.367 837.839C142.322 852.949 187.149 858.433 208.211 845.876C224.171 836.359 243.575 805.382 249.039 782.99C248.893 782.667 248.721 782.35 248.538 782.043Z" fill="#AC4D9E"/>
<path d="M1968.69 167.019C1968.69 74.8004 1896.02 0.0378418 1806.38 0.0378418C1716.74 0.0378418 1644.06 74.8004 1644.06 167.019C1644.06 259.237 1716.73 334 1806.38 334C1896.03 334 1968.69 259.242 1968.69 167.019Z" fill="#332074"/>
<path opacity="0.6" d="M1927.95 60.8413C1927.95 59.1838 1927.91 57.5359 1927.87 55.888C1912.58 38.0924 1893.84 23.8613 1872.87 14.1322C1851.9 4.40321 1829.18 -0.602899 1806.22 -0.556319C1716.57 -0.556319 1643.9 74.2014 1643.9 166.425C1643.9 171.943 1644.17 177.399 1644.68 182.784C1674.77 210.716 1715.19 227.813 1759.64 227.813C1852.59 227.818 1927.95 153.06 1927.95 60.8413Z" fill="#5F3BCD"/>
<path d="M1715.27 322.134C1714.12 322.134 1679.16 301.871 1675 291.304C1672.62 285.249 1675.43 268.506 1676.51 267.175C1680.58 262.121 1697.27 270.423 1711.52 282.772C1725.76 295.121 1734.28 310.838 1729.89 315.595C1727.13 318.589 1716.82 322.163 1715.27 322.134Z" fill="#462C8F"/>
<path opacity="0.5" d="M1704.7 277.296C1692.36 268.147 1679.94 262.925 1676.51 267.175C1675.43 268.506 1672.62 285.248 1675 291.303C1675.37 292.175 1675.83 292.998 1676.38 293.756C1677.33 293.852 1678.3 293.9 1679.27 293.9C1691.07 293.9 1701.08 286.954 1704.7 277.296Z" fill="#332074"/>
<path d="M1781.33 -6.55868C1781.42 -7.99578 1821.93 -15.6028 1837.95 -4.21621C1843.88 -0.000720901 1847.37 3.92733 1847.29 6.03986C1847 13.9678 1829.99 19.7402 1809.28 18.9402C1788.58 18.1402 1771.54 11.0266 1772.31 3.13213C1772.79 -1.83543 1781.3 -6.1036 1781.33 -6.55868Z" fill="#6B37D7"/>
<path opacity="0.5" d="M1817.5 -4.33114C1817.45 -6.33248 1817.07 -8.31003 1816.38 -10.1801C1799.57 -11.2292 1781.42 -7.50713 1781.36 -6.55385C1781.33 -6.07482 1772.82 -1.8306 1772.34 3.13696C1771.66 10.0781 1784.75 16.4062 1801.98 18.3894C1811.84 12.0661 1817.68 4.14774 1817.5 -4.33114Z" fill="#332074"/>
<path d="M1875.11 80.836C1892.7 96.0069 1900.65 116.184 1892.86 125.908C1885.08 135.632 1864.51 131.216 1846.93 116.045C1829.35 100.874 1821.4 80.6923 1829.18 70.9679C1836.97 61.2436 1857.53 65.6842 1875.11 80.836Z" fill="#6B37D7"/>
<path opacity="0.5" d="M1873.22 117.573C1881.01 107.844 1873.06 87.6671 1855.47 72.4962C1852.89 70.2693 1850.18 68.221 1847.34 66.3645C1839.52 64.9274 1832.9 66.3645 1829.18 70.9824C1821.4 80.7068 1829.35 100.884 1846.93 116.055C1849.51 118.285 1852.23 120.335 1855.07 122.191C1862.87 123.623 1869.51 122.21 1873.22 117.573Z" fill="#332074"/>
<path d="M1810.26 -10.8986C1826.18 -10.2807 1838.98 -7.00408 1838.87 -3.579C1838.76 -0.153916 1825.75 2.12627 1809.84 1.50832C1793.92 0.890371 1781.12 -2.38623 1781.23 -5.8161C1781.34 -9.24597 1794.36 -11.5166 1810.26 -10.8986Z" fill="#8132E7"/>
<path d="M1826.28 24.4875C1826.82 22.26 1829.81 21.1343 1832.95 21.9295C1836.08 22.7247 1838.2 25.2204 1837.66 27.4527C1837.12 29.685 1834.13 30.8299 1830.99 30.0108C1827.85 29.1916 1825.74 26.7054 1826.28 24.4875Z" fill="#6D2FC3"/>
<path d="M1639.64 158.693C1639.18 157.601 1641.02 108.122 1648.59 99.8295C1652.93 95.0775 1665.52 93.2907 1667.14 93.7697C1673.23 95.5038 1672.87 114.737 1667.91 133.285C1662.96 151.833 1652.69 166.401 1646.69 164.221C1642.94 162.841 1640.25 160.168 1639.64 158.693Z" fill="#6B37D7"/>
<path opacity="0.5" d="M1667.23 93.6262C1665.61 93.1472 1653.01 94.9579 1648.68 99.7099C1647.42 101.099 1646.31 103.652 1645.35 106.938C1648.72 119.733 1655.23 128.404 1662.74 128.404C1665.29 128.347 1667.75 127.413 1669.73 125.75C1672.95 109.798 1672.53 95.1495 1667.23 93.6262Z" fill="#332074"/>
<path d="M1690.7 81.2429C1690.77 75.2646 1732.96 29.5841 1748.09 26.1542C1756.77 24.1806 1779.88 40.0462 1781.41 41.9144C1787.18 48.9993 1775.18 75.4467 1755.23 92.9649C1735.29 110.483 1704.73 118.54 1699.89 110.742C1693.75 100.855 1690.64 87.135 1690.7 81.2429Z" fill="#6B37D7"/>
<path opacity="0.5" d="M1748.09 26.1401C1739.01 28.2096 1720.19 45.4835 1706.57 60.2616C1716.72 66.1106 1732.2 69.8423 1749.56 69.8423C1758.57 69.8921 1767.56 68.8096 1776.32 66.6184C1782.32 55.6437 1784.58 45.814 1781.4 41.8955C1779.88 40.0225 1756.77 24.1665 1748.09 26.1401Z" fill="#332074"/>
<path d="M1930.31 296.108C1930.96 297.067 1906.67 324.098 1895.8 325.756C1889.56 326.714 1874.57 319.864 1873.59 318.455C1869.84 313.143 1881.61 298.288 1896.57 286.906C1911.53 275.524 1928.27 270.691 1931.67 276.248C1933.8 279.754 1930.11 295.792 1930.31 296.108Z" fill="#462C8F"/>
<path d="M1698.29 237.772C1697.48 237.053 1683.65 192.858 1687.67 183.363C1689.98 177.921 1701.03 171.833 1702.69 171.617C1708.99 170.798 1715.5 186.53 1717.54 203.382C1719.57 220.234 1715.26 235.812 1708.93 236.244C1704.97 236.521 1699.38 238.744 1698.29 237.772Z" fill="#6B37D7"/>
<path d="M1934.06 238.624C1917.8 269.038 1891.81 286.317 1876.02 277.21C1860.23 268.104 1860.6 236.076 1876.86 205.667C1893.12 175.258 1919.11 157.984 1934.9 167.09C1950.7 176.197 1950.32 208.22 1934.06 238.624Z" fill="#462C8F"/>
<path opacity="0.5" d="M1928.07 192.106C1926.36 181.826 1926.94 172.178 1929.25 165.012C1913.43 162.032 1891.33 178.659 1876.89 205.662C1875.37 208.508 1873.99 211.373 1872.74 214.228C1874.32 216.475 1876.35 218.345 1878.68 219.712C1892.01 227.377 1912.6 216.292 1928.47 194.357C1928.34 193.615 1928.19 192.863 1928.07 192.106Z" fill="#332074"/>
<path d="M1938.87 242.179C1928.08 262.361 1910.12 273.417 1898.77 266.873C1887.42 260.33 1886.96 238.668 1897.75 218.491C1908.54 198.314 1926.49 187.253 1937.84 193.797C1949.2 200.34 1949.65 222.002 1938.87 242.179Z" fill="#8132E7"/>
<path d="M1934.45 241.135C1926.19 256.579 1912.46 265.033 1903.77 260.028C1895.09 255.022 1894.74 238.471 1902.99 223.013C1911.25 207.554 1924.99 199.114 1933.67 204.12C1942.35 209.126 1942.69 225.7 1934.45 241.135Z" fill="#462C8F"/>
<path d="M1933.67 204.12C1928.05 200.881 1920.34 203.276 1913.34 209.542C1917.32 208.129 1921.12 208.167 1924.28 209.983C1932.96 214.984 1933.31 231.539 1925.06 246.998C1922.39 252.08 1918.88 256.64 1914.71 260.473C1921.7 257.982 1929.18 250.983 1934.45 241.139C1942.69 225.695 1942.35 209.125 1933.67 204.12Z" fill="#322173"/>
<path d="M1881.08 71.9834C1895.35 84.2946 1901.8 100.673 1895.49 108.562C1889.18 116.452 1872.48 112.874 1858.21 100.558C1843.94 88.2418 1837.49 71.8685 1843.81 63.9788C1850.13 56.0891 1866.81 59.6723 1881.08 71.9834Z" fill="#8132E7"/>
<path d="M1735.81 71.787C1719.53 86.7664 1700.11 91.6142 1692.44 82.6084C1684.77 73.6026 1691.72 54.173 1708.01 39.1937C1724.29 24.2144 1743.71 19.3713 1751.38 28.3723C1759.05 37.3734 1752.09 56.8125 1735.81 71.787Z" fill="#8132E7"/>
<path d="M1730.35 66.1778C1718.99 76.6302 1705.43 80.0122 1700.08 73.7321C1694.72 67.452 1699.58 53.8906 1710.94 43.4381C1722.3 32.9856 1735.85 29.6084 1741.21 35.8885C1746.57 42.1686 1741.71 55.7301 1730.35 66.1778Z" fill="#462C8F"/>
<path d="M1721.26 46.5948C1727.89 40.4919 1735.27 36.8177 1741.33 36.0561C1741.29 36.0082 1741.25 35.9507 1741.21 35.898C1735.85 29.6179 1722.29 32.9998 1710.94 43.4523C1699.58 53.9048 1694.72 67.4614 1700.08 73.7415C1702.3 76.3523 1705.99 77.272 1710.28 76.7259C1705.12 70.3835 1709.99 56.961 1721.26 46.5948Z" fill="#322173"/>
<path d="M1701.98 294.394C1713.79 304.29 1720.49 316.247 1716.95 321.1C1713.4 325.952 1700.95 321.852 1689.14 311.95C1677.32 302.048 1670.63 290.097 1674.18 285.249C1677.73 280.401 1690.17 284.497 1701.98 294.394Z" fill="#8132E7"/>
<path d="M1699.8 299.615C1708.34 306.771 1713.36 315.164 1711.02 318.369C1708.67 321.574 1699.85 318.369 1691.32 311.212C1682.78 304.055 1677.76 295.668 1680.11 292.463C1682.45 289.258 1691.27 292.463 1699.8 299.615Z" fill="#322173"/>
<path d="M1699.81 299.571C1693.93 294.652 1687.94 291.605 1684 291.222C1683.47 295.054 1688.25 302.292 1695.74 308.577C1701.61 313.492 1707.61 316.544 1711.55 316.932C1712.08 313.085 1707.3 305.852 1699.81 299.571Z" fill="#462C8F"/>
<path d="M1804.14 102.977C1802.02 115.911 1794.91 125.491 1788.27 124.323C1781.62 123.154 1777.97 111.7 1780.06 98.7374C1782.16 85.7748 1789.29 76.2229 1795.93 77.3917C1802.58 78.5606 1806.25 90.019 1804.14 102.977Z" fill="#8132E7"/>
<path d="M1799.9 102.321C1798.43 111.269 1793.53 117.87 1788.94 117.06C1784.35 116.251 1781.81 108.342 1783.27 99.3937C1784.73 90.4454 1789.64 83.8443 1794.23 84.6538C1798.82 85.4634 1801.36 93.3722 1799.9 102.321Z" fill="#462C8F"/>
<path d="M1788.12 105.113C1789.58 96.1602 1794.48 89.5591 1799.08 90.3687L1799.28 90.4262C1798.25 87.3029 1796.51 85.1568 1794.21 84.7784C1789.62 83.9688 1784.71 90.5699 1783.25 99.5182C1781.81 108.328 1784.25 116.117 1788.71 117.127C1787.66 113.913 1787.38 109.65 1788.12 105.113Z" fill="#322173"/>
<path d="M1915.85 50.1492C1921.18 53.9815 1923.91 59.4999 1921.94 62.446C1919.97 65.392 1914.05 64.6783 1908.71 60.8364C1903.37 56.9946 1900.64 51.4857 1902.62 48.5349C1904.59 45.584 1910.51 46.3074 1915.85 50.1492Z" fill="#462C8F"/>
<path d="M1905.01 53.7035C1906.98 50.7478 1912.9 51.4712 1918.24 55.313C1919.86 56.465 1921.31 57.8561 1922.54 59.4423C1922.08 56.5681 1919.63 53.052 1915.89 50.3407C1910.55 46.5084 1904.63 45.7755 1902.66 48.7311C1901.32 50.7191 1902.14 53.8759 1904.45 56.8747C1904.23 55.7825 1904.43 54.6439 1905.01 53.7035Z" fill="#322173"/>
<path d="M1879.9 74.6852C1891.06 84.3138 1896.1 97.1183 1891.16 103.283C1886.23 109.449 1873.17 106.637 1862.02 97.0273C1850.87 87.4179 1845.83 74.599 1850.76 68.4291C1855.7 62.2591 1868.74 65.0663 1879.9 74.6852Z" fill="#322173"/>
<path d="M1853.06 80.9273C1852.34 81.8327 1851.82 82.8882 1851.53 84.0219C1853.77 88.4338 1857.36 93.0037 1862.02 97.0276C1873.17 106.651 1886.22 109.454 1891.16 103.284C1891.87 102.376 1892.39 101.321 1892.69 100.189C1890.44 95.7773 1886.85 91.2026 1882.19 87.1835C1871.04 77.5597 1857.99 74.7574 1853.06 80.9273Z" fill="#462C8F"/>
<path d="M1858.8 288.879C1858.8 302.896 1843.87 314.268 1825.45 314.268C1807.03 314.268 1792.1 302.905 1792.1 288.879C1792.1 274.853 1807.03 263.491 1825.45 263.491C1843.87 263.491 1858.8 274.868 1858.8 288.879Z" fill="#8132E7"/>
<path d="M1930.78 295.854C1932.88 298.618 1926.4 307.485 1916.34 315.648C1906.27 323.811 1896.43 328.184 1894.34 325.416C1892.26 322.647 1898.73 313.785 1908.79 305.622C1918.86 297.459 1928.7 293.086 1930.78 295.854Z" fill="#8132E7"/>
<path d="M1926.22 301.023C1927.63 302.94 1923.16 308.947 1916.24 314.465C1909.32 319.984 1902.55 322.91 1901.16 321.009C1899.78 319.107 1904.22 313.086 1911.14 307.567C1918.07 302.049 1924.81 299.122 1926.22 301.023Z" fill="#322173"/>
<path d="M1923.38 301.023C1923.28 300.895 1923.16 300.787 1923.02 300.707C1920.08 301.479 1915.64 303.965 1911.14 307.567C1904.22 313.085 1899.74 319.102 1901.16 321.009C1901.26 321.137 1901.38 321.245 1901.52 321.325C1904.45 320.554 1908.9 318.067 1913.4 314.465C1920.32 308.947 1924.79 302.925 1923.38 301.023Z" fill="#462C8F"/>
<path d="M1853.18 288.88C1853.18 300.535 1840.76 309.957 1825.45 309.957C1810.13 309.957 1797.72 300.511 1797.72 288.88C1797.72 277.249 1810.13 267.802 1825.45 267.802C1840.76 267.802 1853.18 277.239 1853.18 288.88Z" fill="#322173"/>
<path d="M1825.45 267.783C1810.14 267.783 1797.72 277.23 1797.72 288.861C1797.74 292.016 1798.63 295.099 1800.29 297.742C1805.37 301.967 1812.66 304.616 1820.77 304.616C1836.09 304.616 1848.5 295.17 1848.5 283.539C1848.48 280.385 1847.59 277.304 1845.93 274.662C1840.86 270.432 1833.56 267.783 1825.45 267.783Z" fill="#462C8F"/>
<path opacity="0.5" d="M1896.55 286.906C1892.72 289.812 1889.08 292.97 1885.65 296.362C1890.59 296.841 1895.9 297.109 1901.43 297.109C1912.41 297.109 1922.5 296.075 1930.55 294.34C1931.31 290.029 1933.37 279.069 1931.65 276.247C1928.27 270.691 1911.53 275.529 1896.55 286.906Z" fill="#332074"/>
<path opacity="0.5" d="M1717.57 203.382C1715.53 186.53 1709.02 170.808 1702.72 171.617C1701.06 171.852 1690.02 177.921 1687.71 183.349C1686.91 185.227 1686.81 188.465 1687.17 192.45C1690.4 202.208 1702.92 209.542 1718.05 209.878C1717.98 207.78 1717.83 205.59 1717.57 203.382Z" fill="#332074"/>
<path d="M1760.65 282.077C1755.8 291.179 1741.51 292.559 1728.72 285.201C1715.94 277.843 1709.51 264.516 1714.37 255.434C1719.22 246.351 1733.51 244.952 1746.29 252.31C1759.07 259.668 1765.51 272.99 1760.65 282.077Z" fill="#462C8F"/>
<path d="M1783.35 305.023C1782.92 309.392 1777.59 312.424 1771.43 311.777C1765.27 311.131 1760.63 307.073 1761.05 302.676C1761.47 298.278 1766.81 295.275 1772.97 295.917C1779.12 296.559 1783.77 300.65 1783.35 305.023Z" fill="#462C8F"/>
<path d="M1764.71 119.226C1767.99 126.531 1762.31 136.471 1752.04 141.458C1741.76 146.444 1730.77 144.547 1727.49 137.242C1724.21 129.937 1729.89 119.997 1740.16 115.01C1750.44 110.024 1761.43 111.92 1764.71 119.226Z" fill="#6D2FC3"/>
<path d="M1712.27 133.477C1713.19 137.309 1709.54 141.529 1704.15 142.909C1698.76 144.288 1693.65 142.296 1692.74 138.463C1691.84 134.631 1695.47 130.406 1700.87 129.031C1706.26 127.656 1711.36 129.644 1712.27 133.477Z" fill="#6D2FC3"/>
<path d="M1847.64 143.206C1851.17 147.747 1848.86 155.771 1842.47 161.131C1836.09 166.492 1828.04 167.162 1824.5 162.621C1820.96 158.08 1823.28 150.056 1829.67 144.696C1836.05 139.335 1844.1 138.665 1847.64 143.206Z" fill="#6D2FC3"/>
<path d="M1906.7 70.2588C1911.94 68.1415 1918.6 72.8648 1921.59 80.7975C1924.57 88.7303 1922.74 96.9074 1917.49 99.0008C1912.25 101.094 1905.59 96.39 1902.61 88.462C1899.62 80.5341 1901.44 72.3761 1906.7 70.2588Z" fill="#6D2FC3"/>
<path d="M1845.9 24.8753C1847.1 19.9461 1853.69 17.4168 1860.63 19.2227C1867.57 21.0287 1872.23 26.4944 1871.04 31.4285C1869.84 36.3625 1863.25 38.8918 1856.31 37.081C1849.37 35.2703 1844.71 29.8093 1845.9 24.8753Z" fill="#6D2FC3"/>
<path d="M1842.63 118.455C1845.53 121.099 1844.87 126.819 1841.15 131.226C1837.43 135.633 1832.06 137.06 1829.15 134.416C1826.25 131.772 1826.91 126.052 1830.64 121.645C1834.36 117.238 1839.73 115.806 1842.63 118.455Z" fill="#6D2FC3"/>
<path d="M1657.25 130.967C1654.28 148.001 1647.18 160.925 1641.39 159.838C1635.6 158.751 1633.33 144.068 1636.31 127.024C1639.3 109.98 1646.39 97.0609 1652.18 98.1531C1657.96 99.2453 1660.22 113.932 1657.25 130.967Z" fill="#8132E7"/>
<path d="M1653.03 129.898C1650.9 142.047 1646.11 151.316 1642.27 150.597C1638.43 149.879 1637.07 139.446 1639.19 127.302C1641.31 115.159 1646.11 105.885 1649.95 106.603C1653.79 107.322 1655.15 117.745 1653.03 129.898Z" fill="#322173"/>
<path d="M1653.03 129.889C1654.48 121.535 1654.28 113.99 1652.78 109.861C1649.26 111.298 1645.32 119.719 1643.46 130.383C1642 138.742 1642.2 146.286 1643.7 150.416C1647.23 148.998 1651.16 140.552 1653.03 129.889Z" fill="#462C8F"/>
<path d="M1706.53 207.88C1708.84 223.526 1705.47 237.039 1699.01 238.059C1692.55 239.08 1685.45 227.238 1683.14 211.612C1680.84 195.986 1684.21 182.453 1690.66 181.433C1697.12 180.413 1704.22 192.24 1706.53 207.88Z" fill="#8132E7"/>
<path d="M1703.85 208.306C1705.62 220.368 1703.03 230.778 1698.05 231.573C1693.08 232.368 1687.6 223.228 1685.82 211.171C1684.05 199.114 1686.64 188.695 1691.62 187.909C1696.6 187.124 1702.07 196.249 1703.85 208.306Z" fill="#322173"/>
<path d="M1703.85 208.307C1702.39 198.376 1698.41 190.434 1694.28 188.379C1690.16 190.63 1688.15 200.206 1689.77 211.171C1691.23 221.102 1695.21 229.044 1699.34 231.099C1703.46 228.857 1705.46 219.277 1703.85 208.307Z" fill="#462C8F"/>
<path d="M1522.84 497.497C1517.99 485.072 1509.57 474.363 1498.63 466.725C1487.7 459.088 1474.74 454.865 1461.41 454.59C1448.07 454.315 1434.95 458.001 1423.71 465.181C1412.47 472.361 1403.61 482.714 1398.25 494.929C1392.9 507.145 1391.28 520.674 1393.61 533.807C1395.95 546.94 1402.12 559.087 1411.36 568.711C1420.59 578.335 1432.47 585.004 1445.5 587.875C1458.53 590.746 1472.11 589.69 1484.54 584.841C1501.2 578.338 1514.59 565.482 1521.78 549.102C1528.96 532.722 1529.34 514.16 1522.84 497.497V497.497Z" fill="#936CD8"/>
<path opacity="0.5" d="M1397.19 546.531C1400.18 554.215 1404.56 561.282 1410.11 567.379C1424.25 571.828 1439.46 571.496 1453.38 566.437C1467.31 561.377 1479.18 551.87 1487.17 539.386C1495.15 526.902 1498.8 512.136 1497.55 497.371C1496.3 482.606 1490.22 468.664 1480.25 457.7C1468.12 453.882 1455.16 453.57 1442.86 456.802C1430.57 460.033 1419.43 466.676 1410.75 475.963C1402.07 485.251 1396.19 496.804 1393.79 509.29C1391.39 521.777 1392.57 534.687 1397.19 546.531V546.531Z" fill="#CBA0FE"/>
<path d="M1481.14 508.364C1484.72 517.548 1479.29 528.234 1469 532.247C1458.72 536.261 1447.48 532.063 1443.91 522.879C1440.35 513.695 1445.76 503.015 1456.05 499.001C1466.34 494.988 1477.56 499.191 1481.14 508.364Z" fill="#7246C9"/>
<path d="M1447.93 524.298C1444.35 515.114 1449.78 504.428 1460.07 500.414C1464.21 498.771 1468.76 498.458 1473.09 499.519C1470.44 498.21 1467.55 497.476 1464.6 497.365C1461.66 497.254 1458.72 497.768 1455.98 498.875C1445.7 502.889 1440.26 513.58 1443.84 522.758C1445.89 528.01 1450.46 531.619 1455.93 532.993C1452.28 531.178 1449.43 528.082 1447.93 524.298V524.298Z" fill="#683DC4"/>
<path d="M1440.05 551.078C1438.66 557.456 1429.19 560.808 1418.89 558.574C1408.58 556.34 1401.36 549.339 1402.74 542.961C1404.13 536.582 1413.61 533.22 1423.91 535.465C1434.21 537.71 1441.44 544.694 1440.05 551.078Z" fill="#7246C9"/>
<path d="M1406.23 544.73C1407.62 538.346 1417.09 534.989 1427.39 537.234C1429.17 537.618 1430.91 538.165 1432.6 538.869C1429.9 537.264 1426.96 536.114 1423.89 535.465C1413.62 533.22 1404.11 536.577 1402.73 542.961C1401.58 548.197 1406.26 553.86 1413.66 556.939C1408.37 553.718 1405.29 549.081 1406.23 544.73Z" fill="#683DC4"/>
<path d="M1425.89 491.289C1429.45 494.815 1428.04 502.005 1422.75 507.349C1417.46 512.693 1410.28 514.164 1406.71 510.644C1403.13 507.124 1404.55 499.927 1409.84 494.584C1415.13 489.24 1422.32 487.757 1425.89 491.289Z" fill="#7246C9"/>
<path d="M1409.74 509.457C1406.18 505.925 1407.58 498.735 1412.88 493.391C1414.3 491.94 1415.95 490.726 1417.76 489.795C1414.75 490.669 1412.02 492.316 1409.85 494.572C1404.56 499.916 1403.16 507.101 1406.72 510.632C1409.26 513.154 1413.64 513.112 1417.87 510.951C1414.68 511.805 1411.66 511.373 1409.74 509.457Z" fill="#683DC4"/>
<path d="M1474.12 466.879C1474.83 471.073 1470.16 475.364 1463.7 476.453C1457.24 477.541 1451.42 475.026 1450.71 470.826C1450.01 466.627 1454.67 462.348 1461.14 461.253C1467.61 460.159 1473.41 462.68 1474.12 466.879Z" fill="#7246C9"/>
<path d="M1454.62 471.043C1453.92 466.844 1458.58 462.559 1465.05 461.47C1465.69 461.363 1466.34 461.292 1466.99 461.258C1465.05 460.919 1463.07 460.918 1461.14 461.253C1454.67 462.342 1450.01 466.633 1450.71 470.826C1451.35 474.602 1456.11 477.005 1461.76 476.642C1457.96 475.974 1455.11 473.896 1454.62 471.043Z" fill="#683DC4"/>
<path d="M1487.72 572.214C1484.62 579.39 1473.15 581.333 1462.09 576.571C1451.03 571.808 1444.59 562.119 1447.69 554.931C1450.79 547.744 1462.27 545.806 1473.32 550.574C1484.37 555.343 1490.83 565.038 1487.72 572.214Z" fill="#7246C9"/>
<path d="M1451.99 556.884C1455.01 549.885 1466 547.879 1476.8 552.217C1475.54 551.463 1474.23 550.792 1472.88 550.21C1461.83 545.435 1450.35 547.379 1447.25 554.566C1444.15 561.754 1450.6 571.432 1461.65 576.212C1461.93 576.328 1462.22 576.422 1462.47 576.533C1453.87 571.368 1449.28 563.165 1451.99 556.884Z" fill="#683DC4"/>
<path d="M1438.84 509.93C1439.66 512.025 1437.71 514.742 1434.48 515.996C1431.25 517.25 1427.98 516.581 1427.16 514.486C1426.35 512.391 1428.3 509.679 1431.52 508.419C1434.75 507.16 1438.01 507.84 1438.84 509.93Z" fill="#7246C9"/>
<path d="M1430.4 514.725C1429.58 512.636 1431.53 509.918 1434.75 508.658C1435.36 508.423 1435.99 508.25 1436.63 508.143C1434.95 507.704 1433.17 507.834 1431.56 508.511C1428.34 509.771 1426.38 512.471 1427.2 514.578C1427.86 516.265 1430.11 517.028 1432.64 516.61C1432.15 516.489 1431.69 516.256 1431.3 515.929C1430.91 515.602 1430.6 515.191 1430.4 514.725V514.725Z" fill="#683DC4"/>
<path d="M1440.82 565.038C1441.64 567.127 1439.69 569.845 1436.46 571.105C1433.24 572.364 1429.96 571.684 1429.15 569.589C1428.33 567.494 1430.28 564.782 1433.51 563.522C1436.73 562.262 1440 562.943 1440.82 565.038Z" fill="#7246C9"/>
<path d="M1431.56 568.649C1430.85 566.823 1432.24 564.53 1434.74 563.132C1434.32 563.234 1433.91 563.364 1433.51 563.522C1430.28 564.782 1428.32 567.482 1429.15 569.589C1429.97 571.696 1433.24 572.359 1436.46 571.105C1436.87 570.943 1437.26 570.755 1437.64 570.543C1434.85 571.217 1432.27 570.474 1431.56 568.649Z" fill="#683DC4"/>
<path d="M1490.63 524.835C1492.64 525.831 1493.03 529.158 1491.5 532.28C1489.97 535.402 1487.08 537.087 1485.07 536.092C1483.05 535.096 1482.67 531.775 1484.21 528.647C1485.74 525.52 1488.61 523.84 1490.63 524.835Z" fill="#7246C9"/>
<path d="M1486.97 535.337C1484.96 534.341 1484.57 531.02 1486.11 527.892C1486.73 526.593 1487.68 525.476 1488.86 524.649C1487.11 524.811 1485.16 526.334 1483.99 528.721C1482.46 531.82 1482.85 535.141 1484.86 536.165C1485.95 536.701 1487.28 536.432 1488.53 535.596C1488 535.658 1487.46 535.568 1486.97 535.337V535.337Z" fill="#683DC4"/>
<path d="M1517.77 528.558C1521.37 531.85 1520.18 539.002 1515.11 544.554C1510.05 550.105 1503.03 551.887 1499.42 548.63C1495.81 545.372 1497.02 538.18 1502.09 532.634C1507.16 527.089 1514.18 525.267 1517.77 528.558Z" fill="#7246C9"/>
<path d="M1502.75 547.319C1499.15 544.028 1500.34 536.875 1505.41 531.324C1506.89 529.682 1508.65 528.302 1510.59 527.243C1507.3 528.18 1504.34 530.046 1502.08 532.617C1497.01 538.157 1495.82 545.315 1499.42 548.612C1501.88 550.864 1505.96 550.716 1509.92 548.611C1507.13 549.313 1504.52 548.942 1502.75 547.319Z" fill="#683DC4"/>
<path d="M1512.96 492.527C1511.66 499.335 1503.33 503.463 1494.36 501.744C1485.39 500.025 1479.18 493.113 1480.48 486.31C1481.78 479.508 1490.11 475.375 1499.08 477.093C1508.05 478.812 1514.29 485.725 1512.96 492.527Z" fill="#7246C9"/>
<path d="M1484.44 487.54C1485.74 480.738 1494.07 476.61 1503.04 478.329C1503.31 478.383 1503.58 478.453 1503.85 478.513C1502.31 477.818 1500.69 477.307 1499.04 476.99C1490.07 475.271 1481.74 479.399 1480.44 486.207C1479.17 492.804 1484.98 499.484 1493.51 501.456C1487.25 498.617 1483.38 493.046 1484.44 487.54Z" fill="#683DC4"/>
<path opacity="0.7" d="M1428.62 500.975C1422.7 508.321 1414.35 511.407 1409.96 507.874C1405.57 504.341 1406.83 495.519 1412.76 488.173C1418.68 480.827 1427.03 477.741 1431.42 481.274C1435.8 484.807 1434.55 493.629 1428.62 500.975Z" fill="white"/>
<path opacity="0.7" d="M1431.19 522.432C1428.28 527.882 1423.3 530.9 1420.05 529.202C1416.8 527.504 1416.51 521.654 1419.41 516.204C1422.3 510.754 1427.29 507.737 1430.54 509.463C1433.79 511.19 1434.08 516.982 1431.19 522.432Z" fill="white"/>
<path d="M431.122 376.579C416.655 334.377 383.4 307.467 353.3 315.378C323.2 323.289 307.042 363.22 314.627 407.173L431.122 376.579Z" fill="#885AC2"/>
<path d="M355.095 322.931C326.467 330.387 310.228 366.25 314.789 407.173L431.123 376.913C415.283 338.908 383.723 315.487 355.095 322.931Z" fill="#B394DA"/>
<path opacity="0.6" d="M352.835 316.709C353.321 316.218 353.819 315.726 354.318 315.259C353.974 315.343 353.63 315.415 353.285 315.511C346.373 317.358 340.017 320.894 334.775 325.806C322.138 344.035 317.143 373.158 322.376 404.654L342.072 399.501C337.148 366.039 341.432 335.777 352.835 316.709Z" fill="white"/>
<path d="M316.5 437.995C317.004 439.994 313.207 442.782 308.033 444.158C302.86 445.534 298.248 445.067 297.709 443.069C297.17 441.071 301.001 438.282 306.186 436.918C311.372 435.554 316.006 435.997 316.5 437.995Z" fill="#93278F"/>
<path d="M384.49 420.643C385.016 422.929 380.968 426.118 375.452 427.678C369.936 429.238 365.019 428.732 364.444 426.446C363.87 424.161 367.967 420.972 373.483 419.412C378.999 417.852 383.928 418.331 384.49 420.643Z" fill="#93278F"/>
<path d="M452.484 402.744C452.977 404.745 449.193 407.537 444.011 408.903C438.829 410.27 434.243 409.826 433.693 407.825C433.143 405.824 436.984 403.031 442.154 401.665C447.325 400.299 451.991 400.742 452.484 402.744Z" fill="#93278F"/>
<path d="M429.679 435.449C423.501 445.076 347.937 462.954 340.316 457.919C336.71 455.588 324.1 440.274 324.1 440.274L436.159 413.468C436.159 413.468 431.963 431.848 429.679 435.449Z" fill="#9D3943"/>
<path d="M303.918 404.403C314.435 393.355 429.827 364.271 440.62 368.571C445.668 370.566 462.6 385.09 462.6 385.09L291.363 428.577C291.363 428.577 300.045 408.464 303.918 404.403Z" fill="#CD5940"/>
<path opacity="0.3" d="M356.747 413.095C357.365 411.45 357.959 409.744 358.455 408.003C360.856 400.404 362.006 392.471 361.861 384.509C350.518 387.62 339.671 390.851 330.57 393.926C329.94 395.631 329.359 397.409 328.801 399.223C326.596 406.286 325.437 413.629 325.359 421.023L356.747 413.095Z" fill="white"/>
<path d="M381.099 439.44C432.907 424.607 485.182 408.948 518 389.861C493.527 375.268 430.045 387.249 371.508 402.442C312.972 417.634 262.72 433.677 241.001 458.97C240.666 465.584 316.504 457.928 381.099 439.44Z" fill="#DA9970"/>
<path d="M379.361 428.35C431.348 414.823 479.086 400.936 514.221 387.72C483.06 376.191 428.138 376.179 369.814 391.311C311.49 406.443 263.895 432.217 242.258 457.536C279.362 451.91 327.422 441.878 379.361 428.35Z" fill="#E8B882"/>
<path opacity="0.4" d="M446.231 379.473C394.805 382.602 344.476 395.606 298.025 417.765C283.243 430.437 271.795 442.894 264.922 453.759C298.29 447.896 337.905 439.292 380.073 428.415C390.818 425.638 401.327 422.826 411.599 419.978C428.271 405.392 440.453 391.14 446.231 379.473Z" fill="white"/>
<path d="M293.681 437.071C293.368 435.866 292.706 434.781 291.778 433.953C290.85 433.125 289.697 432.59 288.465 432.416C287.233 432.242 285.977 432.438 284.856 432.977C283.735 433.517 282.799 434.376 282.166 435.448C281.534 436.519 281.232 437.753 281.301 438.996C281.369 440.238 281.804 441.432 282.55 442.427C283.297 443.423 284.321 444.174 285.495 444.588C286.668 445.001 287.938 445.058 289.143 444.75C289.946 444.545 290.701 444.183 291.364 443.686C292.027 443.189 292.585 442.566 293.007 441.852C293.428 441.139 293.705 440.349 293.82 439.529C293.936 438.708 293.888 437.873 293.681 437.071V437.071Z" fill="#993064"/>
<path d="M320.101 429.988C319.758 428.663 319.03 427.47 318.009 426.558C316.988 425.647 315.719 425.059 314.364 424.868C313.009 424.677 311.628 424.892 310.395 425.485C309.161 426.079 308.132 427.024 307.436 428.202C306.739 429.381 306.408 430.739 306.483 432.105C306.558 433.472 307.037 434.785 307.858 435.88C308.679 436.975 309.806 437.802 311.097 438.257C312.388 438.711 313.784 438.773 315.11 438.435C315.993 438.21 316.823 437.812 317.553 437.265C318.282 436.718 318.896 436.033 319.36 435.248C319.823 434.463 320.128 433.594 320.255 432.692C320.382 431.789 320.33 430.87 320.101 429.988V429.988Z" fill="#993064"/>
<path d="M447.292 396.78C446.98 395.575 446.318 394.491 445.39 393.662C444.461 392.834 443.308 392.299 442.076 392.125C440.844 391.952 439.588 392.147 438.466 392.687C437.345 393.226 436.409 394.086 435.776 395.157C435.143 396.228 434.842 397.463 434.91 398.705C434.978 399.947 435.413 401.141 436.16 402.137C436.906 403.132 437.931 403.884 439.105 404.297C440.279 404.71 441.549 404.767 442.754 404.459C443.557 404.253 444.31 403.891 444.973 403.393C445.635 402.895 446.193 402.272 446.614 401.559C447.036 400.846 447.312 400.057 447.429 399.237C447.545 398.417 447.499 397.582 447.292 396.78V396.78Z" fill="#993064"/>
<path d="M473.711 390.484C473.367 389.28 472.639 388.195 471.618 387.367C470.597 386.538 469.329 386.003 467.974 385.83C466.618 385.656 465.237 385.851 464.004 386.391C462.771 386.93 461.741 387.79 461.045 388.861C460.349 389.932 460.017 391.167 460.092 392.409C460.168 393.651 460.646 394.846 461.467 395.841C462.288 396.836 463.415 397.588 464.706 398.001C465.997 398.415 467.394 398.471 468.72 398.163C469.603 397.959 470.433 397.597 471.162 397.1C471.891 396.603 472.505 395.979 472.969 395.266C473.433 394.552 473.737 393.763 473.864 392.942C473.991 392.122 473.939 391.286 473.711 390.484V390.484Z" fill="#993064"/>
<path d="M423.347 404.334C423.004 403.13 422.276 402.045 421.255 401.217C420.234 400.388 418.965 399.853 417.61 399.68C416.255 399.506 414.874 399.701 413.641 400.241C412.407 400.78 411.378 401.64 410.682 402.711C409.985 403.782 409.654 405.017 409.729 406.259C409.804 407.501 410.283 408.696 411.104 409.691C411.925 410.686 413.052 411.438 414.343 411.851C415.634 412.265 417.03 412.321 418.356 412.014C419.24 411.809 420.07 411.447 420.799 410.95C421.528 410.453 422.142 409.829 422.606 409.116C423.07 408.403 423.374 407.613 423.501 406.792C423.628 405.972 423.576 405.136 423.347 404.334V404.334Z" fill="#993064"/>
<path d="M396.909 410.64C396.568 409.435 395.841 408.348 394.821 407.518C393.801 406.688 392.533 406.151 391.177 405.976C389.822 405.801 388.439 405.995 387.205 406.534C385.971 407.073 384.94 407.932 384.243 409.003C383.545 410.074 383.213 411.309 383.288 412.552C383.362 413.795 383.841 414.99 384.662 415.986C385.483 416.982 386.611 417.734 387.903 418.147C389.194 418.561 390.591 418.617 391.918 418.308C392.8 418.103 393.629 417.742 394.357 417.246C395.085 416.749 395.699 416.127 396.162 415.415C396.626 414.703 396.93 413.914 397.058 413.095C397.187 412.276 397.136 411.442 396.909 410.64V410.64Z" fill="#993064"/>
<path d="M370.485 416.925C370.173 415.721 369.511 414.636 368.583 413.808C367.655 412.979 366.502 412.445 365.27 412.271C364.038 412.097 362.782 412.292 361.661 412.832C360.54 413.372 359.604 414.231 358.971 415.302C358.338 416.373 358.037 417.608 358.105 418.85C358.174 420.093 358.608 421.287 359.355 422.282C360.101 423.277 361.126 424.029 362.299 424.442C363.473 424.856 364.743 424.912 365.948 424.605C366.751 424.4 367.506 424.038 368.169 423.541C368.831 423.044 369.39 422.421 369.811 421.707C370.233 420.994 370.509 420.204 370.625 419.383C370.741 418.563 370.693 417.727 370.485 416.925V416.925Z" fill="#993064"/>
<path d="M345.304 423.221C344.992 422.016 344.33 420.931 343.401 420.103C342.473 419.275 341.32 418.74 340.088 418.566C338.856 418.393 337.6 418.588 336.479 419.127C335.358 419.667 334.422 420.527 333.789 421.598C333.157 422.669 332.855 423.903 332.924 425.146C332.992 426.388 333.427 427.582 334.173 428.577C334.92 429.573 335.944 430.325 337.118 430.738C338.291 431.151 339.561 431.208 340.766 430.9C341.569 430.695 342.324 430.334 342.987 429.836C343.65 429.339 344.208 428.716 344.63 428.003C345.051 427.289 345.328 426.499 345.443 425.679C345.559 424.858 345.512 424.023 345.304 423.221V423.221Z" fill="#993064"/>
</g>
<defs>
<radialGradient id="paint0_radial_333_553" cx="0" cy="0" r="1" gradientUnits="userSpaceOnUse" gradientTransform="translate(960 703.289) scale(834.213 859.812)">
<stop stop-color="#29094F"/>
<stop offset="0.33" stop-color="#230746"/>
<stop offset="0.86" stop-color="#13032E"/>
<stop offset="1" stop-color="#0E0227"/>
</radialGradient>
<clipPath id="clip0_333_553">
<rect width="1920" height="1080" fill="white"/>
</clipPath>
</defs>
</svg>
