<svg xmlns="http://www.w3.org/2000/svg" viewBox="0 0 1347 127"><defs><style>.cls-1{fill:#f5e4e3;}.cls-2{fill:#ec9091;}.cls-2,.cls-37{opacity:0.5;}.cls-3{fill:#d6363c;}.cls-4{fill:#dc483f;}.cls-5{fill:#ef5b49;}.cls-6{fill:#3b946d;}.cls-7{fill:#a3b67c;}.cls-8{fill:#738655;}.cls-9{fill:#678051;}.cls-10{fill:#c64151;}.cls-11{fill:#9c2a47;}.cls-12{fill:#e04e5f;}.cls-13{fill:#e7565c;}.cls-14{fill:#f0cdd0;}.cls-15{fill:#8c9f67;}.cls-16{fill:#e0af0a;}.cls-17{fill:#f6eabc;}.cls-18{fill:#d49c0c;}.cls-19{fill:#f5d13d;}.cls-20{fill:#fff;}.cls-21{fill:#698653;}.cls-22{fill:#a8bc7a;}.cls-23{fill:#c6da9a;}.cls-24{fill:#aabe7e;}.cls-25{fill:#974c30;}.cls-26{fill:#b5653e;}.cls-27{fill:#cd8151;}.cls-28{fill:#f6ab73;}.cls-29{fill:#fff0e3;}.cls-30{fill:#688650;}.cls-31{fill:#64814c;}.cls-32{fill:#98ab6c;}.cls-33{fill:#91a465;}.cls-34{fill:#7c945c;}.cls-35,.cls-37{fill:#cddfa5;}.cls-35{opacity:0.4;}.cls-36{fill:#bfd293;}.cls-38{fill:#f5dec0;}.cls-39{fill:#fff7f0;}.cls-40{fill:#f4c63e;}.cls-41{fill:#dea92e;}.cls-42{fill:#f4e581;}</style></defs><g id="Laag_2" data-name="Laag 2"><g id="Layer_1" data-name="Layer 1"><rect class="cls-1" width="1347" height="127"/><rect class="cls-2" width="1347" height="127"/><path class="cls-3" d="M802.17,107.25c23.26-8.82,34.89-33.28,26-54.62s-35-31.48-58.24-22.66-34.88,33.28-26,54.62S778.92,116.08,802.17,107.25Z"/><path class="cls-4" d="M820.76,41.09C808.76,28,788.45,22.94,769.92,30a46.38,46.38,0,0,0-18.34,12.54,29.79,29.79,0,0,0,1.93,16.29c6.9,16.55,27.11,24.41,45.14,17.57C814.15,70.49,823,55.65,820.76,41.09Z"/><path class="cls-5" d="M817,37.31c-12.21-10.29-30.3-13.7-47-7.38a46.88,46.88,0,0,0-16.14,10.23A26.92,26.92,0,0,0,755.94,52c6.25,15,24.54,22.1,40.86,15.91C810.36,62.77,818.28,50.06,817,37.31Z"/><path class="cls-3" d="M803.68,39.93c1.31-1.1-7-.81-14-5.24-.87-.55-1.8-1.19-2.73-1.85a60.64,60.64,0,0,0,10.63-5.06,47.26,47.26,0,0,0-9.83-1.16,34.41,34.41,0,0,0-5.87,1.73c-.22-.18-.44-.38-.66-.58l-.78-.71a49,49,0,0,0-6.13,1.25c.75.75,1.49,1.44,2.16,2-.68.21-1.44.48-2.27.8-3.3,1.31-10.92,2.95-15.09,4.33-.86.61-1.7,1.26-2.51,1.92,2,1.2,13,1,19.68-.76,1.45-.39,2.63-.75,3.59-1.09a12.66,12.66,0,0,0,3.79,4.08C792.51,46,802.37,41,803.68,39.93Z"/><path class="cls-6" d="M788.48,29.67c-.87-.55-1.8-1.2-2.73-1.86,5.4-1.93,13.37-6,12.71-7.24-.76-1.43-14.15,1.07-17.78,2.76-.22-.19-.44-.38-.66-.59-3.56-3.32-13-10.3-13.94-8.94-.83,1.15,5.3,8.15,9.19,11.5-.69.21-1.44.47-2.27.8-4.74,1.88-18.48,4.44-17.9,5.95s12.83,1.43,20-.47c1.45-.39,2.63-.75,3.59-1.09a12.56,12.56,0,0,0,3.79,4.08c8.87,6.36,18.73,1.44,20,.33S795.51,34.09,788.48,29.67Z"/><path class="cls-7" d="M93.9,30.43c3.14-1.41,8.43-6.37,11.31-5.94,6.09.91,8,10.07,7,19.9a19.71,19.71,0,0,1-.84,4l2.9,3.61a24.28,24.28,0,0,0,4-11.2C119.55,28.47,117.15,16.12,106,15c-5.37-.55-12.14,1.61-17.49,5.37Z"/><path class="cls-8" d="M112.64,50.05a45.32,45.32,0,0,0,1.72-5.4c3.1-11.2-1.13-22.34-8.42-23.43-3.42-.5-10,4.47-13.78,6.18l1.54,3.17c3.15-1.41,8.56-6.36,11.44-5.93,6.09.91,8,10.08,7,19.91a18.27,18.27,0,0,1-.77,3.88Z"/><path class="cls-9" d="M94.43,23.86C93.08,21,90.65,19.25,89,20s-1.86,3.73-.51,6.63,3.77,4.62,5.41,3.85S95.78,26.76,94.43,23.86Z"/><path class="cls-10" d="M137.22,42.39c-8.24-3.36-16.16-5.31-23,.37-3.5-6.78-9.35-8.37-16.66-9.12C81.63,32,70.85,43.57,70.8,68.42c0,26.05,10.91,38.58,19.2,39.42a15.87,15.87,0,0,0,10.39-2.42,12.88,12.88,0,0,0,5.85,5.34c9.18,3.74,23,.94,36.75-25.52C153.52,65,151.18,48.08,137.22,42.39Z"/><path class="cls-11" d="M143.47,80.43C129.72,106.9,115.9,109.7,106.72,106a12.84,12.84,0,0,1-5.84-5.33A15.89,15.89,0,0,1,90.49,103c-8.29-.84-19.25-13.37-19.2-39.43,0-1.73.06-3.4.17-5a71.08,71.08,0,0,0-.64,9.59c0,26.06,10.92,38.59,19.21,39.43a15.86,15.86,0,0,0,10.38-2.42,12.94,12.94,0,0,0,5.85,5.34c9.18,3.74,23,.94,36.75-25.53,4.14-8,6.29-15.42,6.53-21.86A58.46,58.46,0,0,1,143.47,80.43Z"/><path class="cls-12" d="M113.76,50.16a81.45,81.45,0,0,0,.42-8.48c-3.51-6.55-9.3-8.11-16.51-8.84C81.77,31.23,71,42.76,70.94,67.61c0,16.25,4.23,27.23,9.44,33.41C97.13,96.25,111.16,75.84,113.76,50.16Z"/><path class="cls-13" d="M104.49,64.29c4.42-11.55,3.69-23.27-1.11-30.55a42.12,42.12,0,0,0-5.71-.9C81.77,31.23,71,42.76,70.94,67.61A71.71,71.71,0,0,0,73,85.71l.38.17C84.39,90.09,98.31,80.42,104.49,64.29Z"/><path class="cls-14" d="M86.6,47.27c-1.57,3.58-4.15,5.91-5.74,5.21s-1.61-4.18,0-7.75,4.15-5.91,5.74-5.21S88.18,43.69,86.6,47.27Z"/><path class="cls-14" d="M81.9,57.93a2.31,2.31,0,1,1-1.12-3.18A2.38,2.38,0,0,1,81.9,57.93Z"/><path class="cls-8" d="M129.3,38.36a8.19,8.19,0,0,0-7.59.11,4.64,4.64,0,0,0-5-1.69,5.34,5.34,0,0,0-.53.16,6.77,6.77,0,0,0-2.73-1.19,7.29,7.29,0,0,0-2.61-.25A8.19,8.19,0,0,0,102,33c-4.21,1.34-12.22,6.94-11,8.9,1.14,1.8,11.29.74,16.17-.49-.54,4.28-.52,10.64,1.61,11.16,2,.47,5.17-4.2,7-8.07,2.78,3.9,7.66,9.65,9.09,9.32,1.13-.26.41-4.55-.63-8.48,4.05,2,12.32,5.22,13.22,4.11C138.52,48.19,132.4,40.1,129.3,38.36Z"/><path class="cls-15" d="M108.4,40.23c8.62,2.08,16.71.61,20.37-3.26a8.39,8.39,0,0,0-6.17.7,4.64,4.64,0,0,0-5-1.69c-.17,0-.35.1-.53.16A6.77,6.77,0,0,0,114.29,35a7.29,7.29,0,0,0-2.61-.25,8.17,8.17,0,0,0-8.76-2.5,25.44,25.44,0,0,0-5.7,2.91A30.48,30.48,0,0,0,108.4,40.23Z"/><path class="cls-16" d="M1269.79,86l-.24-.14c20-33.26-2.93-57.54-15.78-66.24-13.27-9-36.57,2.22-52,25s-17.25,48.64-4,57.63c12.09,8.19,42.22,16.77,63.66-5.64a4.79,4.79,0,0,0,.73.62c2.57,1.74,6.37.62,8.47-2.49S1272.35,87.76,1269.79,86Z"/><path class="cls-17" d="M1247.7,75.84c-14.51,21.41-35.87,32.27-47.7,24.24s-9.67-31.87,4.83-53.28,35.86-32.27,47.7-24.25S1262.2,54.43,1247.7,75.84Z"/><path class="cls-18" d="M1267.66,54.4c-.63.69-2.16.34-3.42-.8s-1.77-2.62-1.14-3.32,2.16-.34,3.42.8S1268.29,53.7,1267.66,54.4Z"/><path class="cls-18" d="M1270.45,74c-.66.44-1.83-.15-2.63-1.33s-.93-2.49-.28-2.94,1.84.15,2.64,1.33S1271.1,73.58,1270.45,74Z"/><path class="cls-18" d="M1247.65,99c-.35.87-1.91,1.07-3.48.44s-2.57-1.84-2.22-2.72,1.91-1.07,3.48-.44S1248,98.13,1247.65,99Z"/><path class="cls-18" d="M1264.09,78.45c-.62.57-2,.13-3-1s-1.37-2.49-.74-3.06,2-.13,3,1S1264.71,77.88,1264.09,78.45Z"/><path class="cls-18" d="M1267.7,62.87c-.35.38-1.2.17-1.89-.47s-1-1.48-.61-1.86,1.21-.17,1.9.47S1268.06,62.48,1267.7,62.87Z"/><path class="cls-18" d="M1268.33,45.41c-.41.32-1.21,0-1.79-.77s-.72-1.61-.31-1.93,1.22,0,1.8.76S1268.75,45.08,1268.33,45.41Z"/><path class="cls-18" d="M1252.46,79.94c-.3.43-1.17.35-2-.18s-1.18-1.31-.88-1.74,1.16-.36,1.94.17S1252.75,79.5,1252.46,79.94Z"/><path class="cls-18" d="M1235.27,102.15c-.17.49-1,.64-1.92.33s-1.48-1-1.31-1.45,1-.65,1.93-.34S1235.44,101.65,1235.27,102.15Z"/><path class="cls-18" d="M1266.14,87.54c-.41.32-1.22,0-1.81-.75s-.72-1.61-.31-1.93,1.22,0,1.8.75S1266.55,87.22,1266.14,87.54Z"/><path class="cls-18" d="M1266.74,96.47c-.32.42-1.18.29-1.93-.29s-1.09-1.38-.77-1.79,1.18-.28,1.93.29S1267.06,96.06,1266.74,96.47Z"/><path class="cls-18" d="M1224.9,103.53c-.22.48-1.1.55-2,.15s-1.38-1.1-1.16-1.57,1.09-.54,1.94-.15S1225.11,103.05,1224.9,103.53Z"/><path class="cls-18" d="M1263.64,64.59c-.4.61-1.6.51-2.69-.21s-1.65-1.78-1.25-2.39,1.6-.51,2.69.21S1264,64,1263.64,64.59Z"/><path class="cls-18" d="M1245.92,90.73c-.36.63-1.57.61-2.7,0s-1.75-1.68-1.39-2.31,1.56-.61,2.69,0S1246.28,90.1,1245.92,90.73Z"/><path class="cls-18" d="M1263.37,70.43c-.46.55-1.65.32-2.64-.51s-1.44-2-1-2.52,1.65-.32,2.65.51S1263.84,69.88,1263.37,70.43Z"/><path class="cls-18" d="M1255.44,95.53c-.35.64-1.55.65-2.7,0s-1.8-1.64-1.45-2.28,1.55-.64,2.7,0S1255.78,94.89,1255.44,95.53Z"/><path class="cls-19" d="M1246.15,69.34c-4.45,7.66-9.9,12.79-12.17,11.46s-9.58-13.33-9.22-16.89c.55-5.46,23-12.14,25.31-10.82S1250.59,61.69,1246.15,69.34Z"/><path class="cls-19" d="M1229,87.8c-5,7.3-21,10.65-23.33,9.33s12.22-25.46,15.39-30.22c3-4.57,5.26,4,6.2,6.45C1229.81,79.91,1231.91,83.61,1229,87.8Z"/><path class="cls-19" d="M1220.21,53.65c1.32,8.75,2,8.45-.65,8.84s-17.38,5.77-19.33,2.77c-3-4.6,10.34-22.8,13-24.28C1218.68,37.92,1218.89,44.9,1220.21,53.65Z"/><path class="cls-19" d="M1211.05,80.48c-5.65,9.16-9.48,15.85-11.75,14.52s-3.58-15.6-3.22-19.17c.55-5.46,21.82-13,24.1-11.64S1215.69,73,1211.05,80.48Z"/><path class="cls-19" d="M1256.56,35.56c.88,4.78-.21,8.33-3.79,12.49-1.72,2-25.07,12.1-25.37,8.72-.49-5.47,19.2-30.51,21.77-31.1S1255.71,30.91,1256.56,35.56Z"/><path class="cls-19" d="M1230.7,26.12c4.33-2.22,12.38-6.74,12.19-1.26-.1,2.63-13.6,25.55-17.73,31.24-3.23,4.44-4.55-19-3.61-21.47C1222.05,33.32,1221.92,30.61,1230.7,26.12Z"/><path class="cls-20" d="M1216.38,80.54c1.19-3.18,4.2-9.34,5-9.05s-1,6.92-2.17,10.1-2,3.29-2.72,3S1215.19,83.73,1216.38,80.54Z"/><path class="cls-20" d="M1248.54,38.43c-3.8,4.17-12.25,11.79-13.26,10.86s5.8-10,9.6-14.2,5-3.87,6-3S1252.34,34.26,1248.54,38.43Z"/><path class="cls-20" d="M1202.56,73.72c4.26-2.5,13.2-6.86,13.69-6s-6.36,7.13-10.62,9.63-6.38,3.16-6.91.66C1198.52,77.05,1198.3,76.22,1202.56,73.72Z"/><path class="cls-21" d="M572,111.41c18.2,2.58,45.27-6.26,47.56-48.74,1.61-29.67-22-45.13-42.09-47.07s-26.91,3.27-42.85,7.8c-18.89,5.36-31.18,5.81-35.82,20.92-7.16,23.34,12.5,27.89,28.07,39.94C541.16,95.37,553.75,108.84,572,111.41Z"/><path class="cls-22" d="M568.88,95.75c17.1,1.81,43.33.46,48.09-31.51,4.09-27.5-20.4-44.16-39.21-46s-25.17,3.06-40.09,7.3C520,30.57,504.28,29.8,502,44.41c-2.72,17.12,15.68,21.21,30.25,32.48C545.62,87.28,553.54,94.13,568.88,95.75Z"/><path class="cls-23" d="M571.08,91.4c15.09,1.6,39-.15,42.22-29.31,2.7-24.36-18-38.94-34.57-40.54s-24.41,1.57-37.56,5.3c-15.59,4.42-30.12,4.56-32.17,17.44-2.39,15.1,15.53,20.63,28.38,30.57C549.21,84,557.56,90,571.08,91.4Z"/><path class="cls-24" d="M566,76.54c20,3.53,28.68-6.3,30.43-16.34s-4.74-23.34-21.57-26.06C560.36,31.79,545.77,41,544,51.06S551.54,74,566,76.54Z"/><path class="cls-25" d="M566,73.23c17.92,3.17,25.68-5.42,27.22-14.21s-4.33-20.47-19.43-22.91c-13-2.11-26.06,5.92-27.59,14.71S553,71,566,73.23Z"/><path class="cls-26" d="M590.4,57.5c-1.53,8.79-9.29,17.37-27.21,14.21a24.17,24.17,0,0,1-2.58-.59C551.53,66.87,546.17,58,547.43,50.8,549,42,562,34,575,36.09a32.34,32.34,0,0,1,3.51.77C588,41.32,591.65,50.36,590.4,57.5Z"/><path class="cls-27" d="M563.18,66.08a20.7,20.7,0,0,1-15.39-11.62,13.07,13.07,0,0,1,.17-2.81C549.46,43,562,35.14,574.8,36.83c8.62,3.48,11.94,11.35,10.87,17.5C584.4,61.6,578,68.69,563.18,66.08Z"/><path class="cls-28" d="M562.92,63.78c-8.54-1.51-14-9-13-14.75a8.49,8.49,0,0,1,1.52-3.44,23.75,23.75,0,0,1,6.88-5.11A18.53,18.53,0,0,1,568,39.35c9.94,1.61,13.8,9.29,12.79,15.08S574.71,65.85,562.92,63.78Z"/><path class="cls-29" d="M559.08,51c4.12-.63,5.22-2.77,4.95-4.53s-2.35-3.55-5.81-3c-3,.49-5.27,2.89-5,4.64S556.09,51.49,559.08,51Z"/><path class="cls-29" d="M569.22,46.77c2-.05,2.7-1.15,2.68-2.13a2.33,2.33,0,0,0-2.65-2c-1.48.06-2.74,1.21-2.71,2.19A2.47,2.47,0,0,0,569.22,46.77Z"/><path class="cls-22" d="M584.18,100.71c2.27-.12,3.16-.62,3.13-1.18s-1-1-3.24-.85-6,.77-6,1.33S581.91,100.83,584.18,100.71Z"/><path class="cls-22" d="M560.35,102.62c2.57.76,3.76.55,3.95-.08s-.7-1.46-3.27-2.22-7-1.49-7.15-.86S557.79,101.86,560.35,102.62Z"/><path class="cls-22" d="M547.74,97.28c.92.61,1.42.67,1.57.44s-.1-.67-1-1.27-2.58-1.42-2.73-1.19S546.81,96.68,547.74,97.28Z"/><path class="cls-22" d="M602.49,96.84c1.31-.6,1.72-1.11,1.58-1.43s-.8-.35-2.12.26-3.36,1.86-3.21,2.18S601.18,97.44,602.49,96.84Z"/><path class="cls-22" d="M608.71,90.43c1.15-.87,1.44-1.45,1.22-1.74s-.85-.16-2,.71-2.88,2.54-2.67,2.83S607.55,91.31,608.71,90.43Z"/><path class="cls-22" d="M575.79,105.47c1.92.11,2.71-.23,2.74-.7s-.72-.91-2.63-1-5.11.08-5.14.55S573.88,105.35,575.79,105.47Z"/><path class="cls-22" d="M594.47,102.72c1.64-.67,2.17-1.26,2-1.67s-1-.46-2.6.21-4.21,2.1-4,2.5S592.83,103.39,594.47,102.72Z"/><path class="cls-22" d="M542.79,91.71c1.49,1,2.28,1.05,2.52.68s-.17-1-1.66-2-4.14-2.25-4.37-1.88S541.3,90.75,542.79,91.71Z"/><path class="cls-22" d="M530.94,82.51c1.09.71,1.72.69,2,.32s0-1-1.1-1.65-3.07-1.56-3.31-1.19S529.86,81.81,530.94,82.51Z"/><path class="cls-22" d="M522,77.65c1.1.69,1.73.66,2,.29s0-1-1.13-1.63-3.1-1.51-3.33-1.14S520.87,77,522,77.65Z"/><path class="cls-22" d="M512.4,70.31c.82.4,1.27.34,1.4.06s-.09-.67-.91-1.07-2.3-.84-2.43-.55S511.58,69.91,512.4,70.31Z"/><path class="cls-22" d="M584.45,107.54c.91-.09,1.26-.38,1.22-.69s-.42-.52-1.33-.43-2.4.49-2.37.8S583.54,107.63,584.45,107.54Z"/><path class="cls-22" d="M593,99.62c.86-.33,1.11-.7,1-1s-.54-.39-1.4-.06-2.18,1.1-2.08,1.38S592.14,99.94,593,99.62Z"/><path class="cls-22" d="M568.35,101.25c.89.22,1.31.07,1.39-.23s-.22-.64-1.11-.86-2.42-.35-2.5,0S567.46,101,568.35,101.25Z"/><path class="cls-22" d="M567.84,107.08c1.5.38,2.21.12,2.34-.39s-.38-1.08-1.88-1.45-4.09-.6-4.21-.09S566.34,106.7,567.84,107.08Z"/><path class="cls-22" d="M552.74,95.74c.74.54,1.19.55,1.37.29s0-.67-.72-1.2-2.13-1.21-2.31-1S552,95.21,552.74,95.74Z"/><path class="cls-22" d="M535.53,87.33c.74.53,1.19.54,1.37.29s0-.67-.72-1.21-2.12-1.2-2.3-1S534.78,86.8,535.53,87.33Z"/><path class="cls-22" d="M502.25,59.92c.66.64,1.11.71,1.32.49s.13-.66-.54-1.3-1.92-1.51-2.14-1.28S501.59,59.28,502.25,59.92Z"/><path class="cls-22" d="M508.34,66.37c.74.54,1.19.55,1.37.3s0-.68-.72-1.21-2.13-1.21-2.3-1S507.59,65.84,508.34,66.37Z"/><path class="cls-30" d="M1067.94,44.35c-.26-6.19-6.33-11-13.57-10.66s-12.89,5.56-12.63,11.75,6.33,11,13.56,10.65S1068.19,50.53,1067.94,44.35Z"/><path class="cls-31" d="M1061.79,50.52c-2.68-13.36-14.67-22.23-26.77-19.8S1015.29,46,1018,59.34s14.68,22.23,26.78,19.79S1064.48,63.89,1061.79,50.52Z"/><path class="cls-30" d="M994.37,90.54c-.32-7.57-6.44-13.46-13.67-13.16s-12.85,6.68-12.53,14.25,6.43,13.46,13.66,13.16S994.68,98.11,994.37,90.54Z"/><path class="cls-31" d="M1019.61,83.37c-2.18-10.83-12.33-17.92-22.68-15.84s-17,12.55-14.79,23.38,12.33,17.92,22.68,15.84S1021.79,94.2,1019.61,83.37Z"/><path class="cls-31" d="M1046.5,71.15c-2.18-10.82-12.33-17.92-22.68-15.84s-17,12.55-14.79,23.38,12.33,17.92,22.68,15.84S1048.68,82,1046.5,71.15Z"/><path class="cls-32" d="M1000.26,97.19a4.48,4.48,0,1,0-3.51,5.27A4.47,4.47,0,0,0,1000.26,97.19Z"/><path class="cls-33" d="M1039.81,110.24c-.72-1.23-8.76-11.51-19.45-14.79-5.64-1.73-7.59-1.43-20.15-4.19l11.52-11.51S1024.67,88,1027.92,84c2-2.46-10.36-20.09-10.36-20.09s7.82-4.76,9.38-5.6c0,0,8.22,19.18,12.75,17.8,3.3-1-1.48-23.56-1.48-23.56l8.55-1.5a77.79,77.79,0,0,0,2.14,20.32c3,11.41,11.58,21.42,12.31,22.66,1.25,2.12-2.52,7.47-8.43,11.93S1041.07,112.37,1039.81,110.24Z"/><path class="cls-31" d="M1039.81,110.24c-1.25-2.12,2.53-7.47,8.44-11.93s11.71-6.37,13-4.24-2.52,7.47-8.43,11.93S1041.07,112.37,1039.81,110.24Z"/><path class="cls-32" d="M1042.13,108.25c-.57-.81.66-3,2.76-5s4.27-2.86,4.84-2.05-.65,3.05-2.75,5S1042.71,109.07,1042.13,108.25Z"/><path class="cls-34" d="M1038.14,17.47A17.65,17.65,0,0,0,1027.59,24a17.72,17.72,0,0,0-18.41-7.79c-8,1.61-12.91,8.32-13.34,16.08a16.7,16.7,0,0,0-12.66-2.73c-9.94,2-16.08,13.19-13.71,25a25.45,25.45,0,0,0,2.7,7.36,19.21,19.21,0,1,0,15.91,28.73,19.19,19.19,0,0,0,17.56,5.44c9.89-2,16.51-13.29,15.34-23.34a24.32,24.32,0,0,0,2.77-.4c11-2.22,18.59-11,17.28-19.79a17.73,17.73,0,1,0-2.89-35.1Z"/><path class="cls-32" d="M1030.74,26.1a17.91,17.91,0,0,0-9.12,5.3c-3.2-4.61-8.29-8.14-14.61-6.87-4.81,1-8.74,4.65-9.22,10.74-4.25-3-7.73-3.93-12.78-2.72C972.67,35.49,969.59,47,971.44,56.2a18.1,18.1,0,0,0,2.2,5.72,18.55,18.55,0,0,0-3.9.35c-8.93,1.8-14.85,9.84-13.22,18s10.2,13.24,19.13,11.45a17.18,17.18,0,0,0,11.16-7.49,17,17,0,0,0,15,4c8.48-1.71,14.31-10.67,13.47-18.53.78-.07,1.55-.29,2.37-.35,12.92-.84,23.49-13.22,15.56-21.52-7.39,2.85-13.2-3.07-11.91.88s29.53,2.6,26.45-14.3C1046.09,25.55,1037,24.36,1030.74,26.1Z"/><path class="cls-35" d="M1047.35,41.06a17.7,17.7,0,0,0-15.71,6.84,17.74,17.74,0,0,0-18.41-7.79c-8,1.6-12.92,8.32-13.34,16.08a16.71,16.71,0,0,0-12.66-2.73c-10,2-16.09,13.18-13.71,25a25.16,25.16,0,0,0,2.7,7.36,19.2,19.2,0,0,0-12.44,3.93,17.64,17.64,0,0,0,23.28-5.58,16.92,16.92,0,0,0,14.94,4c8.49-1.71,14.31-10.67,13.47-18.52.78-.08,1.56-.3,2.37-.36,11.94-.77,21.86-11.4,17.06-19.56C1040.15,48.49,1045.38,45.79,1047.35,41.06Z"/><path class="cls-36" d="M978.72,75.44A10.62,10.62,0,1,0,970.41,88,10.61,10.61,0,0,0,978.72,75.44Z"/><path class="cls-36" d="M1014.66,36a6.53,6.53,0,1,0-5.12,7.69A6.53,6.53,0,0,0,1014.66,36Z"/><path class="cls-32" d="M996.1,79A2.71,2.71,0,1,0,994,82.17,2.71,2.71,0,0,0,996.1,79Z"/><path class="cls-32" d="M1002.93,80.37a1.72,1.72,0,1,0-1.35,2A1.73,1.73,0,0,0,1002.93,80.37Z"/><path class="cls-31" d="M992.74,38.41a1.72,1.72,0,1,0-3.37.68,1.72,1.72,0,0,0,3.37-.68Z"/><path class="cls-31" d="M1044.14,36.7a1.72,1.72,0,1,0-1.35,2A1.73,1.73,0,0,0,1044.14,36.7Z"/><path class="cls-34" d="M1056.38,51.43a1.72,1.72,0,1,0-1.35,2A1.72,1.72,0,0,0,1056.38,51.43Z"/><path class="cls-32" d="M1049.81,23.74a1.72,1.72,0,1,0-1.35,2A1.72,1.72,0,0,0,1049.81,23.74Z"/><path class="cls-32" d="M1007.52,102a1.72,1.72,0,0,0-3.37.68,1.72,1.72,0,1,0,3.37-.68Z"/><path class="cls-32" d="M1054.06,26.08a.7.7,0,0,0-.83-.55.69.69,0,0,0-.55.82.7.7,0,0,0,.83.55A.69.69,0,0,0,1054.06,26.08Z"/><path class="cls-35" d="M1023.28,25.36a.7.7,0,1,0-.55.82A.69.69,0,0,0,1023.28,25.36Z"/><path class="cls-34" d="M1057.42,57.7a.7.7,0,1,0-.55.83A.71.71,0,0,0,1057.42,57.7Z"/><path class="cls-32" d="M981.52,67A1.33,1.33,0,0,0,980,66a1.31,1.31,0,1,0,1.55,1Z"/><path class="cls-37" d="M988.89,94.77a.71.71,0,0,0-1.39.28.7.7,0,0,0,.83.55A.71.71,0,0,0,988.89,94.77Z"/><path class="cls-31" d="M987.24,48.63a1.28,1.28,0,1,0-1,1.51A1.28,1.28,0,0,0,987.24,48.63Z"/><path class="cls-31" d="M1033.78,40.88a1.28,1.28,0,1,0-2.51.51,1.27,1.27,0,0,0,1.5,1A1.28,1.28,0,0,0,1033.78,40.88Z"/><path class="cls-35" d="M1018.85,22.18a1.29,1.29,0,1,0-1.4,1.16A1.29,1.29,0,0,0,1018.85,22.18Z"/><path class="cls-33" d="M1054.2,39.08a1.28,1.28,0,1,0-1,1.51A1.28,1.28,0,0,0,1054.2,39.08Z"/><path class="cls-31" d="M985.88,39.79a3.12,3.12,0,1,0-2.44,3.68A3.12,3.12,0,0,0,985.88,39.79Z"/><path class="cls-31" d="M1038.08,30.11a3.12,3.12,0,1,0-2.44,3.68A3.12,3.12,0,0,0,1038.08,30.11Z"/><path class="cls-33" d="M1056,31.5a3.13,3.13,0,1,0-2.45,3.68A3.12,3.12,0,0,0,1056,31.5Z"/><path class="cls-33" d="M1024,49.25a3.12,3.12,0,1,0-2.44,3.67A3.11,3.11,0,0,0,1024,49.25Z"/><path class="cls-34" d="M1055.91,64.91a3.12,3.12,0,1,0-2.45,3.68A3.13,3.13,0,0,0,1055.91,64.91Z"/><path class="cls-38" d="M393.7,70.93C388.35,90.76,373,121,329,108.53c-48-13.59-55-50.83-49.59-70.65C285.28,16.16,324,11,354.8,19.31S399.05,51.1,393.7,70.93Z"/><path class="cls-39" d="M393.7,70.93c-5.35,19.83-31,33.91-61.77,25.6S274,57.7,279.39,37.88C285.28,16.16,324,11,354.8,19.31S399.05,51.1,393.7,70.93Z"/><path class="cls-20" d="M286.35,44.34c6.1-22.49,44.95-28.16,75.76-19.85A66,66,0,0,1,379.81,32a63.35,63.35,0,0,0-25-12.72C324,11,285.28,16.16,279.39,37.88c-3,11.17,4.27,25.75,16.72,37.82C288,65.13,283.84,53.63,286.35,44.34Z"/><path class="cls-40" d="M382.46,58.19c-2.69,14.4-11.7,24.22-38.53,22.52-21.51-1.35-32.16-20.82-29.48-35.22s20.1-23.22,38.88-19.72S385.15,43.8,382.46,58.19Z"/><path class="cls-41" d="M377.72,40.13a21.52,21.52,0,0,1,1.36,12.2c-2.7,14.39-11.71,24.21-38.54,22.52a31.3,31.3,0,0,1-23.69-12.57,31.24,31.24,0,0,0,27.31,18.81C371,82.79,380,73,382.7,58.57,383.9,52.11,382,45.64,377.72,40.13Z"/><path class="cls-42" d="M351.37,34.89c2,5.38-4,12.62-13.41,16.15s-18.7,2-20.72-3.35,4-12.62,13.41-16.16S349.35,29.5,351.37,34.89Z"/></g></g></svg>