<svg xmlns="http://www.w3.org/2000/svg" xmlns:xlink="http://www.w3.org/1999/xlink" viewBox="0 0 1347.53 838"><defs><style>.cls-1{fill:#f5e4e3;}.cls-2{fill:#e5cdc5;}.cls-3{fill:#ec9091;opacity:0.5;}.cls-4{fill:#993147;}.cls-5,.cls-85{fill:none;stroke-miterlimit:10;}.cls-5{stroke:#993147;}.cls-6{fill:#c5a0a4;}.cls-7{fill:#595c7f;}.cls-8{fill:#838aa3;}.cls-9{fill:#bbc1d2;opacity:0.4;}.cls-10{fill:#58486c;}.cls-11{fill:#443757;}.cls-12{fill:#868ca7;opacity:0.6;}.cls-13{fill:#9da4ba;}.cls-14{fill:#1a1a1a;}.cls-15{fill:#bebebe;}.cls-16{fill:#ead8d4;}.cls-17{fill:#fff0e9;}.cls-18{fill:#df4561;}.cls-19{fill:#8c374b;}.cls-19,.cls-21,.cls-47{opacity:0.2;}.cls-20{fill:#cd465a;}.cls-21{fill:#f4c4ab;}.cls-22{fill:#dec4c2;}.cls-23{fill:#d1aeaf;}.cls-24{fill:#be999d;}.cls-25{fill:#e0c3c2;}.cls-26{fill:#b74145;}.cls-27{fill:#e08778;}.cls-28{fill:#d5806f;}.cls-29{fill:#dfc2c2;}.cls-30{fill:#ef5b49;}.cls-31{fill:#be492c;}.cls-32{fill:#c93a3a;}.cls-33{fill:#f3a740;}.cls-34,.cls-47{fill:#fff;}.cls-34,.cls-49,.cls-53,.cls-55,.cls-57{opacity:0.3;}.cls-35{fill:#535872;}.cls-36{fill:#9a2945;}.cls-37{fill:#464b6a;}.cls-38{fill:#404663;}.cls-39{fill:#d26c6e;}.cls-40{fill:#b8404b;}.cls-41{fill:#b5404b;}.cls-42{fill:#b34e5a;}.cls-43{fill:#8b3549;}.cls-44{fill:#512343;}.cls-45{fill:#802f49;}.cls-46{fill:#d9777f;}.cls-48{fill:#98a0b1;}.cls-49{fill:#c2c6d0;}.cls-50{fill:#aec5e1;}.cls-51{fill:#6380d1;}.cls-52{fill:#5b5a75;}.cls-53{fill:#bbc1d3;}.cls-54{fill:#4a61a8;}.cls-55{fill:#d8e7f0;}.cls-56{fill:#a6c6eb;}.cls-57{fill:#d7e7ef;}.cls-58{fill:#d86a6e;}.cls-59{fill:#4d2541;}.cls-60{fill:#414664;}.cls-61{fill:#b6bbcf;}.cls-62{fill:#565b79;}.cls-63{fill:#fff7f0;}.cls-64{fill:#99a0b6;}.cls-65{fill:url(#linear-gradient);}.cls-66{fill:#3b5640;}.cls-67{fill:url(#linear-gradient-2);}.cls-68{fill:url(#linear-gradient-3);}.cls-69{fill:url(#linear-gradient-4);}.cls-70{fill:url(#linear-gradient-5);}.cls-71{fill:#3d9c6f;}.cls-72{fill:#d6363c;}.cls-73{fill:#dc483f;}.cls-74{fill:#3b946d;}.cls-75{fill:#39956c;}.cls-76{fill:#a3b67c;}.cls-77{fill:#738655;}.cls-78{fill:#678051;}.cls-79{fill:#c64151;}.cls-80{fill:#9c2a47;}.cls-81{fill:#e04e5f;}.cls-82{fill:#e7565c;}.cls-83{fill:#f0cdd0;}.cls-84{fill:#8c9f67;}.cls-85{stroke:#541f44;}.cls-86{fill:#541f44;}</style><linearGradient id="linear-gradient" x1="302.41" y1="516.11" x2="314.35" y2="329.8" gradientTransform="translate(321.42 59.31) rotate(29.98)" gradientUnits="userSpaceOnUse"><stop offset="0" stop-color="#fff"/><stop offset="1" stop-color="#28917f"/></linearGradient><linearGradient id="linear-gradient-2" x1="253.91" y1="530.82" x2="305.87" y2="357.63" gradientTransform="translate(313.33 66.1) rotate(28.91)" xlink:href="#linear-gradient"/><linearGradient id="linear-gradient-3" x1="261.39" y1="540.91" x2="273.34" y2="354.61" xlink:href="#linear-gradient"/><linearGradient id="linear-gradient-4" x1="309.33" y1="548.69" x2="338.59" y2="414.33" xlink:href="#linear-gradient"/><linearGradient id="linear-gradient-5" x1="274.44" y1="614.61" x2="253.54" y2="405.62" xlink:href="#linear-gradient"/></defs><g id="Layer_1" data-name="Layer 1"><rect class="cls-1" width="1347.53" height="838"/><rect class="cls-2" y="575.02" width="1347.53" height="262.98"/></g><g id="Layer_2" data-name="Layer 2"><polygon class="cls-3" points="1196.68 617.82 73.51 527.89 394.54 49.76 1125.07 131.87 1196.68 617.82"/><path class="cls-4" d="M872.14,416.65a8.25,8.25,0,1,1-9.32-7A8.24,8.24,0,0,1,872.14,416.65Z" transform="translate(0.26)"/><path class="cls-4" d="M837.14,391a8.25,8.25,0,1,1-9.31-7A8.24,8.24,0,0,1,837.14,391Z" transform="translate(0.26)"/><path class="cls-4" d="M898.57,381.54a8.25,8.25,0,1,1-9.32-7A8.26,8.26,0,0,1,898.57,381.54Z" transform="translate(0.26)"/><path class="cls-4" d="M863.46,355.11a8.24,8.24,0,1,1-9.31-7A8.23,8.23,0,0,1,863.46,355.11Z" transform="translate(0.26)"/><path class="cls-4" d="M828.47,329.46a8.25,8.25,0,1,1-9.32-7A8.24,8.24,0,0,1,828.47,329.46Z" transform="translate(0.26)"/><path class="cls-4" d="M889.89,320a8.24,8.24,0,1,1-9.31-7A8.24,8.24,0,0,1,889.89,320Z" transform="translate(0.26)"/><path class="cls-4" d="M845.71,451.76a8.25,8.25,0,1,1-9.32-7A8.25,8.25,0,0,1,845.71,451.76Z" transform="translate(0.26)"/><path class="cls-4" d="M907.24,443.08a8.24,8.24,0,1,1-9.31-7A8.25,8.25,0,0,1,907.24,443.08Z" transform="translate(0.26)"/><path class="cls-4" d="M933.67,408a8.24,8.24,0,1,1-9.31-7A8.24,8.24,0,0,1,933.67,408Z" transform="translate(0.26)"/><path class="cls-4" d="M960.11,372.87a8.25,8.25,0,1,1-9.32-7A8.24,8.24,0,0,1,960.11,372.87Z" transform="translate(0.26)"/><path class="cls-4" d="M925,346.44a8.24,8.24,0,1,1-9.31-7A8.23,8.23,0,0,1,925,346.44Z" transform="translate(0.26)"/><path class="cls-4" d="M951.43,311.33a8.25,8.25,0,1,1-9.31-7A8.25,8.25,0,0,1,951.43,311.33Z" transform="translate(0.26)"/><path class="cls-4" d="M968.78,434.41a8.25,8.25,0,1,1-9.31-7A8.24,8.24,0,0,1,968.78,434.41Z" transform="translate(0.26)"/><path class="cls-4" d="M880.81,478.19a8.25,8.25,0,1,1-9.31-7A8.24,8.24,0,0,1,880.81,478.19Z" transform="translate(0.26)"/><path class="cls-4" d="M854.38,513.29a8.25,8.25,0,1,1-9.32-7A8.25,8.25,0,0,1,854.38,513.29Z" transform="translate(0.26)"/><path class="cls-4" d="M915.92,504.62a8.25,8.25,0,1,1-9.32-7A8.26,8.26,0,0,1,915.92,504.62Z" transform="translate(0.26)"/><path class="cls-4" d="M942.35,469.51a8.25,8.25,0,1,1-9.32-7A8.25,8.25,0,0,1,942.35,469.51Z" transform="translate(0.26)"/><path class="cls-4" d="M749.06,434a8.25,8.25,0,1,1-9.31-7A8.23,8.23,0,0,1,749.06,434Z" transform="translate(0.26)"/><path class="cls-4" d="M714.06,408.34a8.24,8.24,0,1,1-9.31-7A8.24,8.24,0,0,1,714.06,408.34Z" transform="translate(0.26)"/><path class="cls-4" d="M775.49,398.89a8.24,8.24,0,1,1-9.31-7A8.25,8.25,0,0,1,775.49,398.89Z" transform="translate(0.26)"/><path class="cls-4" d="M740.39,372.46a8.25,8.25,0,1,1-9.32-7A8.24,8.24,0,0,1,740.39,372.46Z" transform="translate(0.26)"/><path class="cls-4" d="M705.39,346.81a8.25,8.25,0,1,1-9.31-7A8.24,8.24,0,0,1,705.39,346.81Z" transform="translate(0.26)"/><path class="cls-4" d="M766.82,337.35a8.25,8.25,0,1,1-9.31-7A8.25,8.25,0,0,1,766.82,337.35Z" transform="translate(0.26)"/><path class="cls-4" d="M722.63,469.1a8.25,8.25,0,1,1-9.32-7A8.25,8.25,0,0,1,722.63,469.1Z" transform="translate(0.26)"/><path class="cls-4" d="M784.17,460.43a8.25,8.25,0,1,1-9.32-7A8.26,8.26,0,0,1,784.17,460.43Z" transform="translate(0.26)"/><path class="cls-4" d="M810.6,425.32a8.25,8.25,0,1,1-9.32-7A8.25,8.25,0,0,1,810.6,425.32Z" transform="translate(0.26)"/><path class="cls-4" d="M801.92,363.79a8.24,8.24,0,1,1-9.31-7A8.24,8.24,0,0,1,801.92,363.79Z" transform="translate(0.26)"/><path class="cls-4" d="M757.74,495.54a8.25,8.25,0,1,1-9.32-7A8.25,8.25,0,0,1,757.74,495.54Z" transform="translate(0.26)"/><path class="cls-4" d="M731.3,530.64a8.24,8.24,0,1,1-9.31-7A8.25,8.25,0,0,1,731.3,530.64Z" transform="translate(0.26)"/><path class="cls-4" d="M792.84,522a8.25,8.25,0,1,1-9.31-7A8.23,8.23,0,0,1,792.84,522Z" transform="translate(0.26)"/><path class="cls-4" d="M819.27,486.86a8.24,8.24,0,1,1-9.31-7A8.25,8.25,0,0,1,819.27,486.86Z" transform="translate(0.26)"/><path class="cls-4" d="M846.12,232a8.25,8.25,0,1,1-9.32-7A8.26,8.26,0,0,1,846.12,232Z" transform="translate(0.26)"/><path class="cls-4" d="M811.12,206.38a8.25,8.25,0,1,1-9.31-7A8.25,8.25,0,0,1,811.12,206.38Z" transform="translate(0.26)"/><path class="cls-4" d="M872.55,196.93a8.25,8.25,0,1,1-9.32-7A8.24,8.24,0,0,1,872.55,196.93Z" transform="translate(0.26)"/><path class="cls-4" d="M837.44,170.5a8.25,8.25,0,1,1-9.31-7A8.23,8.23,0,0,1,837.44,170.5Z" transform="translate(0.26)"/><path class="cls-4" d="M802.44,144.85a8.24,8.24,0,1,1-9.31-7A8.24,8.24,0,0,1,802.44,144.85Z" transform="translate(0.26)"/><path class="cls-4" d="M863.87,135.39a8.24,8.24,0,1,1-9.31-7A8.25,8.25,0,0,1,863.87,135.39Z" transform="translate(0.26)"/><path class="cls-4" d="M819.68,267.14a8.24,8.24,0,1,1-9.31-7A8.25,8.25,0,0,1,819.68,267.14Z" transform="translate(0.26)"/><path class="cls-4" d="M881.22,258.47a8.25,8.25,0,1,1-9.31-7A8.23,8.23,0,0,1,881.22,258.47Z" transform="translate(0.26)"/><path class="cls-4" d="M907.65,223.36a8.24,8.24,0,1,1-9.31-7A8.25,8.25,0,0,1,907.65,223.36Z" transform="translate(0.26)"/><path class="cls-4" d="M934.08,188.26a8.24,8.24,0,1,1-9.31-7A8.24,8.24,0,0,1,934.08,188.26Z" transform="translate(0.26)"/><path class="cls-4" d="M899,161.82a8.25,8.25,0,1,1-9.31-7A8.25,8.25,0,0,1,899,161.82Z" transform="translate(0.26)"/><path class="cls-4" d="M925.41,126.72a8.25,8.25,0,1,1-9.31-7A8.23,8.23,0,0,1,925.41,126.72Z" transform="translate(0.26)"/><path class="cls-4" d="M942.76,249.8a8.25,8.25,0,1,1-9.31-7A8.26,8.26,0,0,1,942.76,249.8Z" transform="translate(0.26)"/><path class="cls-4" d="M854.79,293.57a8.25,8.25,0,1,1-9.31-7A8.26,8.26,0,0,1,854.79,293.57Z" transform="translate(0.26)"/><path class="cls-4" d="M916.33,284.9a8.25,8.25,0,1,1-9.32-7A8.26,8.26,0,0,1,916.33,284.9Z" transform="translate(0.26)"/><path class="cls-4" d="M723,249.38a8.25,8.25,0,1,1-9.31-7A8.26,8.26,0,0,1,723,249.38Z" transform="translate(0.26)"/><path class="cls-4" d="M688,223.73a8.24,8.24,0,1,1-9.31-7A8.23,8.23,0,0,1,688,223.73Z" transform="translate(0.26)"/><path class="cls-4" d="M749.47,214.28a8.25,8.25,0,1,1-9.31-7A8.24,8.24,0,0,1,749.47,214.28Z" transform="translate(0.26)"/><path class="cls-4" d="M714.36,187.84a8.24,8.24,0,1,1-9.31-7A8.25,8.25,0,0,1,714.36,187.84Z" transform="translate(0.26)"/><path class="cls-4" d="M679.37,162.19a8.25,8.25,0,1,1-9.32-7A8.25,8.25,0,0,1,679.37,162.19Z" transform="translate(0.26)"/><path class="cls-4" d="M740.8,152.74a8.25,8.25,0,1,1-9.32-7A8.24,8.24,0,0,1,740.8,152.74Z" transform="translate(0.26)"/><path class="cls-4" d="M696.61,284.49a8.25,8.25,0,1,1-9.32-7A8.24,8.24,0,0,1,696.61,284.49Z" transform="translate(0.26)"/><path class="cls-4" d="M758.14,275.82a8.24,8.24,0,1,1-9.31-7A8.24,8.24,0,0,1,758.14,275.82Z" transform="translate(0.26)"/><path class="cls-4" d="M784.58,240.71a8.25,8.25,0,1,1-9.32-7A8.24,8.24,0,0,1,784.58,240.71Z" transform="translate(0.26)"/><path class="cls-4" d="M775.91,179.17a8.25,8.25,0,1,1-9.32-7A8.26,8.26,0,0,1,775.91,179.17Z" transform="translate(0.26)"/><path class="cls-4" d="M731.71,310.92a8.24,8.24,0,1,1-9.31-7A8.25,8.25,0,0,1,731.71,310.92Z" transform="translate(0.26)"/><path class="cls-4" d="M793.25,302.25a8.24,8.24,0,1,1-9.31-7A8.23,8.23,0,0,1,793.25,302.25Z" transform="translate(0.26)"/><path class="cls-4" d="M977.46,496a8.25,8.25,0,1,1-9.32-7A8.25,8.25,0,0,1,977.46,496Z" transform="translate(0.26)"/><path class="cls-4" d="M1056.75,390.63a8.24,8.24,0,1,1-9.31-7A8.24,8.24,0,0,1,1056.75,390.63Z" transform="translate(0.26)"/><path class="cls-4" d="M1021.76,365a8.25,8.25,0,1,1-9.32-7A8.26,8.26,0,0,1,1021.76,365Z" transform="translate(0.26)"/><path class="cls-4" d="M1083.18,355.52a8.25,8.25,0,1,1-9.31-7A8.25,8.25,0,0,1,1083.18,355.52Z" transform="translate(0.26)"/><path class="cls-4" d="M1048.08,329.09a8.25,8.25,0,1,1-9.32-7A8.24,8.24,0,0,1,1048.08,329.09Z" transform="translate(0.26)"/><path class="cls-4" d="M1013.08,303.44a8.25,8.25,0,1,1-9.31-7A8.24,8.24,0,0,1,1013.08,303.44Z" transform="translate(0.26)"/><path class="cls-4" d="M1074.51,294a8.25,8.25,0,1,1-9.32-7A8.26,8.26,0,0,1,1074.51,294Z" transform="translate(0.26)"/><path class="cls-4" d="M1030.32,425.73a8.25,8.25,0,1,1-9.32-7A8.26,8.26,0,0,1,1030.32,425.73Z" transform="translate(0.26)"/><path class="cls-4" d="M1091.86,417.06a8.25,8.25,0,1,1-9.32-7A8.24,8.24,0,0,1,1091.86,417.06Z" transform="translate(0.26)"/><path class="cls-4" d="M1118.29,382a8.25,8.25,0,1,1-9.31-7A8.26,8.26,0,0,1,1118.29,382Z" transform="translate(0.26)"/><path class="cls-4" d="M1144.72,346.85a8.25,8.25,0,1,1-9.31-7A8.24,8.24,0,0,1,1144.72,346.85Z" transform="translate(0.26)"/><path class="cls-4" d="M1109.61,320.42a8.24,8.24,0,1,1-9.31-7A8.24,8.24,0,0,1,1109.61,320.42Z" transform="translate(0.26)"/><path class="cls-4" d="M1136.05,285.31a8.25,8.25,0,1,1-9.32-7A8.24,8.24,0,0,1,1136.05,285.31Z" transform="translate(0.26)"/><path class="cls-4" d="M1153.39,408.39a8.24,8.24,0,1,1-9.31-7A8.24,8.24,0,0,1,1153.39,408.39Z" transform="translate(0.26)"/><path class="cls-4" d="M1065.42,452.17a8.24,8.24,0,1,1-9.31-7A8.24,8.24,0,0,1,1065.42,452.17Z" transform="translate(0.26)"/><path class="cls-4" d="M1039,487.27a8.25,8.25,0,1,1-9.31-7A8.25,8.25,0,0,1,1039,487.27Z" transform="translate(0.26)"/><path class="cls-4" d="M1100.53,478.6a8.25,8.25,0,1,1-9.31-7A8.23,8.23,0,0,1,1100.53,478.6Z" transform="translate(0.26)"/><path class="cls-4" d="M1127,443.49a8.24,8.24,0,1,1-9.31-7A8.25,8.25,0,0,1,1127,443.49Z" transform="translate(0.26)"/><path class="cls-4" d="M995.21,399.3a8.24,8.24,0,1,1-9.31-7A8.25,8.25,0,0,1,995.21,399.3Z" transform="translate(0.26)"/><path class="cls-4" d="M986.54,337.76a8.25,8.25,0,1,1-9.31-7A8.26,8.26,0,0,1,986.54,337.76Z" transform="translate(0.26)"/><path class="cls-4" d="M1003.88,460.84a8.24,8.24,0,1,1-9.31-7A8.25,8.25,0,0,1,1003.88,460.84Z" transform="translate(0.26)"/><path class="cls-4" d="M1030.73,206a8.25,8.25,0,1,1-9.31-7A8.26,8.26,0,0,1,1030.73,206Z" transform="translate(0.26)"/><path class="cls-4" d="M995.73,180.36a8.24,8.24,0,1,1-9.31-7A8.25,8.25,0,0,1,995.73,180.36Z" transform="translate(0.26)"/><path class="cls-4" d="M1057.16,170.91a8.25,8.25,0,1,1-9.31-7A8.23,8.23,0,0,1,1057.16,170.91Z" transform="translate(0.26)"/><path class="cls-4" d="M1022.05,144.48a8.24,8.24,0,1,1-9.31-7A8.24,8.24,0,0,1,1022.05,144.48Z" transform="translate(0.26)"/><path class="cls-4" d="M987.06,118.82a8.25,8.25,0,1,1-9.31-7A8.25,8.25,0,0,1,987.06,118.82Z" transform="translate(0.26)"/><path class="cls-4" d="M1048.49,109.37a8.25,8.25,0,1,1-9.32-7A8.24,8.24,0,0,1,1048.49,109.37Z" transform="translate(0.26)"/><path class="cls-4" d="M1004.3,241.12a8.25,8.25,0,1,1-9.32-7A8.24,8.24,0,0,1,1004.3,241.12Z" transform="translate(0.26)"/><path class="cls-4" d="M1065.83,232.45a8.24,8.24,0,1,1-9.31-7A8.24,8.24,0,0,1,1065.83,232.45Z" transform="translate(0.26)"/><path class="cls-4" d="M1092.27,197.34a8.25,8.25,0,1,1-9.32-7A8.24,8.24,0,0,1,1092.27,197.34Z" transform="translate(0.26)"/><path class="cls-4" d="M1118.7,162.23a8.25,8.25,0,1,1-9.32-7A8.26,8.26,0,0,1,1118.7,162.23Z" transform="translate(0.26)"/><path class="cls-4" d="M1083.59,135.8a8.24,8.24,0,1,1-9.31-7A8.25,8.25,0,0,1,1083.59,135.8Z" transform="translate(0.26)"/><path class="cls-4" d="M1110,100.7a8.24,8.24,0,1,1-9.31-7A8.23,8.23,0,0,1,1110,100.7Z" transform="translate(0.26)"/><path class="cls-4" d="M1127.37,223.77a8.24,8.24,0,1,1-9.31-7A8.25,8.25,0,0,1,1127.37,223.77Z" transform="translate(0.26)"/><path class="cls-4" d="M1039.4,267.55a8.24,8.24,0,1,1-9.31-7A8.25,8.25,0,0,1,1039.4,267.55Z" transform="translate(0.26)"/><path class="cls-4" d="M1100.94,258.88a8.25,8.25,0,1,1-9.31-7A8.23,8.23,0,0,1,1100.94,258.88Z" transform="translate(0.26)"/><path class="cls-4" d="M969.19,214.69a8.24,8.24,0,1,1-9.31-7A8.23,8.23,0,0,1,969.19,214.69Z" transform="translate(0.26)"/><path class="cls-4" d="M960.52,153.15a8.25,8.25,0,1,1-9.32-7A8.26,8.26,0,0,1,960.52,153.15Z" transform="translate(0.26)"/><path class="cls-4" d="M977.87,276.23a8.25,8.25,0,1,1-9.32-7A8.24,8.24,0,0,1,977.87,276.23Z" transform="translate(0.26)"/><path class="cls-4" d="M1162.07,469.92a8.25,8.25,0,1,1-9.31-7A8.26,8.26,0,0,1,1162.07,469.92Z" transform="translate(0.26)"/><path class="cls-4" d="M1179.83,373.28a8.25,8.25,0,1,1-9.32-7A8.24,8.24,0,0,1,1179.83,373.28Z" transform="translate(0.26)"/><path class="cls-4" d="M1206.26,338.17a8.25,8.25,0,1,1-9.32-7A8.26,8.26,0,0,1,1206.26,338.17Z" transform="translate(0.26)"/><path class="cls-4" d="M1171.15,311.74a8.24,8.24,0,1,1-9.31-7A8.23,8.23,0,0,1,1171.15,311.74Z" transform="translate(0.26)"/><path class="cls-4" d="M1197.58,276.63a8.24,8.24,0,1,1-9.31-7A8.24,8.24,0,0,1,1197.58,276.63Z" transform="translate(0.26)"/><path class="cls-4" d="M1214.93,399.71a8.24,8.24,0,1,1-9.31-7A8.23,8.23,0,0,1,1214.93,399.71Z" transform="translate(0.26)"/><path class="cls-4" d="M1241.36,364.61a8.24,8.24,0,1,1-9.31-7A8.23,8.23,0,0,1,1241.36,364.61Z" transform="translate(0.26)"/><path class="cls-4" d="M1267.8,329.5a8.25,8.25,0,1,1-9.32-7A8.24,8.24,0,0,1,1267.8,329.5Z" transform="translate(0.26)"/><path class="cls-4" d="M1232.69,303.07a8.25,8.25,0,1,1-9.31-7A8.23,8.23,0,0,1,1232.69,303.07Z" transform="translate(0.26)"/><path class="cls-4" d="M1259.12,268a8.25,8.25,0,1,1-9.31-7A8.25,8.25,0,0,1,1259.12,268Z" transform="translate(0.26)"/><path class="cls-4" d="M1276.47,391a8.25,8.25,0,1,1-9.31-7A8.24,8.24,0,0,1,1276.47,391Z" transform="translate(0.26)"/><path class="cls-4" d="M1188.5,434.82a8.25,8.25,0,1,1-9.31-7A8.24,8.24,0,0,1,1188.5,434.82Z" transform="translate(0.26)"/><path class="cls-4" d="M1223.61,461.25a8.25,8.25,0,1,1-9.32-7A8.24,8.24,0,0,1,1223.61,461.25Z" transform="translate(0.26)"/><path class="cls-4" d="M1250,426.14a8.25,8.25,0,1,1-9.32-7A8.26,8.26,0,0,1,1250,426.14Z" transform="translate(0.26)"/><path class="cls-4" d="M1153.8,188.67a8.24,8.24,0,1,1-9.31-7A8.23,8.23,0,0,1,1153.8,188.67Z" transform="translate(0.26)"/><path class="cls-4" d="M1180.24,153.56a8.25,8.25,0,1,1-9.32-7A8.26,8.26,0,0,1,1180.24,153.56Z" transform="translate(0.26)"/><path class="cls-4" d="M1145.13,127.13a8.25,8.25,0,1,1-9.31-7A8.24,8.24,0,0,1,1145.13,127.13Z" transform="translate(0.26)"/><path class="cls-4" d="M1171.56,92a8.24,8.24,0,1,1-9.31-7A8.25,8.25,0,0,1,1171.56,92Z" transform="translate(0.26)"/><path class="cls-4" d="M1188.91,215.1a8.25,8.25,0,1,1-9.31-7A8.24,8.24,0,0,1,1188.91,215.1Z" transform="translate(0.26)"/><path class="cls-4" d="M1215.34,180a8.24,8.24,0,1,1-9.31-7A8.25,8.25,0,0,1,1215.34,180Z" transform="translate(0.26)"/><path class="cls-4" d="M1241.77,144.88a8.24,8.24,0,1,1-9.31-7A8.23,8.23,0,0,1,1241.77,144.88Z" transform="translate(0.26)"/><path class="cls-4" d="M1206.67,118.46a8.25,8.25,0,1,1-9.32-7A8.26,8.26,0,0,1,1206.67,118.46Z" transform="translate(0.26)"/><path class="cls-4" d="M1233.1,83.35a8.25,8.25,0,1,1-9.31-7A8.24,8.24,0,0,1,1233.1,83.35Z" transform="translate(0.26)"/><path class="cls-4" d="M1250.45,206.43a8.25,8.25,0,1,1-9.32-7A8.25,8.25,0,0,1,1250.45,206.43Z" transform="translate(0.26)"/><path class="cls-4" d="M1162.48,250.21a8.25,8.25,0,1,1-9.31-7A8.26,8.26,0,0,1,1162.48,250.21Z" transform="translate(0.26)"/><path class="cls-4" d="M1224,241.53a8.24,8.24,0,1,1-9.31-7A8.23,8.23,0,0,1,1224,241.53Z" transform="translate(0.26)"/><path class="cls-4" d="M1285.14,452.58a8.24,8.24,0,1,1-9.31-7A8.24,8.24,0,0,1,1285.14,452.58Z" transform="translate(0.26)"/><path class="cls-4" d="M150.43,471.16a4.3,4.3,0,1,1-3-5.3A4.28,4.28,0,0,1,150.43,471.16Z" transform="translate(0.26)"/><path class="cls-4" d="M139.12,451.58a4.3,4.3,0,1,1-3-5.3A4.29,4.29,0,0,1,139.12,451.58Z" transform="translate(0.26)"/><path class="cls-4" d="M170.41,460a4.29,4.29,0,1,1-3-5.3A4.3,4.3,0,0,1,170.41,460Z" transform="translate(0.26)"/><path class="cls-4" d="M159.21,440a4.3,4.3,0,1,1-3-5.31A4.3,4.3,0,0,1,159.21,440Z" transform="translate(0.26)"/><path class="cls-4" d="M147.91,420.4a4.3,4.3,0,1,1-3-5.3A4.29,4.29,0,0,1,147.91,420.4Z" transform="translate(0.26)"/><path class="cls-4" d="M179.19,428.79a4.3,4.3,0,1,1-3-5.3A4.3,4.3,0,0,1,179.19,428.79Z" transform="translate(0.26)"/><path class="cls-4" d="M130.46,482.36a4.3,4.3,0,1,1-3-5.3A4.3,4.3,0,0,1,130.46,482.36Z" transform="translate(0.26)"/><path class="cls-4" d="M161.63,491.14a4.3,4.3,0,1,1-3-5.3A4.29,4.29,0,0,1,161.63,491.14Z" transform="translate(0.26)"/><path class="cls-4" d="M181.61,479.94a4.3,4.3,0,1,1-3-5.3A4.29,4.29,0,0,1,181.61,479.94Z" transform="translate(0.26)"/><path class="cls-4" d="M201.59,468.74a4.29,4.29,0,1,1-3-5.3A4.3,4.3,0,0,1,201.59,468.74Z" transform="translate(0.26)"/><path class="cls-4" d="M190.39,448.77a4.3,4.3,0,1,1-3-5.3A4.3,4.3,0,0,1,190.39,448.77Z" transform="translate(0.26)"/><path class="cls-4" d="M210.37,437.57a4.3,4.3,0,1,1-3-5.3A4.3,4.3,0,0,1,210.37,437.57Z" transform="translate(0.26)"/><path class="cls-4" d="M192.81,499.92a4.3,4.3,0,1,1-3-5.3A4.29,4.29,0,0,1,192.81,499.92Z" transform="translate(0.26)"/><path class="cls-4" d="M141.65,502.34a4.3,4.3,0,1,1-3-5.3A4.3,4.3,0,0,1,141.65,502.34Z" transform="translate(0.26)"/><path class="cls-4" d="M121.68,513.54a4.3,4.3,0,1,1-3-5.3A4.31,4.31,0,0,1,121.68,513.54Z" transform="translate(0.26)"/><path class="cls-4" d="M152.85,522.32a4.3,4.3,0,1,1-3-5.3A4.3,4.3,0,0,1,152.85,522.32Z" transform="translate(0.26)"/><path class="cls-4" d="M172.83,511.12a4.3,4.3,0,1,1-3-5.3A4.3,4.3,0,0,1,172.83,511.12Z" transform="translate(0.26)"/><path class="cls-4" d="M88.08,453.6a4.3,4.3,0,1,1-3-5.3A4.28,4.28,0,0,1,88.08,453.6Z" transform="translate(0.26)"/><path class="cls-4" d="M76.77,434a4.3,4.3,0,1,1-3-5.3A4.3,4.3,0,0,1,76.77,434Z" transform="translate(0.26)"/><path class="cls-4" d="M108.06,442.4a4.3,4.3,0,1,1-3-5.3A4.3,4.3,0,0,1,108.06,442.4Z" transform="translate(0.26)"/><path class="cls-4" d="M96.86,422.43a4.3,4.3,0,1,1-3-5.31A4.3,4.3,0,0,1,96.86,422.43Z" transform="translate(0.26)"/><path class="cls-4" d="M85.55,402.84a4.3,4.3,0,1,1-3-5.3A4.29,4.29,0,0,1,85.55,402.84Z" transform="translate(0.26)"/><path class="cls-4" d="M116.84,411.23a4.3,4.3,0,1,1-3-5.3A4.3,4.3,0,0,1,116.84,411.23Z" transform="translate(0.26)"/><path class="cls-4" d="M68.1,464.8a4.3,4.3,0,1,1-3-5.3A4.3,4.3,0,0,1,68.1,464.8Z" transform="translate(0.26)"/><path class="cls-4" d="M99.28,473.58a4.3,4.3,0,1,1-3-5.3A4.3,4.3,0,0,1,99.28,473.58Z" transform="translate(0.26)"/><path class="cls-4" d="M119.26,462.38a4.3,4.3,0,1,1-3-5.3A4.29,4.29,0,0,1,119.26,462.38Z" transform="translate(0.26)"/><path class="cls-4" d="M128,431.2a4.29,4.29,0,1,1-3-5.29A4.29,4.29,0,0,1,128,431.2Z" transform="translate(0.26)"/><path class="cls-4" d="M79.3,484.78a4.3,4.3,0,1,1-3-5.3A4.3,4.3,0,0,1,79.3,484.78Z" transform="translate(0.26)"/><path class="cls-4" d="M59.32,496a4.3,4.3,0,1,1-3-5.3A4.3,4.3,0,0,1,59.32,496Z" transform="translate(0.26)"/><path class="cls-4" d="M90.5,504.76a4.3,4.3,0,1,1-3-5.3A4.3,4.3,0,0,1,90.5,504.76Z" transform="translate(0.26)"/><path class="cls-4" d="M110.48,493.56a4.3,4.3,0,1,1-3-5.3A4.31,4.31,0,0,1,110.48,493.56Z" transform="translate(0.26)"/><path class="cls-4" d="M176.78,377.63a4.3,4.3,0,1,1-3-5.3A4.3,4.3,0,0,1,176.78,377.63Z" transform="translate(0.26)"/><path class="cls-4" d="M165.47,358.05a4.3,4.3,0,1,1-3-5.3A4.31,4.31,0,0,1,165.47,358.05Z" transform="translate(0.26)"/><path class="cls-4" d="M196.75,366.43a4.3,4.3,0,1,1-3-5.3A4.28,4.28,0,0,1,196.75,366.43Z" transform="translate(0.26)"/><path class="cls-4" d="M185.56,346.46a4.3,4.3,0,1,1-3-5.31A4.31,4.31,0,0,1,185.56,346.46Z" transform="translate(0.26)"/><path class="cls-4" d="M174.25,326.87a4.3,4.3,0,1,1-3-5.3A4.3,4.3,0,0,1,174.25,326.87Z" transform="translate(0.26)"/><path class="cls-4" d="M205.53,335.26a4.3,4.3,0,1,1-3-5.3A4.3,4.3,0,0,1,205.53,335.26Z" transform="translate(0.26)"/><path class="cls-4" d="M156.8,388.83a4.3,4.3,0,1,1-3-5.3A4.3,4.3,0,0,1,156.8,388.83Z" transform="translate(0.26)"/><path class="cls-4" d="M188,397.61a4.3,4.3,0,1,1-3-5.3A4.3,4.3,0,0,1,188,397.61Z" transform="translate(0.26)"/><path class="cls-4" d="M208,386.41a4.3,4.3,0,1,1-3-5.3A4.28,4.28,0,0,1,208,386.41Z" transform="translate(0.26)"/><path class="cls-4" d="M227.93,375.21a4.3,4.3,0,1,1-3-5.3A4.3,4.3,0,0,1,227.93,375.21Z" transform="translate(0.26)"/><path class="cls-4" d="M216.73,355.24a4.3,4.3,0,1,1-3-5.3A4.3,4.3,0,0,1,216.73,355.24Z" transform="translate(0.26)"/><path class="cls-4" d="M236.71,344a4.3,4.3,0,1,1-3-5.3A4.3,4.3,0,0,1,236.71,344Z" transform="translate(0.26)"/><path class="cls-4" d="M219.15,406.39a4.3,4.3,0,1,1-3-5.3A4.29,4.29,0,0,1,219.15,406.39Z" transform="translate(0.26)"/><path class="cls-4" d="M168,408.81a4.3,4.3,0,1,1-3-5.3A4.31,4.31,0,0,1,168,408.81Z" transform="translate(0.26)"/><path class="cls-4" d="M199.17,417.59a4.3,4.3,0,1,1-3-5.3A4.3,4.3,0,0,1,199.17,417.59Z" transform="translate(0.26)"/><path class="cls-4" d="M114.42,360.07a4.3,4.3,0,1,1-3-5.3A4.29,4.29,0,0,1,114.42,360.07Z" transform="translate(0.26)"/><path class="cls-4" d="M103.11,340.49a4.3,4.3,0,1,1-3-5.3A4.3,4.3,0,0,1,103.11,340.49Z" transform="translate(0.26)"/><path class="cls-4" d="M134.4,348.87a4.3,4.3,0,1,1-3-5.3A4.29,4.29,0,0,1,134.4,348.87Z" transform="translate(0.26)"/><path class="cls-4" d="M123.2,328.89a4.3,4.3,0,1,1-3-5.3A4.3,4.3,0,0,1,123.2,328.89Z" transform="translate(0.26)"/><path class="cls-4" d="M111.89,309.31a4.3,4.3,0,1,1-3-5.3A4.28,4.28,0,0,1,111.89,309.31Z" transform="translate(0.26)"/><path class="cls-4" d="M143.18,317.7a4.3,4.3,0,1,1-3-5.3A4.3,4.3,0,0,1,143.18,317.7Z" transform="translate(0.26)"/><path class="cls-4" d="M94.44,371.27a4.3,4.3,0,1,1-3-5.3A4.3,4.3,0,0,1,94.44,371.27Z" transform="translate(0.26)"/><path class="cls-4" d="M125.62,380.05a4.3,4.3,0,1,1-3-5.3A4.29,4.29,0,0,1,125.62,380.05Z" transform="translate(0.26)"/><path class="cls-4" d="M145.6,368.85a4.3,4.3,0,1,1-3-5.3A4.29,4.29,0,0,1,145.6,368.85Z" transform="translate(0.26)"/><path class="cls-4" d="M154.38,337.68a4.3,4.3,0,1,1-3-5.31A4.31,4.31,0,0,1,154.38,337.68Z" transform="translate(0.26)"/><path class="cls-4" d="M105.64,391.25a4.3,4.3,0,1,1-3-5.3A4.3,4.3,0,0,1,105.64,391.25Z" transform="translate(0.26)"/><path class="cls-4" d="M136.82,400a4.3,4.3,0,1,1-3-5.3A4.3,4.3,0,0,1,136.82,400Z" transform="translate(0.26)"/><path class="cls-4" d="M184,531.1a4.3,4.3,0,1,1-3-5.3A4.3,4.3,0,0,1,184,531.1Z" transform="translate(0.26)"/><path class="cls-4" d="M244,497.5a4.3,4.3,0,1,1-3-5.3A4.28,4.28,0,0,1,244,497.5Z" transform="translate(0.26)"/><path class="cls-4" d="M232.66,477.92a4.3,4.3,0,1,1-3-5.3A4.31,4.31,0,0,1,232.66,477.92Z" transform="translate(0.26)"/><path class="cls-4" d="M263.94,486.3a4.3,4.3,0,1,1-3-5.3A4.3,4.3,0,0,1,263.94,486.3Z" transform="translate(0.26)"/><path class="cls-4" d="M252.74,466.33a4.3,4.3,0,1,1-3-5.3A4.3,4.3,0,0,1,252.74,466.33Z" transform="translate(0.26)"/><path class="cls-4" d="M241.44,446.74a4.3,4.3,0,1,1-3-5.3A4.29,4.29,0,0,1,241.44,446.74Z" transform="translate(0.26)"/><path class="cls-4" d="M272.72,455.13a4.3,4.3,0,1,1-3-5.3A4.3,4.3,0,0,1,272.72,455.13Z" transform="translate(0.26)"/><path class="cls-4" d="M224,508.7a4.3,4.3,0,1,1-3-5.3A4.3,4.3,0,0,1,224,508.7Z" transform="translate(0.26)"/><path class="cls-4" d="M255.16,517.48a4.3,4.3,0,1,1-3-5.3A4.28,4.28,0,0,1,255.16,517.48Z" transform="translate(0.26)"/><path class="cls-4" d="M275.14,506.28a4.29,4.29,0,1,1-3-5.3A4.29,4.29,0,0,1,275.14,506.28Z" transform="translate(0.26)"/><path class="cls-4" d="M295.12,495.08a4.29,4.29,0,1,1-3-5.3A4.3,4.3,0,0,1,295.12,495.08Z" transform="translate(0.26)"/><path class="cls-4" d="M283.92,475.11a4.3,4.3,0,1,1-3-5.3A4.3,4.3,0,0,1,283.92,475.11Z" transform="translate(0.26)"/><path class="cls-4" d="M303.9,463.91a4.3,4.3,0,1,1-3-5.3A4.3,4.3,0,0,1,303.9,463.91Z" transform="translate(0.26)"/><path class="cls-4" d="M286.34,526.26a4.3,4.3,0,1,1-3-5.3A4.29,4.29,0,0,1,286.34,526.26Z" transform="translate(0.26)"/><path class="cls-4" d="M235.18,528.68a4.3,4.3,0,1,1-3-5.3A4.3,4.3,0,0,1,235.18,528.68Z" transform="translate(0.26)"/><path class="cls-4" d="M215.21,539.88a4.3,4.3,0,1,1-3-5.3A4.31,4.31,0,0,1,215.21,539.88Z" transform="translate(0.26)"/><path class="cls-4" d="M246.38,548.66a4.3,4.3,0,1,1-3-5.3A4.3,4.3,0,0,1,246.38,548.66Z" transform="translate(0.26)"/><path class="cls-4" d="M266.36,537.46a4.3,4.3,0,1,1-3-5.3A4.3,4.3,0,0,1,266.36,537.46Z" transform="translate(0.26)"/><path class="cls-4" d="M212.79,488.72a4.29,4.29,0,1,1-3-5.3A4.29,4.29,0,0,1,212.79,488.72Z" transform="translate(0.26)"/><path class="cls-4" d="M221.57,457.55a4.3,4.3,0,1,1-3-5.3A4.3,4.3,0,0,1,221.57,457.55Z" transform="translate(0.26)"/><path class="cls-4" d="M204,519.9a4.3,4.3,0,1,1-3-5.3A4.31,4.31,0,0,1,204,519.9Z" transform="translate(0.26)"/><path class="cls-4" d="M270.3,404a4.3,4.3,0,1,1-3-5.3A4.28,4.28,0,0,1,270.3,404Z" transform="translate(0.26)"/><path class="cls-4" d="M259,384.39a4.3,4.3,0,1,1-3-5.3A4.29,4.29,0,0,1,259,384.39Z" transform="translate(0.26)"/><path class="cls-4" d="M290.28,392.77a4.3,4.3,0,1,1-3-5.3A4.3,4.3,0,0,1,290.28,392.77Z" transform="translate(0.26)"/><path class="cls-4" d="M279.08,372.8a4.3,4.3,0,1,1-3-5.3A4.3,4.3,0,0,1,279.08,372.8Z" transform="translate(0.26)"/><path class="cls-4" d="M267.78,353.21a4.3,4.3,0,1,1-3-5.3A4.29,4.29,0,0,1,267.78,353.21Z" transform="translate(0.26)"/><path class="cls-4" d="M299.06,361.6a4.3,4.3,0,1,1-3-5.3A4.3,4.3,0,0,1,299.06,361.6Z" transform="translate(0.26)"/><path class="cls-4" d="M250.33,415.17a4.3,4.3,0,1,1-3-5.3A4.29,4.29,0,0,1,250.33,415.17Z" transform="translate(0.26)"/><path class="cls-4" d="M281.5,424a4.3,4.3,0,1,1-3-5.3A4.28,4.28,0,0,1,281.5,424Z" transform="translate(0.26)"/><path class="cls-4" d="M301.48,412.75a4.3,4.3,0,1,1-3-5.3A4.29,4.29,0,0,1,301.48,412.75Z" transform="translate(0.26)"/><path class="cls-4" d="M321.46,401.55a4.29,4.29,0,1,1-3-5.3A4.3,4.3,0,0,1,321.46,401.55Z" transform="translate(0.26)"/><path class="cls-4" d="M310.26,381.58a4.3,4.3,0,1,1-3-5.3A4.3,4.3,0,0,1,310.26,381.58Z" transform="translate(0.26)"/><path class="cls-4" d="M330.24,370.38a4.3,4.3,0,1,1-3-5.3A4.3,4.3,0,0,1,330.24,370.38Z" transform="translate(0.26)"/><path class="cls-4" d="M312.68,432.73a4.3,4.3,0,1,1-3-5.3A4.29,4.29,0,0,1,312.68,432.73Z" transform="translate(0.26)"/><path class="cls-4" d="M261.52,435.15a4.3,4.3,0,1,1-3-5.3A4.3,4.3,0,0,1,261.52,435.15Z" transform="translate(0.26)"/><path class="cls-4" d="M292.7,443.93a4.3,4.3,0,1,1-3-5.3A4.3,4.3,0,0,1,292.7,443.93Z" transform="translate(0.26)"/><path class="cls-4" d="M239.13,395.19a4.3,4.3,0,1,1-3-5.3A4.29,4.29,0,0,1,239.13,395.19Z" transform="translate(0.26)"/><path class="cls-4" d="M247.91,364a4.3,4.3,0,1,1-3-5.3A4.31,4.31,0,0,1,247.91,364Z" transform="translate(0.26)"/><path class="cls-4" d="M230.35,426.37a4.3,4.3,0,1,1-3-5.3A4.3,4.3,0,0,1,230.35,426.37Z" transform="translate(0.26)"/><path class="cls-4" d="M277.56,557.44a4.3,4.3,0,1,1-3-5.3A4.31,4.31,0,0,1,277.56,557.44Z" transform="translate(0.26)"/><path class="cls-4" d="M306.32,515.06a4.3,4.3,0,1,1-3-5.3A4.3,4.3,0,0,1,306.32,515.06Z" transform="translate(0.26)"/><path class="cls-4" d="M326.3,503.87a4.3,4.3,0,1,1-3-5.31A4.31,4.31,0,0,1,326.3,503.87Z" transform="translate(0.26)"/><path class="cls-4" d="M315.1,483.89a4.3,4.3,0,1,1-3-5.3A4.3,4.3,0,0,1,315.1,483.89Z" transform="translate(0.26)"/><path class="cls-4" d="M335.08,472.69a4.3,4.3,0,1,1-3-5.3A4.31,4.31,0,0,1,335.08,472.69Z" transform="translate(0.26)"/><path class="cls-4" d="M317.52,535a4.3,4.3,0,1,1-3-5.3A4.29,4.29,0,0,1,317.52,535Z" transform="translate(0.26)"/><path class="cls-4" d="M337.49,523.84a4.29,4.29,0,1,1-3-5.3A4.3,4.3,0,0,1,337.49,523.84Z" transform="translate(0.26)"/><path class="cls-4" d="M357.47,512.64a4.29,4.29,0,1,1-3-5.29A4.3,4.3,0,0,1,357.47,512.64Z" transform="translate(0.26)"/><path class="cls-4" d="M346.27,492.67a4.3,4.3,0,1,1-3-5.3A4.3,4.3,0,0,1,346.27,492.67Z" transform="translate(0.26)"/><path class="cls-4" d="M366.25,481.47a4.3,4.3,0,1,1-3-5.3A4.3,4.3,0,0,1,366.25,481.47Z" transform="translate(0.26)"/><path class="cls-4" d="M348.69,543.82a4.3,4.3,0,1,1-3-5.3A4.28,4.28,0,0,1,348.69,543.82Z" transform="translate(0.26)"/><path class="cls-4" d="M297.54,546.24a4.3,4.3,0,1,1-3-5.3A4.29,4.29,0,0,1,297.54,546.24Z" transform="translate(0.26)"/><path class="cls-4" d="M308.74,566.22a4.3,4.3,0,1,1-3-5.3A4.31,4.31,0,0,1,308.74,566.22Z" transform="translate(0.26)"/><path class="cls-4" d="M328.71,555a4.3,4.3,0,1,1-3-5.3A4.28,4.28,0,0,1,328.71,555Z" transform="translate(0.26)"/><path class="cls-4" d="M332.66,421.53a4.3,4.3,0,1,1-3-5.3A4.29,4.29,0,0,1,332.66,421.53Z" transform="translate(0.26)"/><path class="cls-4" d="M352.64,410.34a4.3,4.3,0,1,1-3-5.3A4.31,4.31,0,0,1,352.64,410.34Z" transform="translate(0.26)"/><path class="cls-4" d="M341.44,390.36a4.3,4.3,0,1,1-3-5.3A4.3,4.3,0,0,1,341.44,390.36Z" transform="translate(0.26)"/><path class="cls-4" d="M361.42,379.16a4.3,4.3,0,1,1-3-5.3A4.31,4.31,0,0,1,361.42,379.16Z" transform="translate(0.26)"/><path class="cls-4" d="M343.86,441.51a4.3,4.3,0,1,1-3-5.3A4.3,4.3,0,0,1,343.86,441.51Z" transform="translate(0.26)"/><path class="cls-4" d="M363.84,430.31a4.3,4.3,0,1,1-3-5.3A4.3,4.3,0,0,1,363.84,430.31Z" transform="translate(0.26)"/><path class="cls-4" d="M383.81,419.11a4.29,4.29,0,1,1-3-5.3A4.3,4.3,0,0,1,383.81,419.11Z" transform="translate(0.26)"/><path class="cls-4" d="M372.62,399.14a4.3,4.3,0,1,1-3-5.3A4.31,4.31,0,0,1,372.62,399.14Z" transform="translate(0.26)"/><path class="cls-4" d="M392.59,387.94a4.3,4.3,0,1,1-3-5.3A4.3,4.3,0,0,1,392.59,387.94Z" transform="translate(0.26)"/><path class="cls-4" d="M375,450.29a4.3,4.3,0,1,1-3-5.3A4.28,4.28,0,0,1,375,450.29Z" transform="translate(0.26)"/><path class="cls-4" d="M323.88,452.71a4.3,4.3,0,1,1-3-5.3A4.31,4.31,0,0,1,323.88,452.71Z" transform="translate(0.26)"/><path class="cls-4" d="M355.05,461.49a4.3,4.3,0,1,1-3-5.3A4.28,4.28,0,0,1,355.05,461.49Z" transform="translate(0.26)"/><path class="cls-4" d="M339.91,575a4.3,4.3,0,1,1-3-5.3A4.3,4.3,0,0,1,339.91,575Z" transform="translate(0.26)"/><polygon class="cls-5" points="1224.26 579.95 55.35 551.91 273.98 66.85 1190.37 168.84 1224.26 579.95"/><path class="cls-6" d="M348.71,662.69c0,17-22.15,30.87-49.47,30.87s-49.48-13.82-49.48-30.87,22.15-30.86,49.48-30.86S348.71,645.65,348.71,662.69Z" transform="translate(0.26)"/><path class="cls-7" d="M1129.41,790.4s-52,24.82-98.69,33.57l-234.56-66.5s-83.24-48-101.79-131.08c-18.09-81.06-5.49-135.61-5.49-135.61s88,41.5,263.47,61.81c124.85,14.44,348.88-.38,348.88-.38s-21.35,69.17-75.62,145.34C1173.15,771.2,1129.41,790.4,1129.41,790.4Z" transform="translate(0.26)"/><path class="cls-8" d="M1166,596.9c-9.54,2.13-128.51,24.88-289.34,10.1s-335.85-89-331.43-92.66c48.8-40.82,155.43-57.23,155.43-57.23s121.89-8.22,318.7,15.35c183.28,21.94,281.84,79.75,281.84,79.75S1216.68,585.61,1166,596.9Z" transform="translate(0.26)"/><path class="cls-9" d="M1243.86,526.73c0-.19.05-.39.07-.6-47.16-18.26-122.79-41.49-224.54-53.67-196.81-23.57-318.7-15.35-318.7-15.35s-106.63,16.41-155.43,57.23c-2.6,2.17,57,28.79,139.27,53.32q20.22,2.16,40.91,4.06C1004.21,597.33,1236.32,577.19,1243.86,526.73Z" transform="translate(0.26)"/><path class="cls-7" d="M1030.72,824l-184-16.91c-34.61-3.18-139.38-18.37-139.38-18.37s-69-48.39-110.77-126.17c-47.72-88.89-51.29-148.18-51.29-148.18s166.46,54.68,342,75c124.84,14.43,285.08,6.09,285.08,6.09s-6.84,56.68-68.44,143.89C1058.88,803,1030.72,824,1030.72,824Z" transform="translate(0.26)"/><path class="cls-10" d="M724.35,466.4S633,478.29,589.92,509.47C656.22,534.85,778.58,559,920.38,572c79,7.26,153.16,10.08,215.79,9,44.48-8.71,117.56-34.26,117.56-34.26s-87.42-46.68-248.89-65.56C831.44,460.84,724.35,466.4,724.35,466.4Z" transform="translate(0.26)"/><path class="cls-11" d="M719.29,500.29S826.37,494.73,999.77,515c95.6,11.18,165.23,32.1,206.15,47.31,26.56-8.21,47.81-15.64,47.81-15.64s-87.42-46.68-248.89-65.56c-173.4-20.28-280.49-14.72-280.49-14.72S633,478.29,589.92,509.47c11.12,4.25,23.82,8.47,37.92,12.61C670.81,506.6,719.29,500.29,719.29,500.29Z" transform="translate(0.26)"/><path class="cls-12" d="M887.24,589.34c-99.81-11.54-196.69-34.2-261.69-51.61a196.38,196.38,0,0,0-10.3,39.7c-12.26,82,29.94,159.72,105.23,213.17,29.24,4.17,99.16,14,126.22,16.49l184,16.9s28.16-21,73.16-84.66c61.6-87.21,68.44-143.89,68.44-143.89S1012.08,603.78,887.24,589.34Z" transform="translate(0.26)"/><path class="cls-13" d="M1172.31,595.49s-160.24,8.34-285.08-6.1c-66.2-7.65-131.1-20.2-186.28-32.86a142.23,142.23,0,0,0-3.09,15C682.59,673.71,784.51,767.06,925.51,780c61.72,5.67,120.69-5,168.78-27.37q4.67-6.3,9.58-13.26C1165.47,652.17,1172.31,595.49,1172.31,595.49Z" transform="translate(0.26)"/><path class="cls-14" d="M1172.54,572.12c5.36-1.48,13.91-4.06,19.22-5.62-32.92-7.83-78.85-16.56-147.74-27.51-73.06-11.62-140.73-28.83-166.79-30.9-9.41-.75-14.32,2.06-10.77,5.6,3.11,3.11,78.84,16.19,178.3,35.66C1103.67,560.88,1137.26,567.46,1172.54,572.12Z" transform="translate(0.26)"/><path class="cls-14" d="M950,543.23C875.17,530,806.43,511.37,782.2,509.6c-7.84-.56-12.22,1.91-9.05,5.23,3,3.17,73.82,18.63,177.25,38.77,65.84,12.82,115.7,22.7,149.32,27.7,7.94,0,23.08-.2,30.72-.27C1112.77,574.35,1036.73,558.62,950,543.23Z" transform="translate(0.26)"/><path class="cls-14" d="M871,553.41C796,537.21,727.52,515.22,704.4,513c-7.06-.67-11.2,2.28-8.37,5.55s76.9,24,174.76,45.2c19.32,4.17,12.86,2.42,30.71,6.38,1.07.1,42.28,4.06,61.49,5.34C930.22,567.12,914.39,562.8,871,553.41Z" transform="translate(0.26)"/><path class="cls-15" d="M806,577c-41.4-6.49-84.79-16.15-126.48-25.68,44.54,14.52,93.23,27.45,141.19,35,116,18.19,201.62,15,249.27,11.51C1008.11,598.72,922.36,595.28,806,577Z" transform="translate(0.26)"/><path class="cls-16" d="M1071.11,542.92c-4.36,3.38-64.2,28.86-194.11,17.65-36.9-3.18-64.18-14.31-74.2-24.77-24.06-25.11-14.46-54.79-9.26-63.46,6.39-10.66,20.46-20.63,37.31-23.35,38-6.15,91.69,24.57,130.79,32.91,22.71,4.84,66.6-4.25,75.5-3.9,30.27,1.18,41.66,10.91,44.61,16.4C1089.72,509.27,1091.81,526.88,1071.11,542.92Z" transform="translate(0.26)"/><path class="cls-17" d="M1070.37,485.58c13,4.23,31.86,27.15-46.7,42.29-16,3.08-94.31,14.73-162.11-.17-72.61-16-66.54-38.77-64.27-48.44,2.81-12,26.68-33.37,65.54-24.72,38,8.45,57.11,26.74,90.53,32.4C982.33,491.84,1034.2,473.85,1070.37,485.58Z" transform="translate(0.26)"/><path class="cls-18" d="M1063,486.8c11.81,5.41,30.54,24.81-45,38.21-15.4,2.73-91,14.9-155.71-.89-66.32-16.17-62.62-36-60.41-44.81,2.73-10.87,24.49-29.68,61.8-21.65,36.48,7.85,54.8,24.55,86.89,29.84C978.4,492.09,1042.67,477.48,1063,486.8Z" transform="translate(0.26)"/><path class="cls-19" d="M816.91,466.94c-1.71,2.79-2.28,5.36.36,7.39,4.25,3.26,8.19,3.78,14.85,2.86a11.82,11.82,0,0,0,1.62-.37h0c1.56.94,6.17,3,9.89,1.91,10.58-3,13.31-14.79,6.9-21.77-.17-.19-.57-.61-1.16-1.19-1.89-.08-3.73-.09-5.51,0,3,5.65,2.91,11.65.53,15.52s-6.52,4.6-9,4.89c6.13-3,10.71-11.66,3.78-20.1a63.18,63.18,0,0,0-6.8,1.08c3.14,2.47,6.14,7,5,11.1-1.76,6.19-11.56,6.87-14,4.19-4-4.35,4.83-3.14,5.9-8.64.26-1.38-.6-3.72-1.1-5.59a54.69,54.69,0,0,0-6.41,2.31c-.79,1-1.62,2.05-2.42,3.06-.85,0-1.93-.07-3.18-.19-1.09.65-2.12,1.33-3.1,2C814.42,465.88,815.73,466.45,816.91,466.94Z" transform="translate(0.26)"/><path class="cls-20" d="M1074,498.72a39.49,39.49,0,0,1-5,.48c-11.85.1-17.62-5.51-9.62-10.6a22.7,22.7,0,0,1,3.65-1.85,31.16,31.16,0,0,0-7.79-2.19c-.81,1-1.58,2.1-2.44,3.37-2.49,3.73-15-1.82-19.88-4.19l-1.19.05c3.16,2.36,14.41,7.32,11.79,9-4.41,2.81,22.73,8.72,26.24,12.34.38.39.78.77,1.18,1.14C1073.34,503.64,1074.19,501.09,1074,498.72Z" transform="translate(0.26)"/><path class="cls-21" d="M966.63,523.34c2.89.51,5.75,1.38,6.65,1.2s1.15-1.18,0-2.09c-1.66-1.33-8.23-3.08-13.45-2.21-1,.17-2.08,1.35-.58,2C960.11,522.53,963.39,522.77,966.63,523.34Z" transform="translate(0.26)"/><path class="cls-20" d="M1022.89,494.7c2,.62,8.31,2.47,11.41,3.62,6.4,2.37,14.67,7.25,15.58,7.07s-4.17-4.89-11.13-8.15c-2-.93-10.06-5.37-15.29-4.5C1022.43,492.91,1021.35,494.2,1022.89,494.7Z" transform="translate(0.26)"/><path class="cls-20" d="M897.31,506.27c.53.65,2,1.4,4.46,3.39a24.59,24.59,0,0,0,5.05,3.48c1.06.35,2.74-.4,2.35-1.63-.56-1.78-4.68-4.49-10-6.4C898.15,504.74,896.38,505.1,897.31,506.27Z" transform="translate(0.26)"/><path class="cls-20" d="M954.91,526.38c-4.66-3.57-8.15-3.6-10.55-6.35-2.15-2.46-4.49-8.31-8.39-9.24-3.61-.86-5.85-1.71-9.28-1.62-4.9.13-9,4.21-7,6.65,2.7,3.15,1.27,8.25,5.52,9.65.79.26,4.36,3,7.51,6.54q4,0,7.92,0c-2.67-1.44-10-4.5-12.25-8.16a14.5,14.5,0,0,0-1-4.16c-1.61-3.64-4.63-5.16-1.64-7,1.11-.68,1.79-2,3.63-1.52,2.21.53,5.68,3,8,5,4.63,4,4.05,11.14,8.17,12.56a27,27,0,0,1,6.3,3.05q4.3-.15,8.45-.38A70,70,0,0,0,954.91,526.38Z" transform="translate(0.26)"/><path class="cls-20" d="M1034.16,518.76c-.53-.42-8.63-9.83-20.87-9.76-1.08,0,9.34,3.52,13.34,6.74a20.2,20.2,0,0,1,5.48,6.46c1.36-.3,2.68-.61,4-.92A13.6,13.6,0,0,0,1034.16,518.76Z" transform="translate(0.26)"/><path class="cls-21" d="M862.14,505.77c-.72.55-.48,1.73.52,2.62s2.4,1.17,3.11.62.49-1.72-.52-2.61S862.85,505.22,862.14,505.77Z" transform="translate(0.26)"/><path class="cls-19" d="M1022,495.55c-7.35-2.26-6.81-8.24-9.51-10.4l-3.94.34c1.21,2.07,2.67,4.55,2,5.53-.91,1.39-5.63,2.06-11.5-.19-3.41-1.29-7.22-2.55-10.58-3.6-1.63.14-3.24.26-4.84.37,6.93,1.55,24.89,9.56,25,9.34,5.28,1.74,9.91.67,12.67,1,11,1.37,24.61,9.87,28,13.48a46.06,46.06,0,0,1,4,4.8c2.49-.91,4.71-1.82,6.69-2.74C1048.73,502.76,1030.09,498.05,1022,495.55Z" transform="translate(0.26)"/><path class="cls-19" d="M994.43,522.78c1.85-1.34,14.63,2.51,17.35-2.86,3.41-6.75-13.47-11.41-11.75-14.1.72-1.13,7.17,1.8,7.78.66.4-.73-1.27-1.44-3.56-2.17.55,0,.91-.11,1-.38,1.39-5.84-23.17-12.56-24.23-15.94a.46.46,0,0,1,0-.2c-3.42.23-6.75.41-9.94.53,9.83,3.25,24.16,8.3,22.08,12.7,0,.06.15.17.47.33a5.23,5.23,0,0,1-3.16.9c-6.1.26-21.16-7.94-23.12-8.11-6-.49-8.7,1.15-10.41,1-4.23-.28-5.68-5.71-17.61-8.29-27.8-6-21,5.49-33.82,4.74-.65-.33-5.31-2.63-5-4.23.74-3.32,8.07-6.59,17.11-6.83a54.06,54.06,0,0,1,12.09,1.54c-5.73-2-11.2-4.29-16.67-6.68-8.61-.36-12.48,2.05-13.48,2.85-3.61,2.89-1,6.81-4.06,8.12a8.09,8.09,0,0,1-1.08.37c.08-2.42-8.35-9.2-3.12-12.8,2.1-1.44,6.37-2.55,10.45-3.51q-2.61-1.14-5.29-2.25c-5,1.06-10.67,2.5-16.12,4.06-2.45.7-10.5-2.61-10.31-5.85a7.9,7.9,0,0,1,3.89-6.2q-4.87-1.38-10.21-2.54c-2.3-.49-4.52-.88-6.69-1.18-.5,2.38-.78,4.51,1.25,6,9.7,7,15.4,12.11,13.89,13.6-1.2,1.19-17.9.58-27,4.53-5.31,2.3-9.84,5.94-8.66,10.71.3,1.24-7.21.58-13.32-.83-14.69-3.38-17.23-12.92-17.45-18.28a13.24,13.24,0,0,0-3.6,12.21,46.16,46.16,0,0,0,5.09,15.44c4.51,4.75,12,9.79,24.35,14.76-10.14-9.83-12.92-17.61-10-19.89,2.48-1.93,14.73-1.25,17.9.56,7.46,4.24,4,13.77,12,19.64,1.5,1.11,14,6.42,20.72,11.39,3.18.63,6.38,1.2,9.58,1.71-6.86-3.78-17.59-9.42-23.79-13.33-7.91-5-15.46-23-3.09-29.05,7.81-3.85,21.6-7.68,27.84-6,11.44,3.09,6.16,7.49,5.63,7.91a8.45,8.45,0,0,0-6.25,4.37c-2.4,4-3.76,11.53,2.35,13.36,4.45,1.33,1.17,7.82,6.76,13.32,3.35,3.28,23,12.57,29.21,13.25l.31,0c4.4.26,8.63.26,8.63.26a79.2,79.2,0,0,0-12-5c-6.55-1.91-20.06-8-21-9.48-3.44-5.39-.66-7.66-4.28-9.81-2.87-1.7-7.4-10.92-.61-14,5.16-2.34,20.1.76,22.42,4,.78,1.07-1.35,5.23,2.61,6.88,13.06,5.45,5.07-5.09,2-8.4-.47-1.19-3.3-4.61,1.23-6.71,7.16-3.31,19.49-.08,20.64.42,13.42,5.92,10.24,8,13.51,10.83,4.21,3.66,26.9,10.69,29.78,13.65,5.36,5.5,4.3,12.24-1.74,13.35-6.27,1.15-22.67-2.27-22.1-.82.32.8,4.24,2.47,9.43,3.89,10.15-.72,19.29-1.67,27-2.63C996.08,525.91,993.27,523.62,994.43,522.78Zm-31.87-21.61c-3.73-2.87.86-5.52,4.07-4.74,14.94,3.65,33.89,12.39,37.19,17.36,2.27,3.41.7,5.88-2.55,5.58C995.09,518.78,966.54,504.24,962.56,501.17Z" transform="translate(0.26)"/><path class="cls-22" d="M882.09,546.94c-38.29-3.31-66.58-14.52-77-25-12.51-12.63-16.21-26.4-16.12-38.06-3.41,13.26-3.6,33.79,13.79,51.94,10,10.46,37.3,21.59,74.2,24.77,129.91,11.21,189.75-14.27,194.11-17.65a47.51,47.51,0,0,0,11.68-12.53C1074.26,535.13,1011.84,558.13,882.09,546.94Z" transform="translate(0.26)"/><path class="cls-23" d="M1075.33,535.93c-4.44,3.38-65.3,28.76-197.37,17.37-37.52-3.23-65.25-14.4-75.43-24.88-9.69-10-14-20.64-15.34-30.43,0,11.6,3.62,25.24,15.6,37.74,10,10.46,37.31,21.59,74.21,24.78,129.91,11.2,189.74-14.27,194.11-17.66,6.57-5.09,10.83-10.33,13.35-15.6A52.82,52.82,0,0,1,1075.33,535.93Z" transform="translate(0.26)"/><path class="cls-17" d="M1074.05,498.7h0c-.47-5.36-6.29-9.76-11-11.93l0,0,.06,0a28.86,28.86,0,0,0-7.44-2.14s-.37,0-.39,0c-1.22-.2-2.53-.36-3.88-.49-4,0-53.12,13.8-58.66,17.81-3,2.14-3.54,6.13-3.54,6.13s3.35-2.8,11.47-5.9c11.8-4.51,31-10.06,42.08-11.9,30.38-5,28.25,9,17,15.28-6,3.35-18.4,2.58-23.38,3-51.48,4.38-44.64,20.34-44.6,20.44h0l13.88-1.76a1.7,1.7,0,0,0,0-.22s4.54-12.12,21-14.59c7.22-1.09,23.87-.53,37.49-4.71a21.71,21.71,0,0,0,10-6.12,7.65,7.65,0,0,0,.47-3.25S1074.06,498.73,1074.05,498.7Z" transform="translate(0.26)"/><path class="cls-17" d="M1033,483.75l-.09,0-1.2.05.06,0c-5.52.24-10.36.1-16.33.59-14.84,4.8-34.71,21.42-34.71,21.42s4.9-7.65,1.11-14.4a14.91,14.91,0,0,0-2.76-3.54c-11,.69-20.94.83-28.33-.37,1.64.24,19.41,3,25.19,9.82,8.65,10.22-3.79,14.11-4.85,14.4-13.26,3.57-22.31-3.69-42-6.42-1.82,1.11-1,4-3,5,26.21,8.36,31.82,17.32,30.72,21.47,3.45-.15,6.86-.37,10.12-.59,4.57-5.39,14.71-16.78,22.8-23.7,16.26-13.9,46.41-24.46,46.6-24.52C1035.54,483,1033.88,483.72,1033,483.75Z" transform="translate(0.26)"/><path class="cls-17" d="M941.46,507.67c-5.52-1.28-23.63-5.84-29.24-8.81-9.63-5.08-19.11-20.06-42.09-22.85-9.94-1.2-19,1.39-33.2.32-10.14-.76-26.1-9.68-26.13-9.7a33.86,33.86,0,0,0-5.48,5.73c4.8.91,13.95,3,19.45,5.46,20.41,9.2,9.5,23,37.74,30.23,25.06,6.43,35.44-3.78,48.4-.94,6.71,1.46,17.39,3.05,21.84,5.12C933.83,510.37,940.6,509.61,941.46,507.67Z" transform="translate(0.26)"/><path class="cls-24" d="M848.41,485.92c-.67,3.58,8.71,8.9,21,11.89s22.72,2.5,23.39-1.08a2.94,2.94,0,0,0-.65-2.19c-2.33-3.31-10.38-7.27-20.31-9.69l-1.12-.26C858.92,481.9,849.07,482.45,848.41,485.92Z" transform="translate(0.26)"/><path class="cls-25" d="M873,482.21c-15.07-2.34-28.29-.74-29.3,3.91s10.21,11.6,25.08,15.51,27.72,3.31,28.74-1.34S892.52,485.24,873,482.21Zm-3.66,13.64c-11-2.7-19.46-6.88-19-9.32s7.83-2.24,18.83.25c11.79,2.68,17.16,6.08,16.69,8.52S880.26,498.56,869.3,495.85Z" transform="translate(0.26)"/><path class="cls-26" d="M1102.7,514.23c-.42-1.1-4.73-.48-9.62,1.39s-8.52,4.27-8.1,5.36c.11.31.52.48,1.15.53a17.78,17.78,0,0,0,6.89.68c4.23-.24,7.61-1.31,7.55-2.38,0-.64-1.29-1.14-3.19-1.39C1100.79,516.82,1103,515.11,1102.7,514.23Z" transform="translate(0.26)"/><path class="cls-27" d="M1108.59,535.37c-5.5-4.06-9.8,2.63-16.37,5.86-4.7,2.31-10.64,1.08-12-4.78-1.86-8.29,12.61-16.46,7.17-16.86-13-1-21.39,9-21.39,19.13s7.41,21.53,21.19,21.16C1109.55,559.28,1116.77,541.42,1108.59,535.37Z" transform="translate(0.26)"/><path class="cls-28" d="M1108.59,535.37a8.83,8.83,0,0,0-.92-.59c.06,7.56-8.18,17.37-24.62,17.81a19.67,19.67,0,0,1-15.8-6.67c2.63,7.66,9.44,14.24,20,14C1109.55,559.28,1116.77,541.42,1108.59,535.37Z" transform="translate(0.26)"/><path class="cls-26" d="M1099.19,545.74a24.41,24.41,0,0,1-1.6-8c-1.17.85-2.52,1.77-3.84,2.6a24.93,24.93,0,0,0,1.65,6.82,22.6,22.6,0,0,0,6.31,9.14,23.94,23.94,0,0,0,3.17-2A23.27,23.27,0,0,1,1099.19,545.74Z" transform="translate(0.26)"/><path class="cls-26" d="M1086.46,548.65a24.53,24.53,0,0,1,.22-6.38,8.71,8.71,0,0,1-3.71-1.42,23.7,23.7,0,0,0-.55,8.22,22.73,22.73,0,0,0,3.87,10.81c.3,0,.41,0,1,0a30.58,30.58,0,0,0,3.39-.28A22.79,22.79,0,0,1,1086.46,548.65Z" transform="translate(0.26)"/><path class="cls-26" d="M1069.55,545.23a23.14,23.14,0,0,0-.94,3.82,19,19,0,0,0,3.6,5,24.91,24.91,0,0,1,1.2-7.54,22.52,22.52,0,0,1,6.83-10.16c0-.06,0-.3-.07-.36a9.21,9.21,0,0,1,.38-3.71C1076,534.38,1071.56,539.18,1069.55,545.23Z" transform="translate(0.26)"/><path class="cls-26" d="M1072,532.23a23.07,23.07,0,0,1,9.64-2.31,28.38,28.38,0,0,1,2.49-3.56,22,22,0,0,0-13.76,2c-.65.33-1.22.61-1.83,1a21.3,21.3,0,0,0-2.35,6.93A23.86,23.86,0,0,1,1072,532.23Z" transform="translate(0.26)"/><path class="cls-29" d="M1092.64,545.81c.95,1.59,4.17,1.4,7.19-.41s4.7-4.57,3.74-6.16-4.17-1.4-7.19.42S1091.69,544.23,1092.64,545.81Z" transform="translate(0.26)"/><path class="cls-26" d="M756.4,486.36c-.5-1.07-4.75-.15-9.51,2s-8.21,4.83-7.71,5.9c.13.29.55.44,1.18.45a17.81,17.81,0,0,0,6.92.21c4.2-.53,7.5-1.82,7.37-2.89-.08-.64-1.36-1.05-3.28-1.17C754.66,489.07,756.79,487.21,756.4,486.36Z" transform="translate(0.26)"/><path class="cls-27" d="M763.71,507.05c-5.76-3.68-9.6,3.29-15.94,7-4.53,2.62-10.54,1.79-12.25-4-2.42-8.14,11.46-17.27,6-17.3-13.07-.07-20.74,10.39-20,20.53s8.86,21,22.58,19.67C766.29,530.84,772.28,512.53,763.71,507.05Z" transform="translate(0.26)"/><path class="cls-28" d="M763.71,507.05a9.19,9.19,0,0,0-1-.52c.57,7.53-7,17.88-23.36,19.43a19.64,19.64,0,0,1-16.21-5.57c3.14,7.46,10.39,13.56,20.88,12.56C766.29,530.84,772.28,512.53,763.71,507.05Z" transform="translate(0.26)"/><path class="cls-26" d="M755,518a24.31,24.31,0,0,1-2.13-7.83c-1.12.93-2.39,1.94-3.65,2.86a24.65,24.65,0,0,0,2.1,6.69,22.54,22.54,0,0,0,6.92,8.69,24,24,0,0,0,3-2.24A23.26,23.26,0,0,1,755,518Z" transform="translate(0.26)"/><path class="cls-26" d="M742.53,521.8a24.55,24.55,0,0,1-.21-6.38,8.68,8.68,0,0,1-3.8-1.16,23.51,23.51,0,0,0,0,8.24,22.58,22.58,0,0,0,4.6,10.52c.29,0,.41,0,1,0a31.5,31.5,0,0,0,3.36-.51A22.69,22.69,0,0,1,742.53,521.8Z" transform="translate(0.26)"/><path class="cls-26" d="M725.42,519.54a24.14,24.14,0,0,0-.67,3.87,19.1,19.1,0,0,0,3.93,4.75,25.29,25.29,0,0,1,.68-7.61,22.7,22.7,0,0,1,6.13-10.6c0-.05-.07-.29-.09-.35a9.09,9.09,0,0,1,.12-3.73C731.08,508.27,727,513.36,725.42,519.54Z" transform="translate(0.26)"/><path class="cls-26" d="M727,506.41a22.89,22.89,0,0,1,9.46-3,28,28,0,0,1,2.24-3.72,22,22,0,0,0-13.59,2.92c-.63.37-1.18.69-1.76,1.11a21.3,21.3,0,0,0-1.88,7.07A24.11,24.11,0,0,1,727,506.41Z" transform="translate(0.26)"/><path class="cls-29" d="M748.5,518.55c1.06,1.52,4.26,1.12,7.15-.9s4.37-4.88,3.31-6.4-4.25-1.11-7.14.91S747.44,517,748.5,518.55Z" transform="translate(0.26)"/><path class="cls-26" d="M1162.88,546.22c.82-.84-1.55-4.49-5.28-8.16s-7.44-5.95-8.27-5.11c-.22.23-.21.67,0,1.26a17.76,17.76,0,0,0,2.26,6.54c2,3.75,4.37,6.37,5.32,5.87.56-.3.49-1.65-.08-3.48C1159.73,545.57,1162.22,546.9,1162.88,546.22Z" transform="translate(0.26)"/><path class="cls-27" d="M1146.13,560.41c1.39-6.69-6.49-7.81-12.17-12.43-4.06-3.31-5.42-9.22-.65-12.86,6.76-5.15,20.22,4.58,18.31-.53-4.57-12.23-17.07-15.69-26.31-11.45s-16.46,15.74-10.37,28.1C1124.8,571.27,1144.05,570.36,1146.13,560.41Z" transform="translate(0.26)"/><path class="cls-28" d="M1146.13,560.41a9,9,0,0,0,.15-1.08c-6.84,3.21-19.2-.18-26.46-14.94a19.61,19.61,0,0,1-.55-17.13c-5.86,5.58-9,14.52-4.33,24C1124.8,571.27,1144.05,570.36,1146.13,560.41Z" transform="translate(0.26)"/><path class="cls-26" d="M1132.78,556.2a24.09,24.09,0,0,1,6.56-4.77c-1.27-.72-2.67-1.55-4-2.4a24.47,24.47,0,0,0-5.51,4.34,22.5,22.5,0,0,0-5.66,9.55,24.81,24.81,0,0,0,3.16,2A23.37,23.37,0,0,1,1132.78,556.2Z" transform="translate(0.26)"/><path class="cls-26" d="M1124.82,545.85a24.7,24.7,0,0,1,5.89-2.47,8.79,8.79,0,0,1-.27-4,23.92,23.92,0,0,0-7.69,2.93,22.72,22.72,0,0,0-8.21,8c.12.27.14.39.38.91a32.12,32.12,0,0,0,1.67,3A22.71,22.71,0,0,1,1124.82,545.85Z" transform="translate(0.26)"/><path class="cls-26" d="M1120.86,529.05a25.33,25.33,0,0,0-3.86.74,19.17,19.17,0,0,0-3,5.36,25.33,25.33,0,0,1,7.35-2.06,22.63,22.63,0,0,1,12.08,2l.31-.21a9,9,0,0,1,3.52-1.21C1133.4,530.34,1127.2,528.35,1120.86,529.05Z" transform="translate(0.26)"/><path class="cls-26" d="M1133.68,525.83a22.89,22.89,0,0,1,6.12,7.79,27.79,27.79,0,0,1,4.28.77,22,22,0,0,0-7.56-11.66c-.57-.46-1.06-.86-1.66-1.26a21.44,21.44,0,0,0-7.27.76A23.86,23.86,0,0,1,1133.68,525.83Z" transform="translate(0.26)"/><path class="cls-29" d="M1130,550.28c-1,1.52.47,4.37,3.38,6.36s6.11,2.35,7.16.83-.48-4.38-3.39-6.36S1131,548.75,1130,550.28Z" transform="translate(0.26)"/><path class="cls-30" d="M183.51,117.87c39.81,7.59,78.14-18,85.6-57.13L124.94,33.24C117.47,72.39,143.7,110.27,183.51,117.87Z" transform="translate(0.26)"/><path class="cls-31" d="M211.21,121.56c-.35,1.84-2.4,3-4.58,2.57l-46.92-8.95c-2.19-.41-3.67-2.24-3.32-4.07h0c.35-1.84,2.4-3,4.58-2.57l46.93,8.95c2.18.41,3.66,2.24,3.31,4.07Z" transform="translate(0.26)"/><path class="cls-32" d="M270.83,60.51A3.29,3.29,0,0,1,267,63.12L126.31,36.3a3.29,3.29,0,0,1-2.61-3.85h0a3.28,3.28,0,0,1,3.84-2.62L268.22,56.66a3.29,3.29,0,0,1,2.61,3.85Z" transform="translate(0.26)"/><path class="cls-33" d="M239.76,105.69a71.56,71.56,0,0,0,25.53-32l-141.56-27a71.54,71.54,0,0,0,12,39.14Z" transform="translate(0.26)"/><path class="cls-34" d="M225.39,55.19,135,38c-3.78,35.19,10.26,65.63,33.46,70.06S216,89.3,225.39,55.19Z" transform="translate(0.26)"/><path class="cls-35" d="M213.81,166.4c39.95-6.81,66.91-44.18,60.21-83.46L129.33,107.61C136,146.9,173.85,173.22,213.81,166.4Z" transform="translate(0.26)"/><path class="cls-36" d="M241.05,160.18c.32,1.84-1.2,3.63-3.39,4l-47.09,8c-2.19.37-4.22-.82-4.53-2.66h0c-.32-1.84,1.2-3.64,3.39-4l47.09-8c2.19-.38,4.22.82,4.53,2.66Z" transform="translate(0.26)"/><path class="cls-37" d="M275.55,82.12a3.29,3.29,0,0,1-2.69,3.8L131.69,110a3.3,3.3,0,0,1-3.8-2.7h0a3.29,3.29,0,0,1,2.69-3.8L271.75,79.43a3.29,3.29,0,0,1,3.8,2.69Z" transform="translate(0.26)"/><path class="cls-38" d="M262.25,135.32A71.61,71.61,0,0,0,275,96.41L132.91,120.64a71.56,71.56,0,0,0,24.89,32.49Z" transform="translate(0.26)"/><path class="cls-34" d="M231.12,93,140.43,108.5c8.77,34.29,32.58,57.9,55.86,53.93S234.21,128.29,231.12,93Z" transform="translate(0.26)"/><path class="cls-39" d="M158.09,195.14c35.91,18.79,80,5.4,98.47-29.91l-130-68C108,132.5,122.17,176.35,158.09,195.14Z" transform="translate(0.26)"/><path class="cls-40" d="M183.53,206.7c-.86,1.65-3.16,2.16-5.12,1.13l-42.33-22.14c-2-1-2.86-3.21-2-4.86h0c.87-1.66,3.16-2.17,5.13-1.14l42.33,22.15c2,1,2.86,3.2,2,4.86Z" transform="translate(0.26)"/><path class="cls-41" d="M258.27,165.5a3.29,3.29,0,0,1-4.44,1.4L126.94,100.51a3.27,3.27,0,0,1-1.39-4.44h0A3.29,3.29,0,0,1,130,94.68l126.89,66.38a3.28,3.28,0,0,1,1.39,4.44Z" transform="translate(0.26)"/><path class="cls-42" d="M215.45,199.76a71.52,71.52,0,0,0,33.7-23.24l-127.7-66.8a71.54,71.54,0,0,0,.13,40.93Z" transform="translate(0.26)"/><path class="cls-34" d="M216.31,147.27,134.8,104.62c-13.8,32.59-9.17,65.8,11.76,76.75S197.41,177.19,216.31,147.27Z" transform="translate(0.26)"/><path class="cls-43" d="M191.78,260.11c40.53,0,73.39-32.31,73.39-72.15H118.39C118.39,227.8,151.25,260.11,191.78,260.11Z" transform="translate(0.26)"/><path class="cls-44" d="M219.69,258.55c0,1.87-1.8,3.38-4,3.38H167.9c-2.22,0-4-1.51-4-3.38h0c0-1.87,1.8-3.38,4-3.38h47.77c2.22,0,4,1.51,4,3.38Z" transform="translate(0.26)"/><path class="cls-45" d="M266.81,187.41a3.29,3.29,0,0,1-3.29,3.29H120.31a3.3,3.3,0,0,1-3.29-3.29h0a3.3,3.3,0,0,1,3.29-3.3H263.52a3.29,3.29,0,0,1,3.29,3.3Z" transform="translate(0.26)"/><path class="cls-46" d="M244.76,237.61a71.55,71.55,0,0,0,19.08-36.21H119.72a71.64,71.64,0,0,0,19.09,36.21Z" transform="translate(0.26)"/><path class="cls-47" d="M221.18,190.7h-92c2.88,35.27,22.37,62.55,46,62.55S218.3,226,221.18,190.7Z" transform="translate(0.26)"/><path class="cls-48" d="M407.93,151.6c43.64,0,79-19.4,79-43.33h-158C328.9,132.2,364.28,151.6,407.93,151.6Z" transform="translate(0.26)"/><path class="cls-49" d="M439.58,109.92H340.52c3.11,21.18,24.1,37.56,49.53,37.56S436.48,131.1,439.58,109.92Z" transform="translate(0.26)"/><path class="cls-50" d="M410.37,173.27c43.64,0,79-19.4,79-43.33h-158C331.34,153.87,366.72,173.27,410.37,173.27Z" transform="translate(0.26)"/><path class="cls-34" d="M442,131.59H343c3.11,21.18,24.1,37.56,49.53,37.56S438.92,152.77,442,131.59Z" transform="translate(0.26)"/><path class="cls-51" d="M438.6,207.56c61.58,0,111.5-21.67,111.5-48.4h-223C327.1,185.89,377,207.56,438.6,207.56Z" transform="translate(0.26)"/><path class="cls-34" d="M483.27,161H343.5c4.38,23.66,34,42,69.88,42S478.89,184.66,483.27,161Z" transform="translate(0.26)"/><path class="cls-52" d="M433.14,239.93c61.58,0,111.5-21.67,111.5-48.4h-223C321.65,218.26,371.56,239.93,433.14,239.93Z" transform="translate(0.26)"/><path class="cls-53" d="M477.81,193.38H338c4.38,23.65,34,42,69.89,42S473.43,217,477.81,193.38Z" transform="translate(0.26)"/><path class="cls-54" d="M445.4,249.13c85.55,0,154.9-10.55,154.9-23.57H290.5C290.5,238.58,359.85,249.13,445.4,249.13Z" transform="translate(0.26)"/><path class="cls-55" d="M507.45,226.46H313.28c6.08,11.52,47.23,20.43,97.09,20.43S501.37,238,507.45,226.46Z" transform="translate(0.26)"/><path class="cls-56" d="M445.4,264.85c85.55,0,154.9-10.55,154.9-23.57H290.5C290.5,254.3,359.85,264.85,445.4,264.85Z" transform="translate(0.26)"/><path class="cls-57" d="M507.45,242.18H313.28c6.08,11.52,47.23,20.43,97.09,20.43S501.37,253.7,507.45,242.18Z" transform="translate(0.26)"/><rect class="cls-58" x="69.14" y="261.84" width="566.96" height="39.55"/><rect class="cls-58" x="929.45" y="44.34" width="205.38" height="29.37"/><rect class="cls-59" x="981.79" y="54.47" width="18.58" height="75.51" rx="4.42"/><path class="cls-60" d="M985,54.47h9.73a4.43,4.43,0,0,1,4.43,4.43v66.66a4.42,4.42,0,0,1-4.42,4.42H985a4.42,4.42,0,0,1-4.42-4.42V58.89A4.42,4.42,0,0,1,985,54.47Z"/><path class="cls-61" d="M992.5,114.05a2.86,2.86,0,1,0-2.86,2.86A2.86,2.86,0,0,0,992.5,114.05Z" transform="translate(0.26)"/><path class="cls-61" d="M992.5,122.61a2.86,2.86,0,1,0-2.86,2.86A2.87,2.87,0,0,0,992.5,122.61Z" transform="translate(0.26)"/><path class="cls-62" d="M1025.33,131.75l-43.07,2.32V277.68a11.49,11.49,0,0,0,1.33.07c34.36,0,45-27.07,45-60.46S1025.33,131.75,1025.33,131.75Z" transform="translate(0.26)"/><path class="cls-63" d="M1023.56,131.75l-43.06-4.42V277.68a11.2,11.2,0,0,0,1.32.07c34.36,0,45-27.07,45-60.46S1023.56,131.75,1023.56,131.75Z" transform="translate(0.26)"/><path class="cls-64" d="M987.67,200.13a2.38,2.38,0,1,0-2.38,2.38A2.37,2.37,0,0,0,987.67,200.13Z" transform="translate(0.26)"/><path class="cls-64" d="M1023.8,230a2.38,2.38,0,1,0-2.38,2.37A2.38,2.38,0,0,0,1023.8,230Z" transform="translate(0.26)"/><path class="cls-64" d="M1019.79,141.39a2.08,2.08,0,1,0-2.08,2.08A2.08,2.08,0,0,0,1019.79,141.39Z" transform="translate(0.26)"/><path class="cls-64" d="M1016.94,148.13a1.32,1.32,0,1,0-1.31,1.32A1.31,1.31,0,0,0,1016.94,148.13Z" transform="translate(0.26)"/><path class="cls-64" d="M1012.19,141.39a1.32,1.32,0,1,0-1.31,1.32A1.31,1.31,0,0,0,1012.19,141.39Z" transform="translate(0.26)"/><path class="cls-64" d="M991.33,203.74A1.24,1.24,0,1,0,990.1,205,1.23,1.23,0,0,0,991.33,203.74Z" transform="translate(0.26)"/><circle class="cls-64" cx="1016.66" cy="235.86" r="1.23"/><path class="cls-64" d="M1020.87,150.53a1.08,1.08,0,1,0-1.08,1.08A1.08,1.08,0,0,0,1020.87,150.53Z" transform="translate(0.26)"/><path class="cls-64" d="M1018,156.82a1.08,1.08,0,1,0-1.08,1.08A1.08,1.08,0,0,0,1018,156.82Z" transform="translate(0.26)"/><path class="cls-64" d="M1021.87,219.34a1.24,1.24,0,1,0-2.47,0,1.24,1.24,0,0,0,2.47,0Z" transform="translate(0.26)"/><path class="cls-64" d="M1024.93,167.25a1.08,1.08,0,1,0-1.08,1.07A1.08,1.08,0,0,0,1024.93,167.25Z" transform="translate(0.26)"/><path class="cls-64" d="M986.75,212.9a1.37,1.37,0,1,0-1.37,1.37A1.37,1.37,0,0,0,986.75,212.9Z" transform="translate(0.26)"/><rect class="cls-59" x="1066.83" y="61.8" width="18.58" height="75.51" rx="4.42"/><path class="cls-60" d="M1070.07,61.8h9.73a4.43,4.43,0,0,1,4.43,4.43v66.66a4.42,4.42,0,0,1-4.42,4.42h-9.74a4.42,4.42,0,0,1-4.42-4.42V66.22A4.42,4.42,0,0,1,1070.07,61.8Z"/><path class="cls-61" d="M1077.54,121.38a2.86,2.86,0,1,0-2.86,2.86A2.86,2.86,0,0,0,1077.54,121.38Z" transform="translate(0.26)"/><path class="cls-61" d="M1077.54,129.93a2.86,2.86,0,1,0-2.86,2.86A2.86,2.86,0,0,0,1077.54,129.93Z" transform="translate(0.26)"/><path class="cls-64" d="M1074.58,149.29a2.08,2.08,0,1,0-2.08,2.08A2.08,2.08,0,0,0,1074.58,149.29Z" transform="translate(0.26)"/><path class="cls-62" d="M1065.69,281.39c23-10.32,41.84-52.46,41.84-102.88,0-14.38-.65-31.81-3.19-44.3h-37.09Z" transform="translate(0.26)"/><path class="cls-63" d="M1065.69,281.39c23-10.32,40.28-52.46,40.28-102.88,0-14.38-.65-31.81-3.19-44.3h-37.09Z" transform="translate(0.26)"/><path class="cls-64" d="M1074.58,163.67a2.08,2.08,0,1,0-2.08,2.08A2.08,2.08,0,0,0,1074.58,163.67Z" transform="translate(0.26)"/><path class="cls-64" d="M1102.78,207.8a2.08,2.08,0,1,0-2.08,2.08A2.08,2.08,0,0,0,1102.78,207.8Z" transform="translate(0.26)"/><path class="cls-64" d="M1077.35,180.39a2.08,2.08,0,1,0-2.08,2.08A2.08,2.08,0,0,0,1077.35,180.39Z" transform="translate(0.26)"/><path class="cls-64" d="M1078.91,160.51a.69.69,0,1,0-.69.69A.69.69,0,0,0,1078.91,160.51Z" transform="translate(0.26)"/><path class="cls-64" d="M1096.92,209.88a.69.69,0,1,0-.69.69A.69.69,0,0,0,1096.92,209.88Z" transform="translate(0.26)"/><path class="cls-64" d="M1078.91,176.15a.69.69,0,1,0-.69.69A.69.69,0,0,0,1078.91,176.15Z" transform="translate(0.26)"/><path class="cls-64" d="M1073.19,170.93a.69.69,0,1,0-.69.69A.69.69,0,0,0,1073.19,170.93Z" transform="translate(0.26)"/><path class="cls-64" d="M1075.27,166.8a.69.69,0,1,0-.69.69A.69.69,0,0,0,1075.27,166.8Z" transform="translate(0.26)"/><path class="cls-64" d="M1083.14,240.53a.79.79,0,0,0-1.58,0,.79.79,0,0,0,1.58,0Z" transform="translate(0.26)"/><path class="cls-64" d="M1075.7,154.57a1.12,1.12,0,1,0-1.12,1.12A1.12,1.12,0,0,0,1075.7,154.57Z" transform="translate(0.26)"/><path class="cls-64" d="M1077.24,241.32a1.28,1.28,0,1,0-1.28,1.28A1.28,1.28,0,0,0,1077.24,241.32Z" transform="translate(0.26)"/><path class="cls-64" d="M1080,167.88a1.12,1.12,0,1,0-1.12,1.12A1.12,1.12,0,0,0,1080,167.88Z" transform="translate(0.26)"/><path class="cls-64" d="M1076.82,171.62a1.12,1.12,0,1,0-1.12,1.12A1.12,1.12,0,0,0,1076.82,171.62Z" transform="translate(0.26)"/><path class="cls-6" d="M277.1,767c-5.27,29.45-58.28,44.61-118.39,33.85S54.14,757.46,59.41,728s58.28-44.6,118.39-33.84S282.37,737.52,277.1,767Z" transform="translate(0.26)"/><path class="cls-6" d="M562.37,747.08c-4,22.33-44.18,33.81-89.74,25.66s-79.25-32.86-75.26-55.19,44.17-33.8,89.73-25.65S566.36,724.76,562.37,747.08Z" transform="translate(0.26)"/><path class="cls-6" d="M598.57,785.87c-4,22.32-44.17,33.81-89.73,25.65s-79.26-32.86-75.26-55.18,44.17-33.81,89.73-25.66S602.56,763.55,598.57,785.87Z" transform="translate(0.26)"/><polygon class="cls-65" points="307.62 640.22 296.26 633.67 333.86 590.8 446.61 477.93 473.23 503.16 333.5 598.25 307.62 640.22"/><polygon class="cls-66" points="412.1 512.47 360.89 561.55 353.87 584.41 447.07 520.98 376.76 564.41 412.1 512.47"/><polygon class="cls-67" points="376.35 478.44 414.86 492.82 365.81 573.27 468.02 507.47 483.51 532.95 339.86 605.66 376.35 478.44"/><polygon class="cls-68" points="317.18 645.74 307.86 632.94 326.68 599.26 375.36 463.95 401.91 464.52 344.32 605.71 317.18 645.74"/><polygon class="cls-69" points="309.26 661.64 298.7 651.76 336.12 603.12 464.78 536.03 477.65 573.38 344.11 626.74 309.26 661.64"/><polygon class="cls-66" points="464.78 536.03 350.45 586.07 393.61 484.88 340.02 601.11 464.78 536.03"/><polygon class="cls-70" points="300.41 681.22 273.95 665.96 325.65 585.99 333 477.11 355.25 472.86 347.77 588.54 300.41 681.22"/><path class="cls-71" d="M201.2,752a65.45,65.45,0,0,1-10.14-1.3c-40.07-8.43-64.68-52.74-55-99a93.7,93.7,0,0,1,26.93-49,28,28,0,0,1-2.22-1.94c-14.63,12.39-25.76,30.48-30.27,51.95-9.72,46.23,14.88,90.53,55,99a64.8,64.8,0,0,0,16,1.34C201.38,752.71,201.28,752.36,201.2,752Z" transform="translate(0.26)"/><path class="cls-72" d="M257.77,759.21a30.46,30.46,0,1,0-30.46,30.46A30.46,30.46,0,0,0,257.77,759.21Z" transform="translate(0.26)"/><path class="cls-73" d="M217.55,730.35a30.45,30.45,0,0,0-16.9,43.58,23.61,23.61,0,1,0,16.9-43.58Z" transform="translate(0.26)"/><path class="cls-30" d="M214,731.73a30.44,30.44,0,0,0-14.35,40.14A21.37,21.37,0,1,0,214,731.73Z" transform="translate(0.26)"/><path class="cls-72" d="M212.35,740.72c-.41-1.1-2.36,4.15-7.19,7.39-.6.4-1.28.81-2,1.22a37.67,37.67,0,0,0-.69-8,29.71,29.71,0,0,0-3.33,5.83,21.11,21.11,0,0,0-.33,4.12l-.57.26-.69.31a31.28,31.28,0,0,0-.73,4.15c.7-.28,1.36-.56,1.93-.83,0,.48-.05,1,0,1.63,0,2.4-.82,7.59-1,10.55.2.7.42,1.39.67,2.07,1.32-.94,4-7.89,4.56-12.49.11-1,.17-1.84.18-2.53a9.19,9.19,0,0,0,3.76-1.3A11.65,11.65,0,0,0,212.35,740.72Z" transform="translate(0.26)"/><path class="cls-74" d="M201.44,747.54c-.6.4-1.28.81-2,1.22.08-3.87-.63-9.92-1.64-9.83-1.17.11-2.93,9.12-2.72,11.83-.18.09-.37.18-.57.26-3.18,1.35-10.35,5.41-9.68,6.38.57.81,6.91-1.19,10.19-2.75,0,.48-.05,1,0,1.62.06,3.46-1.75,12.7-.57,12.74s4.29-7.64,4.84-12.61c.11-1,.17-1.83.19-2.52a9.3,9.3,0,0,0,3.75-1.3,11.64,11.64,0,0,0,5.4-12.43C208.21,739,206.26,744.3,201.44,747.54Z" transform="translate(0.26)"/><path class="cls-72" d="M214.51,680a30.46,30.46,0,1,0-30.46,30.46A30.46,30.46,0,0,0,214.51,680Z" transform="translate(0.26)"/><path class="cls-73" d="M174.29,651.09a30.45,30.45,0,0,0-16.9,43.58,23.61,23.61,0,1,0,16.9-43.58Z" transform="translate(0.26)"/><path class="cls-30" d="M170.74,652.46a30.45,30.45,0,0,0-14.35,40.15,21.37,21.37,0,1,0,14.35-40.15Z" transform="translate(0.26)"/><path class="cls-72" d="M169.09,661.46c-.41-1.1-2.36,4.15-7.19,7.39-.59.4-1.28.81-2,1.22a38.32,38.32,0,0,0-.7-8,29.71,29.71,0,0,0-3.33,5.83,21.11,21.11,0,0,0-.33,4.12l-.57.26c-.21.09-.44.19-.68.31a29.75,29.75,0,0,0-.74,4.15c.7-.28,1.36-.56,1.93-.83,0,.49-.05,1,0,1.63,0,2.4-.82,7.59-1,10.55.2.7.42,1.39.67,2.07,1.33-.94,4-7.89,4.56-12.5.11-1,.17-1.83.18-2.52a9.19,9.19,0,0,0,3.76-1.3A11.65,11.65,0,0,0,169.09,661.46Z" transform="translate(0.26)"/><path class="cls-74" d="M158.18,668.28c-.6.4-1.28.81-2,1.22.08-3.88-.63-9.92-1.64-9.83-1.17.11-2.93,9.12-2.72,11.83-.18.09-.37.18-.57.26-3.18,1.35-10.35,5.41-9.68,6.38.57.81,6.91-1.19,10.19-2.75,0,.48,0,1,0,1.62.06,3.46-1.75,12.7-.57,12.74s4.29-7.64,4.84-12.61c.11-1,.17-1.83.19-2.52a9.3,9.3,0,0,0,3.75-1.3,11.64,11.64,0,0,0,5.4-12.43C165,659.79,163,665,158.18,668.28Z" transform="translate(0.26)"/><path class="cls-72" d="M97.1,720.62a30.46,30.46,0,1,0-31.22-29.68A30.45,30.45,0,0,0,97.1,720.62Z" transform="translate(0.26)"/><path class="cls-73" d="M124.93,679.68a30.47,30.47,0,0,0-44-15.8,23.61,23.61,0,1,0,44,15.8Z" transform="translate(0.26)"/><path class="cls-30" d="M123.47,676.17A30.45,30.45,0,0,0,83,662.83a21.37,21.37,0,1,0,40.5,13.34Z" transform="translate(0.26)"/><path class="cls-72" d="M114.44,674.74c1.09-.44-4.22-2.25-7.57-7-.42-.59-.85-1.26-1.27-1.94a37.63,37.63,0,0,0,7.93-.9,30.09,30.09,0,0,0-5.92-3.18,21,21,0,0,0-4.12-.23c-.1-.18-.19-.37-.28-.56s-.2-.43-.32-.67a28.72,28.72,0,0,0-4.17-.63c.3.69.59,1.34.88,1.9-.49,0-1,0-1.63,0-2.4.09-7.61-.64-10.57-.69-.7.21-1.38.45-2.05.71,1,1.31,8,3.85,12.6,4.24,1,.09,1.84.13,2.53.13a9.28,9.28,0,0,0,1.39,3.72A11.65,11.65,0,0,0,114.44,674.74Z" transform="translate(0.26)"/><path class="cls-74" d="M107.34,664c-.41-.59-.84-1.26-1.27-1.94,3.88,0,9.9-.88,9.78-1.89-.13-1.17-9.18-2.69-11.89-2.42l-.27-.56c-1.43-3.14-5.67-10.22-6.62-9.52-.8.59,1.36,6.88,3,10.13a14.73,14.73,0,0,0-1.63,0c-3.45.14-12.74-1.43-12.74-.26s7.74,4.1,12.72,4.52c1,.09,1.84.13,2.53.13a9.23,9.23,0,0,0,1.39,3.72c4.05,6.51,11.47,5.52,12.56,5.09S110.7,668.75,107.34,664Z" transform="translate(0.26)"/><path class="cls-72" d="M157.31,780.93a30.46,30.46,0,1,0-41.82-10.31A30.46,30.46,0,0,0,157.31,780.93Z" transform="translate(0.26)"/><path class="cls-73" d="M161.2,731.58a30.46,30.46,0,0,0-46,8.08,23.61,23.61,0,1,0,46-8.08Z" transform="translate(0.26)"/><path class="cls-30" d="M158.19,729.26a30.48,30.48,0,0,0-41.79,8.47,21.16,21.16,0,0,0,2.9,8.3,21.37,21.37,0,0,0,38.89-16.77Z" transform="translate(0.26)"/><path class="cls-72" d="M149.64,732.49c.73-.92-4.78.13-10-2.32-.65-.31-1.35-.68-2.06-1.06A38.07,38.07,0,0,0,144,724.4a30.24,30.24,0,0,0-6.72.17,20.83,20.83,0,0,0-3.7,1.85q-.26-.17-.51-.36l-.61-.42a29.09,29.09,0,0,0-3.94,1.52c.6.46,1.18.87,1.71,1.22a15.49,15.49,0,0,0-1.41.81c-2,1.27-6.93,3.22-9.53,4.64-.5.53-1,1.08-1.43,1.64,1.49.65,8.84-.62,13-2.56.92-.43,1.66-.81,2.26-1.15a9.4,9.4,0,0,0,3,2.54A11.65,11.65,0,0,0,149.64,732.49Z" transform="translate(0.26)"/><path class="cls-75" d="M138.16,726.68c-.66-.3-1.36-.67-2.07-1,3.36-1.94,8.16-5.67,7.56-6.49s-9.31,2.21-11.52,3.79l-.52-.35c-2.8-2-10-6.07-10.47-5-.4.91,4.6,5.3,7.63,7.31-.43.22-.9.48-1.41.8-2.93,1.84-11.78,5.07-11.2,6.1s8.76-.29,13.29-2.38c.92-.42,1.66-.8,2.26-1.14a9.34,9.34,0,0,0,3.06,2.54c6.74,3.65,12.69-.89,13.43-1.81S143.42,729.14,138.16,726.68Z" transform="translate(0.26)"/><path class="cls-75" d="M104.81,659.75a26.67,26.67,0,0,1,3.3-5.66c6-7.88,16.2-12.91,28.81-15.06l-.71-3.51c-12.21,2.23-22.09,7.2-27.94,14.91a26.5,26.5,0,0,0-4.54,9.15Z" transform="translate(0.26)"/><path class="cls-74" d="M135.43,728a17.39,17.39,0,0,1-1.24-3.71c-1.2-5.78.44-12.22,4.23-18.53l-1.81-1.12c-3.6,6.17-5.13,12.45-4,18.09a16.52,16.52,0,0,0,2.3,5.67Z" transform="translate(0.26)"/><path class="cls-75" d="M154.4,672.07a22.36,22.36,0,0,0-2.06-4.57C148.56,661.17,142,657.35,133.9,656l.5-2.92c7.87,1.44,14.19,5.22,17.88,11.4a23.32,23.32,0,0,1,2.82,7.42Z" transform="translate(0.26)"/><path class="cls-76" d="M437,641.66c3.42-2.68,8.42-10.37,12.08-10.71,7.75-.72,12.85,9.94,14.59,22.3a25.35,25.35,0,0,1,.19,5.2l4.64,3.56a30.65,30.65,0,0,0,1.56-15c-2.19-15.55-8.86-30-22.89-28-6.74,1-14.39,5.64-19.82,11.86Z" transform="translate(0.26)"/><path class="cls-77" d="M465.88,660.07a59.62,59.62,0,0,0,.47-7.15c.43-14.68-8.12-27.07-17.39-26.2-4.34.41-10.94,8.51-15,11.74l2.85,3.42c3.43-2.68,8.58-10.38,12.24-10.72,7.75-.72,12.85,9.94,14.6,22.31a24,24,0,0,1,.22,5Z" transform="translate(0.26)"/><path class="cls-78" d="M435.63,633.44c-2.53-3.15-6-4.53-7.8-3.1s-1.17,5.14,1.37,8.29,6,4.52,7.8,3.09S438.17,636.58,435.63,633.44Z" transform="translate(0.26)"/><path class="cls-79" d="M493.72,643.25c-11.12-1.63-21.43-1.63-28.14,7.41-6.34-7.27-14-7.46-23.19-6.16-20,2.82-29.74,20.22-22.3,50.72,7.8,32,25,44,35.45,42.57a20,20,0,0,0,12-6.11,16.34,16.34,0,0,0,8.78,4.79c12.4,1.81,28.5-5.79,37.38-42.4C520.52,666,512.56,646,493.72,643.25Z" transform="translate(0.26)"/><path class="cls-80" d="M512.86,688c-8.89,36.61-25,44.22-37.38,42.39a16.18,16.18,0,0,1-8.78-4.78,20,20,0,0,1-12,6.11c-10.42,1.47-27.65-10.6-35.45-42.57-.52-2.14-.95-4.2-1.3-6.2a90.61,90.61,0,0,0,2.11,11.95c7.8,32,25,44.05,35.45,42.58a20,20,0,0,0,12-6.11,16.19,16.19,0,0,0,8.77,4.78c12.4,1.82,28.5-5.78,37.39-42.39,2.67-11,3.06-20.81,1.4-28.79A73.56,73.56,0,0,1,512.86,688Z" transform="translate(0.26)"/><path class="cls-81" d="M467.28,659.87a102.86,102.86,0,0,0-2-10.54c-6.28-7-13.86-7.14-22.92-5.87-20,2.82-29.73,20.23-22.29,50.72,4.86,19.94,13.39,32.14,21.65,38.14C460.78,721.41,471.84,692.15,467.28,659.87Z" transform="translate(0.26)"/><path class="cls-82" d="M460.17,680c1.95-15.5-2.5-29.66-10.58-37.14a53.86,53.86,0,0,0-7.27.61c-20,2.82-29.73,20.23-22.29,50.72a90.87,90.87,0,0,0,8,21.58l.52.09C443.3,717.7,457.45,701.64,460.17,680Z" transform="translate(0.26)"/><path class="cls-83" d="M433.1,664.51c-.86,4.87-3.31,8.5-5.48,8.12s-3.23-4.64-2.37-9.5,3.3-8.5,5.47-8.12S434,659.65,433.1,664.51Z" transform="translate(0.26)"/><path class="cls-83" d="M430.55,679a2.92,2.92,0,1,1-2.34-3.56A3,3,0,0,1,430.55,679Z" transform="translate(0.26)"/><path class="cls-77" d="M482.78,640.69a10.37,10.37,0,0,0-9.28,2.43,5.83,5.83,0,0,0-6.7-.54,6.21,6.21,0,0,0-.6.35,8.61,8.61,0,0,0-3.71-.64,9.78,9.78,0,0,0-3.27.48,10.37,10.37,0,0,0-11.51-.42c-4.77,2.92-12.91,12.19-10.8,14.23,1.95,1.87,14.08-2.5,19.69-5.48.64,5.42,2.59,13.21,5.34,13.2,2.56,0,5.08-6.7,6.16-12,4.58,3.94,12.31,9.53,14,8.69,1.31-.67-.86-5.71-3.33-10.22,5.56,1.19,16.68,2.69,17.46,1.05C497.06,650,487.11,641.89,482.78,640.69Z" transform="translate(0.26)"/><path class="cls-84" d="M457.71,649.3c11.2,0,20.68-4.3,24-10.15a10.56,10.56,0,0,0-7.35,2.72,5.87,5.87,0,0,0-6.71-.55q-.3.16-.6.36a8.46,8.46,0,0,0-3.71-.64,9.33,9.33,0,0,0-3.27.48,10.35,10.35,0,0,0-11.51-.42,32.6,32.6,0,0,0-6.11,5.29A38.52,38.52,0,0,0,457.71,649.3Z" transform="translate(0.26)"/><path class="cls-76" d="M506.91,677c4.09-1.48,11.24-7.22,14.82-6.39,7.58,1.74,9.1,13.46,6.88,25.75a24.87,24.87,0,0,1-1.45,5l3.3,4.83a30.61,30.61,0,0,0,6.15-13.71c2.79-15.46,1-31.25-13-33.76-6.7-1.21-15.44.85-22.54,5.06Z" transform="translate(0.26)"/><path class="cls-77" d="M528.6,703.56a57.89,57.89,0,0,0,2.69-6.64c5-13.81.75-28.25-8.32-30.32-4.26-1-13.06,4.65-18,6.44l1.64,4.14c4.09-1.47,11.39-7.17,15-6.35,7.58,1.74,9.09,13.46,6.88,25.75a23.56,23.56,0,0,1-1.35,4.81Z" transform="translate(0.26)"/><path class="cls-78" d="M508.21,668.8c-1.42-3.77-4.31-6.18-6.44-5.38s-2.72,4.52-1.3,8.3,4.31,6.18,6.45,5.38S509.63,672.58,508.21,668.8Z" transform="translate(0.26)"/><path class="cls-79" d="M560.31,696.3c-10-5-19.84-8.26-29-1.77-3.74-8.89-11-11.46-20.1-13.11-19.87-3.57-34.57,9.9-37,41.2-2.6,32.81,10,49.66,20.35,51.53a20.06,20.06,0,0,0,13.32-2,16.14,16.14,0,0,0,6.84,7.29c11.2,5.61,28.87,3.43,48.77-28.57C578.64,726.31,577.34,704.82,560.31,696.3Z" transform="translate(0.26)"/><path class="cls-80" d="M564.48,744.82c-19.9,32-37.57,34.18-48.77,28.57a16.3,16.3,0,0,1-6.84-7.29,20.05,20.05,0,0,1-13.32,2c-10.36-1.86-22.95-18.72-20.35-51.53.17-2.18.41-4.28.7-6.29a90.56,90.56,0,0,0-1.74,12c-2.59,32.81,10,49.66,20.36,51.53a20.06,20.06,0,0,0,13.32-2,16.27,16.27,0,0,0,6.84,7.3c11.2,5.6,28.87,3.42,48.77-28.57,6-9.64,9.42-18.81,10.34-26.91A73.56,73.56,0,0,1,564.48,744.82Z" transform="translate(0.26)"/><path class="cls-81" d="M530,703.81a102.4,102.4,0,0,0,1.36-10.65c-3.79-8.59-10.93-11.12-19.94-12.74-19.87-3.58-34.56,9.9-37,41.2-1.62,20.46,2.67,34.71,8.63,43C504.57,760.23,524.22,735.89,530,703.81Z" transform="translate(0.26)"/><path class="cls-82" d="M517,720.7c6.69-14.12,6.91-29,1.57-38.59a53.93,53.93,0,0,0-7.1-1.69c-19.87-3.58-34.56,9.9-37,41.2a90.74,90.74,0,0,0,.86,23l.47.25C489.13,751.23,507.59,740.41,517,720.7Z" transform="translate(0.26)"/><path class="cls-83" d="M496.08,697.52c-2.34,4.36-5.81,7-7.74,6s-1.62-5.41.71-9.76,5.8-7,7.74-6S498.41,693.17,496.08,697.52Z" transform="translate(0.26)"/><path class="cls-83" d="M489.12,710.49a2.92,2.92,0,1,1-1.1-4.12A3,3,0,0,1,489.12,710.49Z" transform="translate(0.26)"/><path class="cls-77" d="M550.72,690.45a10.33,10.33,0,0,0-9.57-.6,5.86,5.86,0,0,0-6.2-2.61,4.38,4.38,0,0,0-.68.15,8.48,8.48,0,0,0-3.32-1.77,9.66,9.66,0,0,0-3.26-.57,10.37,10.37,0,0,0-10.8-4c-5.45,1.28-16.07,7.54-14.71,10.13,1.26,2.39,14.15,2,20.42,1-1.09,5.35-1.68,13.36.94,14.21,2.43.79,6.92-4.78,9.6-9.47,3.12,5.17,8.71,12.9,10.55,12.62,1.44-.22,1-5.7,0-10.75,4.91,2.88,15,7.78,16.25,6.46C561.37,703.73,554.46,692.94,550.72,690.45Z" transform="translate(0.26)"/><path class="cls-84" d="M524.22,690.78c10.64,3.46,21,2.39,26-2.13a10.57,10.57,0,0,0-7.83.28,5.88,5.88,0,0,0-6.2-2.62l-.68.15a8.6,8.6,0,0,0-3.32-1.76,9.19,9.19,0,0,0-3.26-.57,10.37,10.37,0,0,0-10.8-4,32.72,32.72,0,0,0-7.46,3.12A38.59,38.59,0,0,0,524.22,690.78Z" transform="translate(0.26)"/><path class="cls-85" d="M607.51,429.71a35.62,35.62,0,1,0-45.21,22.22A35.62,35.62,0,0,0,607.51,429.71Z" transform="translate(0.26)"/><path class="cls-85" d="M1305.28,722.7a31.35,31.35,0,1,0-31.34,31.35A31.34,31.34,0,0,0,1305.28,722.7Z" transform="translate(0.26)"/><path class="cls-85" d="M158.69,564.65A21.33,21.33,0,1,0,137.36,586,21.33,21.33,0,0,0,158.69,564.65Z" transform="translate(0.26)"/><path class="cls-85" d="M1306.56,82.94a21.34,21.34,0,1,0-21.34,21.33A21.33,21.33,0,0,0,1306.56,82.94Z" transform="translate(0.26)"/><path class="cls-85" d="M399.17,790.09a21.34,21.34,0,1,0-21.34,21.33A21.34,21.34,0,0,0,399.17,790.09Z" transform="translate(0.26)"/><path class="cls-85" d="M644.64,76.25a41.35,41.35,0,1,0-41.35,41.35A41.35,41.35,0,0,0,644.64,76.25Z" transform="translate(0.26)"/><path class="cls-85" d="M888,649.47a41.35,41.35,0,1,0-41.35,41.35A41.35,41.35,0,0,0,888,649.47Z" transform="translate(0.26)"/><path class="cls-86" d="M521.8,440a8.81,8.81,0,1,0-11.18,5.49A8.8,8.8,0,0,0,521.8,440Z" transform="translate(0.26)"/><path class="cls-86" d="M1257.29,784.92a14,14,0,1,0-14,14A14,14,0,0,0,1257.29,784.92Z" transform="translate(0.26)"/><path class="cls-86" d="M69.12,609.55a10.18,10.18,0,1,0-10.18,10.18A10.18,10.18,0,0,0,69.12,609.55Z" transform="translate(0.26)"/><path class="cls-86" d="M553.84,473.66a3.86,3.86,0,1,0-4.9,2.41A3.86,3.86,0,0,0,553.84,473.66Z" transform="translate(0.26)"/><path class="cls-86" d="M615.56,349.77a6.14,6.14,0,1,0-6.13,6.14A6.14,6.14,0,0,0,615.56,349.77Z" transform="translate(0.26)"/><path class="cls-86" d="M867.38,647.71a6.13,6.13,0,1,0-6.13,6.13A6.13,6.13,0,0,0,867.38,647.71Z" transform="translate(0.26)"/><path class="cls-86" d="M83.56,564.65a6.14,6.14,0,1,0-6.14,6.14A6.14,6.14,0,0,0,83.56,564.65Z" transform="translate(0.26)"/><path class="cls-86" d="M612.42,147.58A12.12,12.12,0,1,0,600.3,159.7,12.12,12.12,0,0,0,612.42,147.58Z" transform="translate(0.26)"/><path class="cls-86" d="M765.29,638.06a4.68,4.68,0,1,0-4.68,4.67A4.69,4.69,0,0,0,765.29,638.06Z" transform="translate(0.26)"/><path class="cls-86" d="M893,707.63a4.67,4.67,0,1,0-4.67,4.67A4.68,4.68,0,0,0,893,707.63Z" transform="translate(0.26)"/><path class="cls-86" d="M1194.72,804.29a4.68,4.68,0,1,0-4.67,4.67A4.67,4.67,0,0,0,1194.72,804.29Z" transform="translate(0.26)"/><path class="cls-86" d="M1299.41,127.61a4.68,4.68,0,1,0-4.67,4.67A4.68,4.68,0,0,0,1299.41,127.61Z" transform="translate(0.26)"/><path class="cls-86" d="M517,66.27a4.68,4.68,0,1,0-4.67,4.67A4.67,4.67,0,0,0,517,66.27Z" transform="translate(0.26)"/><path class="cls-86" d="M107.71,601.93A4.68,4.68,0,1,0,103,606.6,4.67,4.67,0,0,0,107.71,601.93Z" transform="translate(0.26)"/><path class="cls-86" d="M339.48,806.94a4.67,4.67,0,1,0-4.67,4.67A4.68,4.68,0,0,0,339.48,806.94Z" transform="translate(0.26)"/></g></svg>